<?xml version="1.0" encoding="UTF-8" standalone="no"?>
<!DOCTYPE svg PUBLIC "-//W3C//DTD SVG 1.1//EN" "http://www.w3.org/Graphics/SVG/1.1/DTD/svg11.dtd">
<svg width="100%" height="100%" viewBox="0 0 23 42" version="1.1" xmlns="http://www.w3.org/2000/svg" xmlns:xlink="http://www.w3.org/1999/xlink" xml:space="preserve" xmlns:serif="http://www.serif.com/" style="fill-rule:evenodd;clip-rule:evenodd;stroke-linejoin:round;stroke-miterlimit:1.41421;">
    <g>
        <path d="M4.287,3.24L4.287,0.775C4.287,0.347 3.932,0 3.493,0C3.055,0 2.699,0.347 2.699,0.775L2.699,3.31L4.287,3.24ZM2.699,8.578L2.699,20.002C2.699,20.43 3.055,20.777 3.493,20.777C3.932,20.777 4.287,20.43 4.287,20.002L4.287,8.557" style="fill:rgb(0,88,126);"/>
        <path d="M7.132,5.882C7.132,3.961 5.535,2.403 3.566,2.403C1.597,2.403 0,3.961 0,5.882C0,7.804 1.597,9.361 3.566,9.361C5.535,9.361 7.132,7.804 7.132,5.882ZM1.588,5.882C1.588,4.817 2.473,3.954 3.566,3.954C4.658,3.954 5.544,4.817 5.544,5.882C5.544,6.947 4.658,7.811 3.566,7.811C2.473,7.811 1.588,6.947 1.588,5.882Z" style="fill:rgb(0,88,126);"/>
        <path d="M19.213,3.24L19.213,0.775C19.213,0.347 18.858,0 18.419,0C17.981,0 17.625,0.347 17.625,0.775L17.625,3.31L19.213,3.24ZM17.625,8.578L17.625,20.002C17.625,20.43 17.981,20.777 18.419,20.777C18.858,20.777 19.213,20.43 19.213,20.002L19.213,8.557" style="fill:rgb(0,88,126);"/>
        <path d="M22.057,5.882C22.057,3.961 20.461,2.403 18.491,2.403C16.522,2.403 14.926,3.961 14.926,5.882C14.926,7.804 16.522,9.361 18.491,9.361C20.461,9.361 22.057,7.804 22.057,5.882ZM16.514,5.882C16.514,4.817 17.399,3.954 18.491,3.954C19.584,3.954 20.469,4.817 20.469,5.882C20.469,6.947 19.584,7.811 18.491,7.811C17.399,7.811 16.514,6.947 16.514,5.882Z" style="fill:rgb(0,88,126);"/>
        <path d="M10.322,17.538L10.322,20.002C10.322,20.43 10.678,20.777 11.116,20.777C11.555,20.777 11.91,20.43 11.91,20.002L11.91,17.468L10.322,17.538ZM11.91,12.199L11.91,0.776C11.91,0.347 11.555,0 11.116,0C10.678,0 10.322,0.347 10.322,0.776L10.322,12.22" style="fill:rgb(0,88,126);"/>
        <path d="M7.478,14.895C7.478,16.817 9.075,18.374 11.044,18.374C13.013,18.374 14.609,16.817 14.609,14.895C14.609,12.974 13.013,11.416 11.044,11.416C9.075,11.416 7.478,12.974 7.478,14.895ZM13.021,14.895C13.021,15.96 12.136,16.824 11.044,16.824C9.951,16.824 9.066,15.96 9.066,14.895C9.066,13.83 9.951,12.967 11.044,12.967C12.136,12.967 13.021,13.83 13.021,14.895Z" style="fill:rgb(0,88,126);"/>
    </g>
    <g transform="matrix(1,0,0,1,0,21)">
        <path d="M4.287,3.24L4.287,0.775C4.287,0.347 3.932,0 3.493,0C3.055,0 2.699,0.347 2.699,0.775L2.699,3.31L4.287,3.24ZM2.699,8.578L2.699,20.002C2.699,20.43 3.055,20.777 3.493,20.777C3.932,20.777 4.287,20.43 4.287,20.002L4.287,8.557" style="fill:rgb(159,211,168);"/>
        <path d="M7.132,5.882C7.132,3.961 5.535,2.403 3.566,2.403C1.597,2.403 0,3.961 0,5.882C0,7.804 1.597,9.361 3.566,9.361C5.535,9.361 7.132,7.804 7.132,5.882ZM1.588,5.882C1.588,4.817 2.473,3.954 3.566,3.954C4.658,3.954 5.544,4.817 5.544,5.882C5.544,6.947 4.658,7.811 3.566,7.811C2.473,7.811 1.588,6.947 1.588,5.882Z" style="fill:rgb(159,211,168);"/>
        <path d="M19.213,3.24L19.213,0.775C19.213,0.347 18.858,0 18.419,0C17.981,0 17.625,0.347 17.625,0.775L17.625,3.31L19.213,3.24ZM17.625,8.578L17.625,20.002C17.625,20.43 17.981,20.777 18.419,20.777C18.858,20.777 19.213,20.43 19.213,20.002L19.213,8.557" style="fill:rgb(159,211,168);"/>
        <path d="M22.057,5.882C22.057,3.961 20.461,2.403 18.491,2.403C16.522,2.403 14.926,3.961 14.926,5.882C14.926,7.804 16.522,9.361 18.491,9.361C20.461,9.361 22.057,7.804 22.057,5.882ZM16.514,5.882C16.514,4.817 17.399,3.954 18.491,3.954C19.584,3.954 20.469,4.817 20.469,5.882C20.469,6.947 19.584,7.811 18.491,7.811C17.399,7.811 16.514,6.947 16.514,5.882Z" style="fill:rgb(159,211,168);"/>
        <path d="M10.322,17.538L10.322,20.002C10.322,20.43 10.678,20.777 11.116,20.777C11.555,20.777 11.91,20.43 11.91,20.002L11.91,17.468L10.322,17.538ZM11.91,12.199L11.91,0.776C11.91,0.347 11.555,0 11.116,0C10.678,0 10.322,0.347 10.322,0.776L10.322,12.22" style="fill:rgb(159,211,168);"/>
        <path d="M7.478,14.895C7.478,16.817 9.075,18.374 11.044,18.374C13.013,18.374 14.609,16.817 14.609,14.895C14.609,12.974 13.013,11.416 11.044,11.416C9.075,11.416 7.478,12.974 7.478,14.895ZM13.021,14.895C13.021,15.96 12.136,16.824 11.044,16.824C9.951,16.824 9.066,15.96 9.066,14.895C9.066,13.83 9.951,12.967 11.044,12.967C12.136,12.967 13.021,13.83 13.021,14.895Z" style="fill:rgb(159,211,168);"/>
    </g>
</svg>
