<?xml version="1.0" encoding="UTF-8" standalone="no"?>
<!DOCTYPE svg PUBLIC "-//W3C//DTD SVG 1.1//EN" "http://www.w3.org/Graphics/SVG/1.1/DTD/svg11.dtd">
<svg width="52" height="52" viewBox="0 0 52 52" version="1.1" xmlns="http://www.w3.org/2000/svg" xmlns:xlink="http://www.w3.org/1999/xlink" xml:space="preserve" xmlns:serif="http://www.serif.com/" style="fill-rule:evenodd;clip-rule:evenodd;stroke-linejoin:round;stroke-miterlimit:1.41421;">
    <circle cx="26" cy="26" r="26" style="fill:rgb(77,137,159);"/>
    <path d="M26.053,51C39.875,51 51.08,39.807 51.08,26C51.08,12.193 39.875,1 26.053,1C12.231,1 1.027,12.193 1.027,26C1.027,39.807 12.231,51 26.053,51Z" style="fill:rgb(0,87,118);fill-rule:nonzero;"/>
    <clipPath id="_clip1">
        <path d="M26.053,51C39.875,51 51.08,39.807 51.08,26C51.08,12.193 39.875,1 26.053,1C12.231,1 1.027,12.193 1.027,26C1.027,39.807 12.231,51 26.053,51Z" clip-rule="nonzero"/>
    </clipPath>
    <g clip-path="url(#_clip1)">
        <path d="M26.053,51C12.223,51 1.027,39.816 1.027,26C1.027,12.184 12.223,1 26.053,1L26.053,51Z" style="fill:rgb(25,104,132);"/>
        <g>
            <path d="M38.894,51.67L38.894,46.045C38.894,42.953 36.392,40.453 33.296,40.453L19.235,40.453C16.173,40.453 13.637,42.953 13.637,46.045L13.637,51.67L38.894,51.67Z" style="fill:rgb(0,87,118);"/>
            <path d="M33.132,40.453L33.132,40.848L33.066,41.078C32.638,42.591 31.749,43.907 30.531,44.828C29.345,45.749 27.863,46.276 26.25,46.276C24.636,46.276 23.154,45.749 21.969,44.828C20.751,43.907 19.861,42.591 19.433,41.078L19.367,40.848L19.367,40.651L19.367,40.453L22.628,40.453C22.891,41.177 23.352,41.802 23.945,42.262C24.57,42.756 25.394,43.052 26.25,43.052C27.139,43.052 27.929,42.756 28.555,42.262C29.148,41.802 29.609,41.177 29.872,40.453L33.132,40.453Z" style="fill:rgb(180,104,124);"/>
            <path d="M21.112,37.395L31.387,37.395C31.42,37.526 31.452,37.625 31.518,37.756L31.518,40.651C30.893,42.954 28.785,44.664 26.25,44.664C23.747,44.664 21.639,42.954 20.981,40.651L20.981,37.756C21.047,37.658 21.08,37.526 21.112,37.395Z" style="fill:rgb(242,210,145);"/>
            <path d="M21.242,38.217L31.384,37.395C31.417,37.526 31.45,37.625 31.516,37.757L31.516,40.651C30.989,42.559 29.474,44.039 27.532,44.5L21.242,38.217Z" style="fill:rgb(212,161,94);"/>
            <path d="M14.953,51.671L16.929,41.079C12.253,40.289 10.079,44.697 9.618,46.803L8.531,51.671L14.953,51.671Z" style="fill:rgb(180,104,124);"/>
            <path d="M37.214,51.672L35.239,41.08C39.915,40.29 42.088,44.698 42.549,46.804L43.636,51.672L37.214,51.672Z" style="fill:rgb(180,104,124);"/>
            <path d="M26.246,9.994C23.381,10.06 14.688,10.323 14.556,20.422C14.391,30.521 16.565,34.205 17.948,35.718C19.298,37.231 20.747,38.58 23.546,39.304C24.27,40.027 25.061,40.323 26.279,40.488C26.246,30.29 26.246,20.192 26.246,9.994Z" style="fill:rgb(242,210,145);"/>
            <path d="M26.248,9.994C29.113,10.06 37.806,10.323 37.938,20.422C38.103,30.52 35.929,34.205 34.546,35.718C33.196,37.231 31.747,38.58 28.948,39.303C28.224,40.027 27.433,40.323 26.215,40.488C26.248,30.29 26.248,20.192 26.248,9.994Z" style="fill:rgb(237,186,104);"/>
            <path d="M16.137,25.552C15.874,24.894 15.544,24.401 14.721,24.237C13.898,24.072 12.383,24.5 12.383,26.835C12.383,29.204 14.359,31.243 15.61,30.947C16.829,30.684 16.236,26.21 16.137,25.552Z" style="fill:rgb(242,210,145);"/>
            <path d="M15.579,26.342C15.382,25.948 15.118,25.651 14.591,25.52C14.098,25.421 13.34,25.651 13.34,27.099C13.34,28.546 14.361,29.796 15.118,29.599C15.349,29.533 15.48,29.204 15.546,28.744C15.085,28.612 14.789,28.086 14.888,27.494C14.954,27.066 15.217,26.704 15.546,26.573C15.579,26.441 15.579,26.342 15.579,26.342Z" style="fill:rgb(237,186,104);"/>
            <path d="M36.193,25.586C36.522,24.961 36.95,24.434 37.806,24.237C38.63,24.072 40.144,24.5 40.144,26.836C40.144,29.204 38.169,31.243 36.917,30.947C35.666,30.684 36.193,25.586 36.193,25.586Z" style="fill:rgb(237,186,104);"/>
            <path d="M36.95,26.342C37.147,25.948 37.411,25.651 37.938,25.52C38.432,25.421 39.189,25.651 39.189,27.099C39.189,28.546 38.168,29.796 37.411,29.599C37.18,29.533 37.048,29.204 36.983,28.744C37.444,28.612 37.74,28.086 37.641,27.494C37.575,27.066 37.312,26.704 36.983,26.573C36.917,26.441 36.95,26.342 36.95,26.342Z" style="fill:rgb(212,161,94);"/>
            <path d="M14.492,23.809C15.183,18.711 16.402,18.645 16.731,18.184C19.859,16.243 31.747,16.737 32.702,14.599C36.752,18.053 37.971,23.743 37.971,23.743C38.662,18.25 36.653,11.704 33.295,10.224C33.986,9.303 34.579,8.415 33.887,6.441C32.867,7.526 32.241,8.02 30.232,9.336C31.418,8.283 32.702,6.375 32.043,4.072C31.516,4.829 28.651,7.066 27.367,8.184C28.059,6.605 28.026,6.243 27.993,5.553C18.114,10.75 13.767,12.691 14.492,23.809Z" style="fill:rgb(91,68,47);"/>
        </g>
    </g>
</svg>
