<svg width="14" height="13" viewBox="0 0 14 13" fill="none" xmlns="http://www.w3.org/2000/svg">
<ellipse opacity="0.3" cx="6.51051" cy="6.5" rx="6.51051" ry="6.5" fill="#4D899F"/>
<path d="M6.85138 7.97V6.92C7.36138 6.85 7.74138 6.61 7.99138 6.36C8.33138 6.02 8.50138 5.61 8.50138 5.07C8.50138 4.4 8.26138 3.96 7.98138 3.69C7.56138 3.28 7.04138 3.18 6.52138 3.18C5.68138 3.18 5.21138 3.46 4.94138 3.74C4.66138 4.04 4.44138 4.57 4.44138 5.09H5.74138C5.74138 4.74 5.85138 4.54 5.96138 4.44C6.02138 4.38 6.18138 4.26 6.47138 4.26C6.72138 4.26 6.88138 4.35 6.99138 4.46C7.11138 4.58 7.20138 4.77 7.20138 5.04C7.20138 5.31 7.09138 5.55 6.94138 5.71C6.73138 5.92 6.39138 6.05 6.00138 6.05C5.86138 6.05 5.73138 6.04 5.61138 6.01V7.97H6.85138ZM5.45138 9.37C5.45138 9.81 5.79138 10.15 6.23138 10.15C6.67138 10.15 7.01138 9.81 7.01138 9.37C7.01138 8.93 6.67138 8.59 6.23138 8.59C5.79138 8.59 5.45138 8.93 5.45138 9.37Z" fill="#BFD5DD"/>
</svg>
