<svg width="24" height="24" viewBox="0 0 24 24" fill="none" xmlns="http://www.w3.org/2000/svg">
<path fill-rule="evenodd" clip-rule="evenodd" d="M12 0C5.37258 0 0 5.37267 0 12.0002C0 18.6277 5.37258 24.0004 12 24.0004C18.6274 24.0004 24 18.6277 24 12.0002C24 5.37267 18.6274 0 12 0ZM5.76217 9.93907H8.48168V18.1101H5.76217V9.93907ZM8.66047 7.41143C8.64282 6.61027 8.06991 6.00006 7.13958 6.00006C6.20925 6.00006 5.60104 6.61027 5.60104 7.41143C5.60104 8.196 6.19128 8.82378 7.10428 8.82378H7.12166C8.06991 8.82378 8.66047 8.196 8.66047 7.41143ZM15.1583 9.74562C16.9479 9.74562 18.2895 10.9137 18.2895 13.4235L18.2894 18.1085H15.57V13.737C15.57 12.639 15.1765 11.8897 14.192 11.8897C13.4407 11.8897 12.9932 12.3948 12.7967 12.8827C12.7248 13.0575 12.7071 13.3011 12.7071 13.5453V18.1087H9.98732C9.98732 18.1087 10.0232 10.7044 9.98732 9.9377H12.7071V11.0951C13.0681 10.5387 13.7145 9.74562 15.1583 9.74562Z" fill="#9FD3A8"/>
</svg>
