<svg width="262" height="80" viewBox="0 0 262 80" fill="none" xmlns="http://www.w3.org/2000/svg">
<path d="M5.33282 31.5516C4.90785 32.5922 4.09175 35.4296 4.09175 36.0472C4.09175 36.8333 5.53214 36.4964 5.53214 37.6755C5.53214 38.3231 5.16358 38.4616 4.59946 38.4616H0.763443C0.255734 38.4616 0 38.1247 0 37.6755C0 36.3841 1.29748 37.0579 1.72245 35.6542C3.9526 28.2651 6.99885 21.4412 8.77771 18.4616C9.22901 17.7017 9.56748 17.4509 10.5265 17.4509C11.5983 17.4509 11.7976 17.5932 11.9932 17.9563C15.3817 23.9117 17.7209 31.5816 19.3606 35.8788C19.7292 36.8632 20.801 36.328 20.801 37.6194C20.801 38.237 20.4061 38.4616 19.842 38.4616H14.5355C13.9714 38.4616 13.7156 38.237 13.7156 37.6755C13.7156 36.4964 15.0131 36.7771 15.0131 36.1034C15.0131 35.5419 14.4753 34.2505 13.6291 31.5516H5.33282ZM12.8695 29.5303L9.39824 21.1043L6.00976 29.5303H12.8695Z" fill="#005776"/>
<path d="M29.8307 17.4471C34.0089 17.4471 36.5475 18.9931 36.7167 19.5246C36.8859 20.0861 36.8859 21.4898 36.8859 21.9951C36.8859 22.4181 36.6866 22.9496 36.0962 22.9496C34.291 22.9496 35.7577 19.3524 29.8871 19.3524C27.6306 19.3524 26.3294 20.8684 26.3294 22.5004C26.3294 27.8944 38.4655 23.7357 38.4655 31.8547C38.4655 35.8712 34.9642 38.907 29.8006 38.907C25.2011 38.907 21.4742 36.3803 21.4742 33.8798C21.4742 33.2322 21.9255 32.5884 22.6325 32.5884C24.9191 32.5884 23.9037 36.9979 29.6614 36.9979C32.6513 36.9979 34.5731 35.4258 34.5731 33.2322C34.5731 28.0367 22.2677 31.5478 22.2677 23.848C22.2677 19.8016 25.9383 17.4434 29.8307 17.4434V17.4471Z" fill="#005776"/>
<path d="M58.5068 27.8421C59.5523 27.8421 60.2555 27.9543 60.2555 28.7142C60.2555 28.8827 59.9434 31.9446 59.9434 32.2254C59.9434 33.7414 60.312 35.0066 60.312 35.5119C60.312 36.4664 56.2465 38.9107 51.3086 38.9107C45.2687 38.9107 40.1052 34.9766 40.1052 28.4035C40.1052 21.8304 45.6373 17.4471 51.6471 17.4471C54.2157 17.4471 59.2664 18.4578 59.2664 20.5952V22.9272C59.2664 23.5448 59.0107 23.8555 58.4203 23.8555C57.9126 23.8555 57.6869 23.4063 57.5177 23.0133C56.4458 20.5428 54.7234 19.3599 51.8464 19.3599C47.0476 19.3599 44.6219 24.1924 44.6219 28.4073C44.6219 32.6221 46.9912 37.0017 51.6207 37.0017C54.5542 37.0017 56.051 35.598 56.051 32.843V31.1585C56.051 30.0618 55.4568 29.7548 53.9637 29.7548C52.1849 29.7548 51.6772 29.4741 51.6772 28.7442C51.6772 28.1827 52.0156 27.8458 53.174 27.8458H58.5068V27.8421Z" fill="#005776"/>
<path d="M61.4967 14.198V6.36721L68.582 4.47688V3.82182L51.2109 1.05933L33.9375 3.82182V4.47688L41.0229 6.39715V14.198C41.0229 14.198 44.3098 11.9558 50.9589 11.9558C57.608 11.9558 61.4967 14.198 61.4967 14.198Z" fill="#005776"/>
<path d="M41.0266 6.39713L50.7069 9.0623L61.4967 6.36719V12.521L41.0266 7.434V6.39713Z" fill="#005776"/>
<path d="M66.8144 9.58266C67.0438 9.46662 67.198 9.25326 67.198 9.0062C67.198 8.68803 66.9385 8.41852 66.5925 8.35488V4.25232H66.2879V8.35114C65.9344 8.41103 65.6674 8.68054 65.6674 9.00246C65.6674 9.257 65.8329 9.47785 66.0736 9.59015L64.3849 14.4863L66.4421 15.1002L68.4993 14.4863L66.8182 9.57892L66.8144 9.58266Z" fill="#005776"/>
<path d="M66.8144 9.58264C66.7054 9.63879 66.5775 9.66874 66.4384 9.67248V15.1076L68.4955 14.4937L66.8144 9.58638V9.58264Z" fill="#005776"/>
<path d="M137.683 22.5753V4.04639H149.089V8.10778H142.632V11.3232H148.721V15.2985H142.632V22.5753H137.683Z" fill="#005776"/>
<path d="M151.778 4.04639H156.84V13.0563C156.84 14.3814 156.874 15.3322 156.942 15.9086C157.01 16.4851 157.123 16.968 157.284 17.3573C157.48 17.8289 157.818 18.192 158.303 18.439C158.785 18.6861 159.375 18.8134 160.071 18.8134C160.767 18.8134 161.353 18.6898 161.831 18.439C162.309 18.192 162.651 17.8289 162.854 17.3573C163.016 16.968 163.129 16.4851 163.196 15.9086C163.264 15.3322 163.298 14.3777 163.298 13.0563V4.04639H168.345V13.8424C168.345 15.8749 168.221 17.376 167.976 18.3417C167.732 19.3075 167.314 20.131 166.731 20.816C166.096 21.5684 165.223 22.1299 164.11 22.5042C163.001 22.8785 161.651 23.0657 160.067 23.0657C158.484 23.0657 157.123 22.8785 156.017 22.5042C154.911 22.1299 154.035 21.5646 153.392 20.816C152.816 20.131 152.403 19.3075 152.151 18.3417C151.899 17.376 151.775 15.8749 151.775 13.8424V4.04639H151.778Z" fill="#005776"/>
<path d="M174.881 22.5753V8.42595H170.71V4.04639H184.125V8.42595H179.954V22.5753H174.881Z" fill="#005776"/>
<path d="M186.491 4.04639H191.553V13.0563C191.553 14.3814 191.587 15.3322 191.654 15.9086C191.722 16.4851 191.835 16.968 191.996 17.3573C192.192 17.8289 192.53 18.192 193.012 18.439C193.493 18.6861 194.084 18.8134 194.779 18.8134C195.475 18.8134 196.062 18.6898 196.539 18.439C197.017 18.192 197.359 17.8289 197.562 17.3573C197.724 16.968 197.837 16.4851 197.905 15.9086C197.972 15.3322 198.006 14.3777 198.006 13.0563V4.04639H203.053V13.8424C203.053 15.8749 202.929 17.376 202.685 18.3417C202.44 19.3075 202.023 20.131 201.44 20.816C200.804 21.5684 199.932 22.1299 198.822 22.5042C197.713 22.8785 196.363 23.0657 194.779 23.0657C193.196 23.0657 191.835 22.8785 190.729 22.5042C189.623 22.1299 188.747 21.5646 188.104 20.816C187.529 20.131 187.115 19.3075 186.863 18.3417C186.615 17.376 186.487 15.8749 186.487 13.8424V4.04639H186.491Z" fill="#005776"/>
<path d="M211.665 12.8055H212.606C213.7 12.8055 214.497 12.6184 215.001 12.2478C215.505 11.8772 215.757 11.2933 215.757 10.4997C215.757 9.57137 215.52 8.91257 215.05 8.51953C214.58 8.12649 213.79 7.93184 212.677 7.93184H211.658V12.8055H211.665ZM206.912 22.5753V4.04639H212.215C214.291 4.04639 215.738 4.13997 216.558 4.33087C217.374 4.52177 218.081 4.83995 218.676 5.28539C219.345 5.79072 219.86 6.4383 220.221 7.22063C220.582 8.00671 220.763 8.87139 220.763 9.81468C220.763 11.2483 220.409 12.4162 219.702 13.3146C218.995 14.213 217.961 14.8119 216.607 15.1038L221.68 22.5716H215.945L211.673 15.321V22.5716H206.919L206.912 22.5753Z" fill="#005776"/>
<path d="M228.856 4.04639H223.734V22.5753H228.856V4.04639Z" fill="#005776"/>
<path d="M235.358 22.5753V8.42595H231.188V4.04639H241.808L244.636 8.42595H240.432V22.5753H235.358Z" fill="#005776"/>
<path d="M250.594 22.5753V14.1232L244.084 4.05017H249.905L252.41 8.82277C252.425 8.84897 252.451 8.89389 252.485 8.96127C252.748 9.45912 252.929 9.93451 253.03 10.3912C253.113 9.97942 253.298 9.51901 253.576 9.01367C253.625 8.92009 253.662 8.85646 253.677 8.82277L256.156 4.05017H261.992L255.483 14.1232V22.5753H250.586H250.594Z" fill="#005776"/>
<path d="M139.879 27.7672V36.1745H137.683V27.7672H139.879Z" fill="#9FD3A8"/>
<path d="M141.651 36.1745V27.7672H143.847L147.901 32.9066V27.7672H150.086V36.1745H147.901L143.847 31.035V36.1745H141.651V36.1745Z" fill="#9FD3A8"/>
<path d="M153.358 27.7672L155.396 32.8842L157.446 27.7672H159.83L156.269 36.1745H154.52L150.97 27.7672H153.354H153.358Z" fill="#9FD3A8"/>
<path d="M165.524 29.6163H162.914V31.02H165.377V32.8691H162.914V34.3178H165.524V36.1669H160.718V27.7596H165.524V29.6088V29.6163Z" fill="#9FD3A8"/>
<path d="M171.741 29.9195C171.5 29.7248 171.263 29.5826 171.022 29.489C170.782 29.3954 170.552 29.3505 170.327 29.3505C170.045 29.3505 169.811 29.4179 169.631 29.5526C169.45 29.6874 169.364 29.8596 169.364 30.0767C169.364 30.2264 169.409 30.3499 169.499 30.4435C169.59 30.5408 169.706 30.6232 169.853 30.6943C170 30.7654 170.161 30.8253 170.346 30.8777C170.53 30.9301 170.71 30.9863 170.887 31.0462C171.605 31.2857 172.128 31.6002 172.463 32.0007C172.794 32.3975 172.963 32.9178 172.963 33.5579C172.963 33.9883 172.892 34.3776 172.745 34.7295C172.598 35.0776 172.388 35.3771 172.106 35.6279C171.827 35.8787 171.481 36.0696 171.075 36.2081C170.669 36.3466 170.206 36.4139 169.691 36.4139C168.623 36.4139 167.634 36.0995 166.724 35.4669L167.664 33.7039C167.991 33.9921 168.318 34.2092 168.638 34.3514C168.958 34.4937 169.277 34.5648 169.59 34.5648C169.947 34.5648 170.214 34.4824 170.391 34.3177C170.567 34.153 170.654 33.9696 170.654 33.76C170.654 33.6327 170.631 33.5242 170.586 33.4306C170.541 33.337 170.466 33.2509 170.361 33.1723C170.255 33.0937 170.12 33.0226 169.951 32.9552C169.781 32.8878 169.578 32.813 169.341 32.7306C169.059 32.6408 168.781 32.5435 168.506 32.4349C168.232 32.3264 167.991 32.1841 167.777 32.0044C167.563 31.8248 167.393 31.6002 167.262 31.3307C167.13 31.0611 167.066 30.7168 167.066 30.2975C167.066 29.8783 167.134 29.504 167.273 29.1671C167.412 28.8302 167.604 28.5382 167.856 28.2987C168.108 28.0553 168.412 27.8682 168.774 27.7372C169.135 27.6024 169.541 27.535 169.988 27.535C170.406 27.535 170.842 27.5912 171.301 27.7072C171.756 27.8233 172.192 27.9917 172.61 28.2163L171.737 29.9232L171.741 29.9195Z" fill="#9FD3A8"/>
<path d="M177.6 29.6164V36.1745H175.404V29.6164H173.599V27.7672H179.402V29.6164H177.596H177.6Z" fill="#9FD3A8"/>
<path d="M179.996 36.1745L181.429 27.7672H183.602L185.295 32.2478L186.976 27.7672H189.15L190.582 36.1745H188.397L187.668 31.3345L185.675 36.1745H184.802L182.91 31.3345L182.181 36.1745H179.996V36.1745Z" fill="#9FD3A8"/>
<path d="M196.776 29.6163H194.166V31.02H196.63V32.8691H194.166V34.3178H196.776V36.1669H191.97V27.7596H196.776V29.6088V29.6163Z" fill="#9FD3A8"/>
<path d="M198.356 36.1745V27.7672H200.552L204.606 32.9066V27.7672H206.791V36.1745H204.606L200.552 31.035V36.1745H198.356V36.1745Z" fill="#9FD3A8"/>
<path d="M211.767 29.6164V36.1745H209.571V29.6164H207.766V27.7672H213.568V29.6164H211.763H211.767Z" fill="#9FD3A8"/>
<path d="M222.463 31.4692H226.821C226.821 31.9146 226.803 32.3189 226.765 32.6857C226.727 33.0488 226.652 33.3895 226.539 33.7002C226.381 34.1381 226.171 34.5274 225.9 34.8643C225.633 35.2012 225.317 35.4857 224.952 35.7103C224.591 35.9386 224.193 36.1108 223.76 36.2306C223.328 36.3503 222.873 36.4102 222.395 36.4102C221.737 36.4102 221.139 36.3017 220.597 36.0883C220.056 35.8712 219.589 35.568 219.202 35.1787C218.815 34.7894 218.51 34.3215 218.296 33.775C218.078 33.2285 217.972 32.6258 217.972 31.9633C217.972 31.3007 218.078 30.7093 218.292 30.1628C218.506 29.6163 218.807 29.1484 219.198 28.7628C219.589 28.3773 220.063 28.0741 220.616 27.8607C221.169 27.6436 221.786 27.5388 222.463 27.5388C223.343 27.5388 224.117 27.7297 224.783 28.1078C225.449 28.4859 225.975 29.0735 226.363 29.8708L224.279 30.728C224.084 30.2676 223.832 29.9382 223.523 29.7361C223.215 29.534 222.861 29.4366 222.466 29.4366C222.139 29.4366 221.838 29.4965 221.571 29.62C221.304 29.7436 221.071 29.9158 220.883 30.1441C220.691 30.3724 220.545 30.6457 220.436 30.9639C220.327 31.282 220.274 31.6414 220.274 32.0344C220.274 32.39 220.319 32.7232 220.413 33.0264C220.507 33.3296 220.646 33.5953 220.834 33.8162C221.022 34.0408 221.252 34.213 221.53 34.3365C221.805 34.46 222.128 34.5199 222.493 34.5199C222.711 34.5199 222.918 34.4975 223.121 34.4488C223.324 34.4001 223.504 34.3215 223.662 34.213C223.824 34.1044 223.956 33.9659 224.061 33.7937C224.166 33.6215 224.238 33.4157 224.275 33.1686H222.47V31.4729L222.463 31.4692Z" fill="#9FD3A8"/>
<path d="M235.234 36.1745H232.5L230.405 32.9403V36.1745H228.209V27.7672H231.628C232.098 27.7672 232.508 27.8346 232.861 27.9731C233.211 28.1116 233.501 28.2987 233.73 28.5346C233.959 28.7741 234.129 29.0474 234.245 29.3581C234.362 29.6688 234.418 30.0057 234.418 30.3613C234.418 31.0014 234.264 31.5179 233.952 31.9184C233.644 32.3152 233.185 32.5847 232.579 32.727L235.234 36.1707V36.1745ZM230.405 31.5254H230.819C231.252 31.5254 231.586 31.4356 231.816 31.2596C232.049 31.08 232.162 30.8254 232.162 30.4885C232.162 30.1516 232.045 29.8971 231.816 29.7174C231.586 29.5378 231.252 29.4517 230.819 29.4517H230.405V31.5254V31.5254Z" fill="#9FD3A8"/>
<path d="M235.614 31.9708C235.614 31.3457 235.731 30.7655 235.96 30.2265C236.193 29.6875 236.513 29.2158 236.923 28.8153C237.333 28.4148 237.826 28.1003 238.397 27.872C238.969 27.6437 239.597 27.5314 240.285 27.5314C240.973 27.5314 241.59 27.6437 242.166 27.872C242.741 28.1003 243.234 28.411 243.651 28.8153C244.068 29.2196 244.388 29.6875 244.621 30.2265C244.854 30.7655 244.967 31.3457 244.967 31.9708C244.967 32.5959 244.851 33.1761 244.621 33.7152C244.388 34.2542 244.068 34.7258 243.651 35.1264C243.237 35.5269 242.741 35.8413 242.166 36.0696C241.59 36.298 240.962 36.4103 240.285 36.4103C239.608 36.4103 238.969 36.298 238.397 36.0696C237.826 35.8413 237.333 35.5306 236.923 35.1264C236.513 34.7258 236.19 34.2542 235.96 33.7152C235.727 33.1761 235.614 32.5959 235.614 31.9708ZM237.912 31.9708C237.912 32.304 237.976 32.6147 238.104 32.8954C238.232 33.1799 238.401 33.4232 238.619 33.6328C238.837 33.8424 239.089 34.0034 239.375 34.1194C239.661 34.2355 239.965 34.2916 240.289 34.2916C240.612 34.2916 240.913 34.2355 241.203 34.1194C241.489 34.0034 241.744 33.8424 241.966 33.6328C242.188 33.4232 242.361 33.1799 242.489 32.8954C242.617 32.6147 242.681 32.304 242.681 31.9708C242.681 31.6377 242.617 31.327 242.489 31.0463C242.361 30.7655 242.188 30.5185 241.966 30.3088C241.744 30.0992 241.492 29.9383 241.203 29.8222C240.917 29.7062 240.612 29.65 240.289 29.65C239.965 29.65 239.665 29.7062 239.375 29.8222C239.089 29.9383 238.837 30.0992 238.619 30.3088C238.401 30.5185 238.232 30.7618 238.104 31.0463C237.976 31.327 237.912 31.6377 237.912 31.9708Z" fill="#9FD3A8"/>
<path d="M248.555 27.7672V32.3377C248.555 32.5847 248.563 32.8355 248.581 33.0901C248.6 33.3483 248.657 33.5804 248.751 33.7863C248.845 33.9959 248.991 34.1644 249.194 34.2954C249.398 34.4264 249.68 34.49 250.044 34.49C250.409 34.49 250.691 34.4264 250.891 34.2954C251.09 34.1644 251.237 33.9959 251.334 33.7863C251.432 33.5767 251.489 33.3446 251.507 33.0901C251.526 32.8318 251.534 32.581 251.534 32.3377V27.7672H253.719V32.6409C253.719 33.951 253.418 34.9055 252.816 35.5082C252.214 36.1108 251.289 36.4103 250.044 36.4103C248.8 36.4103 247.871 36.1108 247.265 35.5082C246.66 34.9055 246.359 33.951 246.359 32.6409V27.7672H248.555V27.7672Z" fill="#9FD3A8"/>
<path d="M257.765 36.1745H255.569V27.7672H259.063C260.011 27.7672 260.736 28.0143 261.24 28.5046C261.744 28.995 261.996 29.6875 261.996 30.5784C261.996 31.4693 261.744 32.1617 261.24 32.6521C260.736 33.1425 260.011 33.3895 259.063 33.3895H257.762V36.1782L257.765 36.1745ZM257.765 31.6265H258.495C259.3 31.6265 259.706 31.2783 259.706 30.5784C259.706 29.8784 259.304 29.5303 258.495 29.5303H257.765V31.6265Z" fill="#9FD3A8"/>
<path d="M94.5917 4.04639V36.1744C94.5917 36.1744 94.6443 36.1744 94.7308 36.1744C95.3626 36.1744 98.108 36.1145 101.26 35.1712C101.226 28.2313 101.158 13.3745 101.199 5.73832C97.6304 4.35707 94.5917 4.05013 94.5917 4.05013" fill="#BFD5DD"/>
<path d="M108.322 0V6.92495C110.507 9.84466 112.377 14.0109 112.467 19.7604C112.493 2.81116 108.322 0 108.322 0ZM112.456 21.1529C112.456 21.1941 112.452 21.2353 112.448 21.2764V21.3064C112.211 27.3666 110.41 31.3869 108.322 34.0333V40C108.322 40 112.17 39.5733 112.452 21.2764C112.452 21.2353 112.452 21.1941 112.452 21.1529" fill="#80ABBB"/>
<path d="M101.278 1.06311C101.237 1.44492 101.211 3.18926 101.196 5.73464C103.58 6.65547 106.205 8.05544 108.319 10.1554V6.92499C105.133 2.66895 101.275 1.06311 101.275 1.06311H101.278ZM108.319 31.181C106.22 33.2473 103.625 34.4563 101.256 35.1675C101.267 37.4771 101.275 38.9108 101.275 38.9108C101.275 38.9108 105.129 38.0685 108.319 34.0334V31.181V31.181Z" fill="#80ABBB"/>
<path d="M101.199 5.73462C101.158 13.3745 101.226 28.2276 101.26 35.1675C103.629 34.4563 106.224 33.2473 108.322 31.181V10.1554C106.209 8.05541 103.584 6.65545 101.199 5.73462" fill="#4D8A9F"/>
<path d="M108.322 6.92493V10.1553C110.639 12.4574 112.346 15.6017 112.467 19.8839C112.467 19.8428 112.467 19.8016 112.467 19.7604C112.377 14.0108 110.507 9.84463 108.322 6.92493V6.92493ZM112.448 21.3064C112.215 25.8394 110.549 28.9912 108.322 31.181V34.0333C110.413 31.3868 112.215 27.3666 112.448 21.3064" fill="#27718B"/>
<path d="M108.322 10.1554V31.181C110.549 28.9913 112.215 25.8395 112.448 21.3064V21.2765C112.452 21.2016 112.455 21.1268 112.455 21.0519C112.459 20.6551 112.463 20.2658 112.463 19.884C112.346 15.6018 110.635 12.4575 108.319 10.1554" fill="#005776"/>
<path d="M130.349 4.04639V36.1744C130.349 36.1744 130.3 36.1744 130.214 36.1744C129.582 36.1744 126.837 36.1145 123.685 35.1712C123.719 28.2313 123.787 13.3745 123.745 5.73832C127.314 4.35707 130.349 4.05013 130.349 4.05013" fill="#E7F4E9"/>
<path d="M116.622 0V6.92495C114.437 9.84466 112.568 14.0109 112.478 19.7604C112.452 2.81116 116.622 0 116.622 0ZM112.489 21.1529C112.489 21.1941 112.493 21.2353 112.497 21.2764V21.3064C112.734 27.3666 114.535 31.3869 116.622 34.0333V40C116.622 40 112.775 39.5733 112.493 21.2764C112.493 21.2353 112.493 21.1941 112.493 21.1529" fill="#CFE9D3"/>
<path d="M123.666 1.06311C123.708 1.44492 123.734 3.18926 123.749 5.73464C121.365 6.65547 118.74 8.05544 116.626 10.1554V6.92499C119.812 2.66895 123.67 1.06311 123.67 1.06311H123.666ZM116.626 31.181C118.725 33.2473 121.32 34.4563 123.689 35.1675C123.678 37.4771 123.67 38.9108 123.67 38.9108C123.67 38.9108 119.815 38.0685 116.626 34.0334V31.181V31.181Z" fill="#CFE9D3"/>
<path d="M123.745 5.73462C123.787 13.3745 123.719 28.2276 123.685 35.1675C121.316 34.4563 118.721 33.2473 116.622 31.181V10.1554C118.736 8.05541 121.361 6.65545 123.745 5.73462" fill="#BCE0C2"/>
<path d="M116.622 6.92493V10.1553C114.306 12.4574 112.598 15.6017 112.478 19.8839C112.478 19.8428 112.478 19.8016 112.478 19.7604C112.568 14.0108 114.437 9.84463 116.622 6.92493V6.92493ZM112.497 21.3064C112.73 25.8394 114.396 28.9912 116.622 31.181V34.0333C114.531 31.3868 112.73 27.3666 112.497 21.3064" fill="#ADDAB5"/>
<path d="M116.622 10.1554V31.181C114.396 28.9913 112.73 25.8395 112.497 21.3064V21.2765C112.493 21.2016 112.489 21.1268 112.489 21.0519C112.486 20.6551 112.482 20.2658 112.482 19.884C112.598 15.6018 114.31 12.4575 116.626 10.1554" fill="#9FD3A8"/>
<path d="M78.0441 0V40" stroke="#BFD5DD" stroke-width="3.77" stroke-miterlimit="10"/>
<path d="M5.33282 71.5516C4.90785 72.5922 4.09175 75.4296 4.09175 76.0472C4.09175 76.8333 5.53214 76.4964 5.53214 77.6755C5.53214 78.3231 5.16358 78.4616 4.59946 78.4616H0.763443C0.255734 78.4616 0 78.1247 0 77.6755C0 76.3841 1.29748 77.0579 1.72245 75.6542C3.9526 68.2651 6.99885 61.4412 8.77771 58.4616C9.22901 57.7017 9.56748 57.4509 10.5265 57.4509C11.5983 57.4509 11.7976 57.5932 11.9932 57.9563C15.3817 63.9117 17.7209 71.5816 19.3606 75.8788C19.7292 76.8632 20.801 76.328 20.801 77.6194C20.801 78.237 20.4061 78.4616 19.842 78.4616H14.5355C13.9714 78.4616 13.7156 78.237 13.7156 77.6755C13.7156 76.4964 15.0131 76.7771 15.0131 76.1034C15.0131 75.5419 14.4753 74.2505 13.6291 71.5516H5.33282ZM12.8695 69.5303L9.39824 61.1043L6.00976 69.5303H12.8695Z" fill="white"/>
<path d="M29.8307 57.4471C34.0089 57.4471 36.5475 58.9931 36.7167 59.5246C36.8859 60.0861 36.8859 61.4898 36.8859 61.9951C36.8859 62.4181 36.6866 62.9496 36.0962 62.9496C34.291 62.9496 35.7577 59.3524 29.8871 59.3524C27.6306 59.3524 26.3294 60.8684 26.3294 62.5004C26.3294 67.8944 38.4655 63.7357 38.4655 71.8547C38.4655 75.8712 34.9642 78.907 29.8006 78.907C25.2011 78.907 21.4742 76.3803 21.4742 73.8798C21.4742 73.2322 21.9255 72.5884 22.6325 72.5884C24.9191 72.5884 23.9037 76.9979 29.6614 76.9979C32.6513 76.9979 34.5731 75.4258 34.5731 73.2322C34.5731 68.0367 22.2677 71.5478 22.2677 63.848C22.2677 59.8016 25.9383 57.4434 29.8307 57.4434V57.4471Z" fill="white"/>
<path d="M58.5068 67.8421C59.5523 67.8421 60.2555 67.9543 60.2555 68.7142C60.2555 68.8827 59.9434 71.9446 59.9434 72.2254C59.9434 73.7414 60.312 75.0066 60.312 75.5119C60.312 76.4664 56.2465 78.9107 51.3086 78.9107C45.2687 78.9107 40.1052 74.9766 40.1052 68.4035C40.1052 61.8304 45.6373 57.4471 51.6471 57.4471C54.2157 57.4471 59.2664 58.4578 59.2664 60.5952V62.9272C59.2664 63.5448 59.0107 63.8555 58.4203 63.8555C57.9126 63.8555 57.6869 63.4063 57.5177 63.0133C56.4458 60.5428 54.7234 59.3599 51.8464 59.3599C47.0476 59.3599 44.6219 64.1924 44.6219 68.4073C44.6219 72.6221 46.9912 77.0017 51.6207 77.0017C54.5542 77.0017 56.051 75.598 56.051 72.843V71.1585C56.051 70.0618 55.4568 69.7548 53.9637 69.7548C52.1849 69.7548 51.6772 69.4741 51.6772 68.7442C51.6772 68.1827 52.0156 67.8458 53.174 67.8458H58.5068V67.8421Z" fill="white"/>
<path d="M61.4967 54.198V46.3672L68.582 44.4769V43.8218L51.2109 41.0593L33.9375 43.8218V44.4769L41.0229 46.3972V54.198C41.0229 54.198 44.3098 51.9558 50.9589 51.9558C57.608 51.9558 61.4967 54.198 61.4967 54.198Z" fill="white"/>
<path d="M41.0266 46.3971L50.7069 49.0623L61.4967 46.3672V52.521L41.0266 47.434V46.3971Z" fill="white"/>
<path d="M66.8144 49.5827C67.0438 49.4666 67.198 49.2533 67.198 49.0062C67.198 48.688 66.9385 48.4185 66.5925 48.3549V44.2523H66.2879V48.3511C65.9344 48.411 65.6674 48.6805 65.6674 49.0025C65.6674 49.257 65.8329 49.4778 66.0736 49.5901L64.3849 54.4863L66.4421 55.1002L68.4993 54.4863L66.8182 49.5789L66.8144 49.5827Z" fill="white"/>
<path d="M66.8144 49.5826C66.7054 49.6388 66.5775 49.6687 66.4384 49.6725V55.1076L68.4955 54.4937L66.8144 49.5864V49.5826Z" fill="white"/>
<path d="M137.683 62.5753V44.0464H149.089V48.1078H142.632V51.3232H148.721V55.2985H142.632V62.5753H137.683Z" fill="white"/>
<path d="M151.778 44.0464H156.84V53.0563C156.84 54.3814 156.874 55.3322 156.942 55.9086C157.01 56.4851 157.123 56.968 157.284 57.3573C157.48 57.8289 157.818 58.192 158.303 58.439C158.785 58.6861 159.375 58.8134 160.071 58.8134C160.767 58.8134 161.353 58.6898 161.831 58.439C162.309 58.192 162.651 57.8289 162.854 57.3573C163.016 56.968 163.129 56.4851 163.196 55.9086C163.264 55.3322 163.298 54.3777 163.298 53.0563V44.0464H168.345V53.8424C168.345 55.8749 168.221 57.376 167.976 58.3417C167.732 59.3075 167.314 60.131 166.731 60.816C166.096 61.5684 165.223 62.1299 164.11 62.5042C163.001 62.8785 161.651 63.0657 160.067 63.0657C158.484 63.0657 157.123 62.8785 156.017 62.5042C154.911 62.1299 154.035 61.5646 153.392 60.816C152.816 60.131 152.403 59.3075 152.151 58.3417C151.899 57.376 151.775 55.8749 151.775 53.8424V44.0464H151.778Z" fill="white"/>
<path d="M174.881 62.5753V48.4259H170.71V44.0464H184.125V48.4259H179.954V62.5753H174.881Z" fill="white"/>
<path d="M186.491 44.0464H191.553V53.0563C191.553 54.3814 191.587 55.3322 191.654 55.9086C191.722 56.4851 191.835 56.968 191.996 57.3573C192.192 57.8289 192.53 58.192 193.012 58.439C193.493 58.6861 194.084 58.8134 194.779 58.8134C195.475 58.8134 196.062 58.6898 196.539 58.439C197.017 58.192 197.359 57.8289 197.562 57.3573C197.724 56.968 197.837 56.4851 197.905 55.9086C197.972 55.3322 198.006 54.3777 198.006 53.0563V44.0464H203.053V53.8424C203.053 55.8749 202.929 57.376 202.685 58.3417C202.44 59.3075 202.023 60.131 201.44 60.816C200.804 61.5684 199.932 62.1299 198.822 62.5042C197.713 62.8785 196.363 63.0657 194.779 63.0657C193.196 63.0657 191.835 62.8785 190.729 62.5042C189.623 62.1299 188.747 61.5646 188.104 60.816C187.529 60.131 187.115 59.3075 186.863 58.3417C186.615 57.376 186.487 55.8749 186.487 53.8424V44.0464H186.491Z" fill="white"/>
<path d="M211.665 52.8055H212.606C213.7 52.8055 214.497 52.6184 215.001 52.2478C215.505 51.8772 215.757 51.2933 215.757 50.4997C215.757 49.5714 215.52 48.9126 215.05 48.5195C214.58 48.1265 213.79 47.9318 212.677 47.9318H211.658V52.8055H211.665ZM206.912 62.5753V44.0464H212.215C214.291 44.0464 215.738 44.14 216.558 44.3309C217.374 44.5218 218.081 44.8399 218.676 45.2854C219.345 45.7907 219.86 46.4383 220.221 47.2206C220.582 48.0067 220.763 48.8714 220.763 49.8147C220.763 51.2483 220.409 52.4162 219.702 53.3146C218.995 54.213 217.961 54.8119 216.607 55.1038L221.68 62.5716H215.945L211.673 55.321V62.5716H206.919L206.912 62.5753Z" fill="white"/>
<path d="M228.856 44.0464H223.734V62.5753H228.856V44.0464Z" fill="white"/>
<path d="M235.358 62.5753V48.4259H231.188V44.0464H241.808L244.636 48.4259H240.432V62.5753H235.358Z" fill="white"/>
<path d="M250.594 62.5753V54.1232L244.084 44.0502H249.905L252.41 48.8228C252.425 48.849 252.451 48.8939 252.485 48.9613C252.748 49.4591 252.929 49.9345 253.03 50.3912C253.113 49.9794 253.298 49.519 253.576 49.0137C253.625 48.9201 253.662 48.8565 253.677 48.8228L256.156 44.0502H261.992L255.483 54.1232V62.5753H250.586H250.594Z" fill="white"/>
<path d="M139.879 67.7672V76.1745H137.683V67.7672H139.879Z" fill="#9FD3A8"/>
<path d="M141.651 76.1745V67.7672H143.847L147.901 72.9066V67.7672H150.086V76.1745H147.901L143.847 71.035V76.1745H141.651V76.1745Z" fill="#9FD3A8"/>
<path d="M153.358 67.7672L155.396 72.8842L157.446 67.7672H159.83L156.269 76.1745H154.52L150.97 67.7672H153.354H153.358Z" fill="#9FD3A8"/>
<path d="M165.524 69.6163H162.914V71.02H165.377V72.8691H162.914V74.3178H165.524V76.1669H160.718V67.7596H165.524V69.6088V69.6163Z" fill="#9FD3A8"/>
<path d="M171.741 69.9195C171.5 69.7248 171.263 69.5826 171.022 69.489C170.782 69.3954 170.552 69.3505 170.327 69.3505C170.045 69.3505 169.811 69.4179 169.631 69.5526C169.45 69.6874 169.364 69.8596 169.364 70.0767C169.364 70.2264 169.409 70.3499 169.499 70.4435C169.59 70.5408 169.706 70.6232 169.853 70.6943C170 70.7654 170.161 70.8253 170.346 70.8777C170.53 70.9301 170.71 70.9863 170.887 71.0462C171.605 71.2857 172.128 71.6002 172.463 72.0007C172.794 72.3975 172.963 72.9178 172.963 73.5579C172.963 73.9883 172.892 74.3776 172.745 74.7295C172.598 75.0776 172.388 75.3771 172.106 75.6279C171.827 75.8787 171.481 76.0696 171.075 76.2081C170.669 76.3466 170.206 76.4139 169.691 76.4139C168.623 76.4139 167.634 76.0995 166.724 75.4669L167.664 73.7039C167.991 73.9921 168.318 74.2092 168.638 74.3514C168.958 74.4937 169.277 74.5648 169.59 74.5648C169.947 74.5648 170.214 74.4824 170.391 74.3177C170.567 74.153 170.654 73.9696 170.654 73.76C170.654 73.6327 170.631 73.5242 170.586 73.4306C170.541 73.337 170.466 73.2509 170.361 73.1723C170.255 73.0937 170.12 73.0226 169.951 72.9552C169.781 72.8878 169.578 72.813 169.341 72.7306C169.059 72.6408 168.781 72.5435 168.506 72.4349C168.232 72.3264 167.991 72.1841 167.777 72.0044C167.563 71.8248 167.393 71.6002 167.262 71.3307C167.13 71.0611 167.066 70.7168 167.066 70.2975C167.066 69.8783 167.134 69.504 167.273 69.1671C167.412 68.8302 167.604 68.5382 167.856 68.2987C168.108 68.0553 168.412 67.8682 168.774 67.7372C169.135 67.6024 169.541 67.535 169.988 67.535C170.406 67.535 170.842 67.5912 171.301 67.7072C171.756 67.8233 172.192 67.9917 172.61 68.2163L171.737 69.9232L171.741 69.9195Z" fill="#9FD3A8"/>
<path d="M177.6 69.6164V76.1745H175.404V69.6164H173.599V67.7672H179.402V69.6164H177.596H177.6Z" fill="#9FD3A8"/>
<path d="M179.996 76.1745L181.429 67.7672H183.602L185.295 72.2478L186.976 67.7672H189.15L190.582 76.1745H188.397L187.668 71.3345L185.675 76.1745H184.802L182.91 71.3345L182.181 76.1745H179.996V76.1745Z" fill="#9FD3A8"/>
<path d="M196.776 69.6163H194.166V71.02H196.63V72.8691H194.166V74.3178H196.776V76.1669H191.97V67.7596H196.776V69.6088V69.6163Z" fill="#9FD3A8"/>
<path d="M198.356 76.1745V67.7672H200.552L204.606 72.9066V67.7672H206.791V76.1745H204.606L200.552 71.035V76.1745H198.356V76.1745Z" fill="#9FD3A8"/>
<path d="M211.767 69.6164V76.1745H209.571V69.6164H207.766V67.7672H213.568V69.6164H211.763H211.767Z" fill="#9FD3A8"/>
<path d="M222.463 71.4692H226.821C226.821 71.9146 226.803 72.3189 226.765 72.6857C226.727 73.0488 226.652 73.3895 226.539 73.7002C226.381 74.1381 226.171 74.5274 225.9 74.8643C225.633 75.2012 225.317 75.4857 224.952 75.7103C224.591 75.9386 224.193 76.1108 223.76 76.2306C223.328 76.3503 222.873 76.4102 222.395 76.4102C221.737 76.4102 221.139 76.3017 220.597 76.0883C220.056 75.8712 219.589 75.568 219.202 75.1787C218.815 74.7894 218.51 74.3215 218.296 73.775C218.078 73.2285 217.972 72.6258 217.972 71.9633C217.972 71.3007 218.078 70.7093 218.292 70.1628C218.506 69.6163 218.807 69.1484 219.198 68.7628C219.589 68.3773 220.063 68.0741 220.616 67.8607C221.169 67.6436 221.786 67.5388 222.463 67.5388C223.343 67.5388 224.117 67.7297 224.783 68.1078C225.449 68.4859 225.975 69.0735 226.363 69.8708L224.279 70.728C224.084 70.2676 223.832 69.9382 223.523 69.7361C223.215 69.534 222.861 69.4366 222.466 69.4366C222.139 69.4366 221.838 69.4965 221.571 69.62C221.304 69.7436 221.071 69.9158 220.883 70.1441C220.691 70.3724 220.545 70.6457 220.436 70.9639C220.327 71.282 220.274 71.6414 220.274 72.0344C220.274 72.39 220.319 72.7232 220.413 73.0264C220.507 73.3296 220.646 73.5953 220.834 73.8162C221.022 74.0408 221.252 74.213 221.53 74.3365C221.805 74.46 222.128 74.5199 222.493 74.5199C222.711 74.5199 222.918 74.4975 223.121 74.4488C223.324 74.4001 223.504 74.3215 223.662 74.213C223.824 74.1044 223.956 73.9659 224.061 73.7937C224.166 73.6215 224.238 73.4157 224.275 73.1686H222.47V71.4729L222.463 71.4692Z" fill="#9FD3A8"/>
<path d="M235.234 76.1745H232.5L230.405 72.9403V76.1745H228.209V67.7672H231.628C232.098 67.7672 232.508 67.8346 232.861 67.9731C233.211 68.1116 233.501 68.2987 233.73 68.5346C233.959 68.7741 234.129 69.0474 234.245 69.3581C234.362 69.6688 234.418 70.0057 234.418 70.3613C234.418 71.0014 234.264 71.5179 233.952 71.9184C233.644 72.3152 233.185 72.5847 232.579 72.727L235.234 76.1707V76.1745ZM230.405 71.5254H230.819C231.252 71.5254 231.586 71.4356 231.816 71.2596C232.049 71.08 232.162 70.8254 232.162 70.4885C232.162 70.1516 232.045 69.8971 231.816 69.7174C231.586 69.5378 231.252 69.4517 230.819 69.4517H230.405V71.5254V71.5254Z" fill="#9FD3A8"/>
<path d="M235.614 71.9708C235.614 71.3457 235.731 70.7655 235.96 70.2265C236.193 69.6875 236.513 69.2158 236.923 68.8153C237.333 68.4148 237.826 68.1003 238.397 67.872C238.969 67.6437 239.597 67.5314 240.285 67.5314C240.973 67.5314 241.59 67.6437 242.166 67.872C242.741 68.1003 243.234 68.411 243.651 68.8153C244.068 69.2196 244.388 69.6875 244.621 70.2265C244.854 70.7655 244.967 71.3457 244.967 71.9708C244.967 72.5959 244.851 73.1761 244.621 73.7152C244.388 74.2542 244.068 74.7258 243.651 75.1264C243.237 75.5269 242.741 75.8413 242.166 76.0696C241.59 76.298 240.962 76.4103 240.285 76.4103C239.608 76.4103 238.969 76.298 238.397 76.0696C237.826 75.8413 237.333 75.5306 236.923 75.1264C236.513 74.7258 236.19 74.2542 235.96 73.7152C235.727 73.1761 235.614 72.5959 235.614 71.9708ZM237.912 71.9708C237.912 72.304 237.976 72.6147 238.104 72.8954C238.232 73.1799 238.401 73.4232 238.619 73.6328C238.837 73.8424 239.089 74.0034 239.375 74.1194C239.661 74.2355 239.965 74.2916 240.289 74.2916C240.612 74.2916 240.913 74.2355 241.203 74.1194C241.489 74.0034 241.744 73.8424 241.966 73.6328C242.188 73.4232 242.361 73.1799 242.489 72.8954C242.617 72.6147 242.681 72.304 242.681 71.9708C242.681 71.6377 242.617 71.327 242.489 71.0463C242.361 70.7655 242.188 70.5185 241.966 70.3088C241.744 70.0992 241.492 69.9383 241.203 69.8222C240.917 69.7062 240.612 69.65 240.289 69.65C239.965 69.65 239.665 69.7062 239.375 69.8222C239.089 69.9383 238.837 70.0992 238.619 70.3088C238.401 70.5185 238.232 70.7618 238.104 71.0463C237.976 71.327 237.912 71.6377 237.912 71.9708Z" fill="#9FD3A8"/>
<path d="M248.555 67.7672V72.3377C248.555 72.5847 248.563 72.8355 248.581 73.0901C248.6 73.3483 248.657 73.5804 248.751 73.7863C248.845 73.9959 248.991 74.1644 249.194 74.2954C249.398 74.4264 249.68 74.49 250.044 74.49C250.409 74.49 250.691 74.4264 250.891 74.2954C251.09 74.1644 251.237 73.9959 251.334 73.7863C251.432 73.5767 251.489 73.3446 251.507 73.0901C251.526 72.8318 251.534 72.581 251.534 72.3377V67.7672H253.719V72.6409C253.719 73.951 253.418 74.9055 252.816 75.5082C252.214 76.1108 251.289 76.4103 250.044 76.4103C248.8 76.4103 247.871 76.1108 247.265 75.5082C246.66 74.9055 246.359 73.951 246.359 72.6409V67.7672H248.555V67.7672Z" fill="#9FD3A8"/>
<path d="M257.765 76.1745H255.569V67.7672H259.063C260.011 67.7672 260.736 68.0143 261.24 68.5046C261.744 68.995 261.996 69.6875 261.996 70.5784C261.996 71.4693 261.744 72.1617 261.24 72.6521C260.736 73.1425 260.011 73.3895 259.063 73.3895H257.762V76.1782L257.765 76.1745ZM257.765 71.6265H258.495C259.3 71.6265 259.706 71.2783 259.706 70.5784C259.706 69.8784 259.304 69.5303 258.495 69.5303H257.765V71.6265Z" fill="#9FD3A8"/>
<path d="M94.5917 44.0464V76.1744C94.5917 76.1744 94.6443 76.1744 94.7308 76.1744C95.3626 76.1744 98.108 76.1145 101.26 75.1712C101.226 68.2313 101.158 53.3745 101.199 45.7383C97.6304 44.3571 94.5917 44.0501 94.5917 44.0501" fill="#BFD5DD"/>
<path d="M108.322 40V46.9249C110.507 49.8447 112.377 54.0109 112.467 59.7604C112.493 42.8112 108.322 40 108.322 40ZM112.456 61.1529C112.456 61.1941 112.452 61.2353 112.448 61.2764V61.3064C112.211 67.3666 110.41 71.3869 108.322 74.0333V80C108.322 80 112.17 79.5733 112.452 61.2764C112.452 61.2353 112.452 61.1941 112.452 61.1529" fill="#80ABBB"/>
<path d="M101.278 41.0631C101.237 41.4449 101.211 43.1893 101.196 45.7346C103.58 46.6555 106.205 48.0554 108.319 50.1554V46.925C105.133 42.6689 101.275 41.0631 101.275 41.0631H101.278ZM108.319 71.181C106.22 73.2473 103.625 74.4563 101.256 75.1675C101.267 77.4771 101.275 78.9108 101.275 78.9108C101.275 78.9108 105.129 78.0685 108.319 74.0334V71.181V71.181Z" fill="#80ABBB"/>
<path d="M101.199 45.7346C101.158 53.3745 101.226 68.2276 101.26 75.1675C103.629 74.4563 106.224 73.2473 108.322 71.181V50.1554C106.209 48.0554 103.584 46.6555 101.199 45.7346" fill="#4D8A9F"/>
<path d="M108.322 46.9249V50.1553C110.639 52.4574 112.346 55.6017 112.467 59.8839C112.467 59.8428 112.467 59.8016 112.467 59.7604C112.377 54.0108 110.507 49.8446 108.322 46.9249V46.9249ZM112.448 61.3064C112.215 65.8394 110.549 68.9912 108.322 71.181V74.0333C110.413 71.3868 112.215 67.3666 112.448 61.3064" fill="#27718B"/>
<path d="M108.322 50.1554V71.181C110.549 68.9913 112.215 65.8395 112.448 61.3064V61.2765C112.452 61.2016 112.455 61.1268 112.455 61.0519C112.459 60.6551 112.463 60.2658 112.463 59.884C112.346 55.6018 110.635 52.4575 108.319 50.1554" fill="#005776"/>
<path d="M130.349 44.0464V76.1744C130.349 76.1744 130.3 76.1744 130.214 76.1744C129.582 76.1744 126.837 76.1145 123.685 75.1712C123.719 68.2313 123.787 53.3745 123.745 45.7383C127.314 44.3571 130.349 44.0501 130.349 44.0501" fill="#E7F4E9"/>
<path d="M116.622 40V46.9249C114.437 49.8447 112.568 54.0109 112.478 59.7604C112.452 42.8112 116.622 40 116.622 40ZM112.489 61.1529C112.489 61.1941 112.493 61.2353 112.497 61.2764V61.3064C112.734 67.3666 114.535 71.3869 116.622 74.0333V80C116.622 80 112.775 79.5733 112.493 61.2764C112.493 61.2353 112.493 61.1941 112.493 61.1529" fill="#CFE9D3"/>
<path d="M123.666 41.0631C123.708 41.4449 123.734 43.1893 123.749 45.7346C121.365 46.6555 118.74 48.0554 116.626 50.1554V46.925C119.812 42.6689 123.67 41.0631 123.67 41.0631H123.666ZM116.626 71.181C118.725 73.2473 121.32 74.4563 123.689 75.1675C123.678 77.4771 123.67 78.9108 123.67 78.9108C123.67 78.9108 119.815 78.0685 116.626 74.0334V71.181V71.181Z" fill="#CFE9D3"/>
<path d="M123.745 45.7346C123.787 53.3745 123.719 68.2276 123.685 75.1675C121.316 74.4563 118.721 73.2473 116.622 71.181V50.1554C118.736 48.0554 121.361 46.6555 123.745 45.7346" fill="#BCE0C2"/>
<path d="M116.622 46.9249V50.1553C114.306 52.4574 112.598 55.6017 112.478 59.8839C112.478 59.8428 112.478 59.8016 112.478 59.7604C112.568 54.0108 114.437 49.8446 116.622 46.9249V46.9249ZM112.497 61.3064C112.73 65.8394 114.396 68.9912 116.622 71.181V74.0333C114.531 71.3868 112.73 67.3666 112.497 61.3064" fill="#ADDAB5"/>
<path d="M116.622 50.1554V71.181C114.396 68.9913 112.73 65.8395 112.497 61.3064V61.2765C112.493 61.2016 112.489 61.1268 112.489 61.0519C112.486 60.6551 112.482 60.2658 112.482 59.884C112.598 55.6018 114.31 52.4575 116.626 50.1554" fill="#9FD3A8"/>
<path d="M78.0441 40V80" stroke="#BFD5DD" stroke-width="3.77" stroke-miterlimit="10"/>
</svg>
