<?xml version="1.0" encoding="UTF-8" standalone="no"?>
<!DOCTYPE svg PUBLIC "-//W3C//DTD SVG 1.1//EN" "http://www.w3.org/Graphics/SVG/1.1/DTD/svg11.dtd">
<svg width="100%" height="100%" viewBox="0 0 32 61" version="1.1" xmlns="http://www.w3.org/2000/svg" xmlns:xlink="http://www.w3.org/1999/xlink" xml:space="preserve" xmlns:serif="http://www.serif.com/" style="fill-rule:evenodd;clip-rule:evenodd;stroke-linejoin:round;stroke-miterlimit:1.41421;">
    <g transform="matrix(1,0,0,1,-0.00065,-0.0203)">
        <path d="M6.218,4.7L6.218,1.125C6.218,0.504 5.702,0 5.066,0C4.43,0 3.914,0.504 3.914,1.125L3.914,4.801L6.218,4.7ZM3.914,12.444L3.914,29.015C3.914,29.636 4.43,30.14 5.066,30.14C5.702,30.14 6.218,29.636 6.218,29.015L6.218,12.413" style="fill:rgb(0,87,118);"/>
        <path d="M10.345,8.533C10.345,5.746 8.029,3.486 5.173,3.486C2.316,3.486 0,5.746 0,8.533C0,11.32 2.316,13.58 5.173,13.58C8.029,13.58 10.345,11.32 10.345,8.533ZM2.304,8.533C2.304,6.988 3.588,5.736 5.173,5.736C6.757,5.736 8.042,6.988 8.042,8.533C8.042,10.078 6.757,11.331 5.173,11.331C3.588,11.331 2.304,10.078 2.304,8.533Z" style="fill:rgb(0,87,118);"/>
        <path d="M27.874,4.7L27.874,1.125C27.874,0.504 27.358,0 26.722,0C26.086,0 25.57,0.504 25.57,1.125L25.57,4.801L27.874,4.7ZM25.57,12.444L25.57,29.015C25.57,29.636 26.086,30.14 26.722,30.14C27.358,30.14 27.874,29.636 27.874,29.015L27.874,12.413" style="fill:rgb(0,87,118);"/>
        <path d="M32.001,8.533C32.001,5.746 29.685,3.486 26.829,3.486C23.972,3.486 21.656,5.746 21.656,8.533C21.656,11.32 23.972,13.58 26.829,13.58C29.685,13.58 32.001,11.32 32.001,8.533ZM23.96,8.533C23.96,6.988 25.244,5.736 26.829,5.736C28.414,5.736 29.698,6.988 29.698,8.533C29.698,10.078 28.414,11.331 26.829,11.331C25.244,11.331 23.96,10.078 23.96,8.533Z" style="fill:rgb(0,87,118);"/>
        <path d="M14.974,25.441L14.974,29.016C14.974,29.637 15.489,30.141 16.126,30.141C16.762,30.141 17.277,29.637 17.277,29.016L17.277,25.34L14.974,25.441ZM17.277,17.697L17.277,1.126C17.277,0.505 16.762,0.001 16.126,0.001C15.489,0.001 14.974,0.505 14.974,1.126L14.974,17.727" style="fill:rgb(0,87,118);"/>
        <path d="M10.846,21.606C10.846,24.393 13.162,26.652 16.019,26.652C18.875,26.652 21.191,24.393 21.191,21.606C21.191,18.818 18.875,16.559 16.019,16.559C13.162,16.559 10.846,18.818 10.846,21.606ZM18.888,21.606C18.888,23.15 17.604,24.403 16.019,24.403C14.434,24.403 13.15,23.15 13.15,21.606C13.15,20.061 14.434,18.808 16.019,18.808C17.604,18.808 18.888,20.061 18.888,21.606Z" style="fill:rgb(0,87,118);"/>
    </g>
    <g transform="matrix(1,0,0,1,-0.00065,30.0594)">
        <path d="M6.218,4.7L6.218,1.125C6.218,0.504 5.702,0 5.066,0C4.43,0 3.914,0.504 3.914,1.125L3.914,4.801L6.218,4.7ZM3.914,12.444L3.914,29.015C3.914,29.636 4.43,30.14 5.066,30.14C5.702,30.14 6.218,29.636 6.218,29.015L6.218,12.413" style="fill:rgb(159,211,168);"/>
        <path d="M10.345,8.533C10.345,5.746 8.029,3.486 5.173,3.486C2.316,3.486 0,5.746 0,8.533C0,11.32 2.316,13.58 5.173,13.58C8.029,13.58 10.345,11.32 10.345,8.533ZM2.304,8.533C2.304,6.988 3.588,5.736 5.173,5.736C6.757,5.736 8.042,6.988 8.042,8.533C8.042,10.078 6.757,11.331 5.173,11.331C3.588,11.331 2.304,10.078 2.304,8.533Z" style="fill:rgb(159,211,168);"/>
        <path d="M27.874,4.7L27.874,1.125C27.874,0.504 27.358,0 26.722,0C26.086,0 25.57,0.504 25.57,1.125L25.57,4.801L27.874,4.7ZM25.57,12.444L25.57,29.015C25.57,29.636 26.086,30.14 26.722,30.14C27.358,30.14 27.874,29.636 27.874,29.015L27.874,12.413" style="fill:rgb(159,211,168);"/>
        <path d="M32.001,8.533C32.001,5.746 29.685,3.486 26.829,3.486C23.972,3.486 21.656,5.746 21.656,8.533C21.656,11.32 23.972,13.58 26.829,13.58C29.685,13.58 32.001,11.32 32.001,8.533ZM23.96,8.533C23.96,6.988 25.244,5.736 26.829,5.736C28.414,5.736 29.698,6.988 29.698,8.533C29.698,10.078 28.414,11.331 26.829,11.331C25.244,11.331 23.96,10.078 23.96,8.533Z" style="fill:rgb(159,211,168);"/>
        <path d="M14.974,25.441L14.974,29.016C14.974,29.637 15.489,30.141 16.126,30.141C16.762,30.141 17.277,29.637 17.277,29.016L17.277,25.34L14.974,25.441ZM17.277,17.697L17.277,1.126C17.277,0.505 16.762,0.001 16.126,0.001C15.489,0.001 14.974,0.505 14.974,1.126L14.974,17.727" style="fill:rgb(159,211,168);"/>
        <path d="M10.846,21.606C10.846,24.393 13.162,26.652 16.019,26.652C18.875,26.652 21.191,24.393 21.191,21.606C21.191,18.818 18.875,16.559 16.019,16.559C13.162,16.559 10.846,18.818 10.846,21.606ZM18.888,21.606C18.888,23.15 17.604,24.403 16.019,24.403C14.434,24.403 13.15,23.15 13.15,21.606C13.15,20.061 14.434,18.808 16.019,18.808C17.604,18.808 18.888,20.061 18.888,21.606Z" style="fill:rgb(159,211,168);"/>
    </g>
</svg>
