<?xml version="1.0" encoding="UTF-8" standalone="no"?>
<!DOCTYPE svg PUBLIC "-//W3C//DTD SVG 1.1//EN" "http://www.w3.org/Graphics/SVG/1.1/DTD/svg11.dtd">
<svg width="100%" height="100%" viewBox="0 0 30 60" version="1.1" xmlns="http://www.w3.org/2000/svg" xmlns:xlink="http://www.w3.org/1999/xlink" xml:space="preserve" xmlns:serif="http://www.serif.com/" style="fill-rule:evenodd;clip-rule:evenodd;">
    <g transform="matrix(1,0,0,1,-0.374865,0.25)">
        <path d="M21.701,22.5C21.701,19.083 18.869,16.313 15.375,16.313C11.881,16.313 9.049,19.083 9.049,22.5" style="fill:none;stroke:rgb(128,171,186);stroke-width:2px;"/>
        <g transform="matrix(-3.82857e-16,1,-1,-3.82857e-16,25.8437,-11.8437)">
            <path d="M25.781,10.469C25.781,8.554 24.227,7 22.312,7C20.398,7 18.844,8.554 18.844,10.469C18.844,12.383 20.398,13.938 22.312,13.938C24.227,13.938 25.781,12.383 25.781,10.469Z" style="fill:none;stroke:rgb(128,171,186);stroke-width:2px;"/>
        </g>
    </g>
    <g transform="matrix(1,0,0,1,-0.374865,30.25)">
        <path d="M21.701,22.5C21.701,19.083 18.869,16.313 15.375,16.313C11.881,16.313 9.049,19.083 9.049,22.5" style="fill:none;stroke:rgb(0,87,118);stroke-width:2px;"/>
        <g transform="matrix(-3.82857e-16,1,-1,-3.82857e-16,25.8437,-11.8437)">
            <path d="M25.781,10.469C25.781,8.554 24.227,7 22.312,7C20.398,7 18.844,8.554 18.844,10.469C18.844,12.383 20.398,13.938 22.312,13.938C24.227,13.938 25.781,12.383 25.781,10.469Z" style="fill:none;stroke:rgb(0,87,118);stroke-width:2px;"/>
        </g>
    </g>
</svg>
