<svg width="293" height="86" viewBox="0 0 293 86" fill="none" xmlns="http://www.w3.org/2000/svg">
<g clip-path="url(#clip0_301_268)">
<path d="M198.59 4.62999H191.51V17.97H194.11V12.09H198.31V9.84999H194.11V6.86999H198.59V4.62999V4.62999ZM201.23 4.62999V17.97H203.83V4.62999H201.23ZM209.87 17.97V9.04999L217.99 17.97H219.79V4.62999H217.19V13.53L209.07 4.62999H207.27V17.97H209.87ZM232.32 17.97H235.12L229.54 4.62999H227.5L221.76 17.97H224.58L225.76 15.17H231.14L232.32 17.97ZM226.58 13.05L228.48 8.24999L230.38 13.05H226.58V13.05ZM239.68 17.97V9.04999L247.8 17.97H249.6V4.62999H247V13.53L238.88 4.62999H237.08V17.97H239.68ZM262.73 14.45C261.95 15.37 260.85 15.91 259.61 15.91C257.37 15.91 255.09 14.31 255.09 11.35C255.09 8.88999 256.83 6.68999 259.51 6.68999C259.99 6.68999 261.51 6.78999 262.73 8.18999V5.14999C261.51 4.48999 260.39 4.32999 259.45 4.32999C257.55 4.32999 255.89 4.82999 254.55 6.08999C253.41 7.14999 252.41 8.88999 252.41 11.31C252.41 13.27 253.01 14.93 254.55 16.41C255.67 17.47 257.09 18.27 259.43 18.27C260.87 18.27 261.93 17.91 262.73 17.49V14.45V14.45ZM265.52 4.62999V17.97H268.12V4.62999H265.52V4.62999ZM280.64 17.97H283.44L277.86 4.62999H275.82L270.08 17.97H272.9L274.08 15.17H279.46L280.64 17.97ZM274.9 13.05L276.8 8.24999L278.7 13.05H274.9V13.05ZM285.4 4.62999V17.97H292.12V15.73H288V4.62999H285.4V4.62999ZM200.6 36.97H203.4L197.82 23.63H195.78L190.04 36.97H192.86L194.04 34.17H199.42L200.6 36.97ZM194.86 32.05L196.76 27.25L198.66 32.05H194.86ZM205.36 23.63V36.97H208.8C210.66 36.97 212.12 36.79 213.68 35.69C215.44 34.45 216.36 32.53 216.36 30.31C216.36 28.09 215.42 26.15 213.8 24.93C212.32 23.83 210.7 23.63 208.84 23.63H205.36V23.63ZM207.96 25.87H208.76C209.64 25.87 210.96 25.95 212.04 26.75C213.1 27.55 213.68 28.91 213.68 30.31C213.68 31.71 213.08 33.09 212.02 33.85C210.86 34.69 209.42 34.73 208.76 34.73H207.96V25.87ZM217.48 23.63L223.08 36.97H224.64L230.28 23.63H227.44L223.88 32.59L220.32 23.63H217.48V23.63ZM232.23 23.63V36.97H234.83V23.63H232.23V23.63ZM246.19 24.89C244.83 23.49 243.25 23.33 242.41 23.33C239.45 23.33 238.13 25.29 238.13 27.25C238.13 28.61 238.75 29.35 239.19 29.73C239.87 30.33 240.71 30.65 241.41 30.89C242.17 31.15 242.97 31.41 243.47 31.87C243.83 32.21 243.99 32.59 243.99 33.07C243.99 34.19 243.11 34.91 241.93 34.91C240.99 34.91 239.77 34.43 239.13 33.13L237.43 34.75C238.13 35.77 239.57 37.27 242.03 37.27C244.79 37.27 246.67 35.49 246.67 32.89C246.67 31.53 246.13 30.63 245.53 30.09C244.85 29.47 243.87 29.11 242.83 28.75C241.99 28.45 241.55 28.29 241.23 27.99C240.91 27.71 240.81 27.41 240.81 27.09C240.81 26.41 241.25 25.53 242.65 25.53C243.13 25.53 244.05 25.63 244.83 26.67L246.19 24.89V24.89ZM256.75 23.63H249.35V36.97H256.75V34.73H251.95V31.09H256.55V28.85H251.95V25.87H256.75V23.63ZM259.67 23.63V36.97H262.27V31.61H262.59L266.15 36.97H269.39L265.23 31.35C265.87 31.23 266.35 31.01 266.69 30.77C267.73 30.07 268.25 28.93 268.25 27.63C268.25 26.63 267.95 25.49 266.93 24.63C266.31 24.11 265.37 23.63 263.53 23.63H259.67V23.63ZM262.27 25.75H263.05C263.53 25.75 265.57 25.77 265.57 27.75C265.57 29.73 263.51 29.77 263.01 29.77H262.27V25.75V25.75ZM279.47 24.89C278.11 23.49 276.53 23.33 275.69 23.33C272.73 23.33 271.41 25.29 271.41 27.25C271.41 28.61 272.03 29.35 272.47 29.73C273.15 30.33 273.99 30.65 274.69 30.89C275.45 31.15 276.25 31.41 276.75 31.87C277.11 32.21 277.27 32.59 277.27 33.07C277.27 34.19 276.39 34.91 275.21 34.91C274.27 34.91 273.05 34.43 272.41 33.13L270.71 34.75C271.41 35.77 272.85 37.27 275.31 37.27C278.07 37.27 279.95 35.49 279.95 32.89C279.95 31.53 279.41 30.63 278.81 30.09C278.13 29.47 277.15 29.11 276.11 28.75C275.27 28.45 274.83 28.29 274.51 27.99C274.19 27.71 274.09 27.41 274.09 27.09C274.09 26.41 274.53 25.53 275.93 25.53C276.41 25.53 277.33 25.63 278.11 26.67L279.47 24.89V24.89Z" fill="#9FD3A8"/>
<path d="M42.75 22.57V3.73999H54.06V7.86999H47.65V11.14H53.69V15.18H47.65V22.57H42.75V22.57Z" fill="#00587E"/>
<path d="M56.73 3.73999H61.75V12.9C61.75 14.24 61.78 15.21 61.85 15.8C61.92 16.39 62.03 16.88 62.19 17.27C62.38 17.75 62.72 18.12 63.2 18.37C63.68 18.63 64.26 18.75 64.96 18.75C65.66 18.75 66.23 18.63 66.71 18.37C67.19 18.11 67.52 17.75 67.72 17.27C67.88 16.87 68 16.39 68.06 15.8C68.13 15.22 68.16 14.25 68.16 12.9V3.73999H73.17V13.7C73.17 15.76 73.05 17.29 72.81 18.27C72.57 19.25 72.15 20.09 71.57 20.78C70.94 21.55 70.07 22.11 68.98 22.5C67.88 22.88 66.54 23.07 64.97 23.07C63.4 23.07 62.05 22.88 60.96 22.5C59.86 22.12 59 21.55 58.36 20.78C57.79 20.08 57.37 19.25 57.13 18.27C56.88 17.29 56.76 15.76 56.76 13.7V3.73999H56.73Z" fill="#00587E"/>
<path d="M79.63 22.57V8.18999H75.5V3.73999H88.8V8.18999H84.67V22.57H79.64H79.63Z" fill="#00587E"/>
<path d="M91.14 3.73999H96.16V12.9C96.16 14.24 96.19 15.21 96.26 15.8C96.33 16.39 96.44 16.88 96.6 17.27C96.79 17.75 97.13 18.12 97.61 18.37C98.09 18.63 98.67 18.75 99.37 18.75C100.07 18.75 100.64 18.63 101.12 18.37C101.6 18.11 101.93 17.75 102.13 17.27C102.29 16.87 102.41 16.39 102.47 15.8C102.54 15.22 102.57 14.25 102.57 12.9V3.73999H107.58V13.7C107.58 15.76 107.46 17.29 107.22 18.27C106.98 19.25 106.56 20.09 105.98 20.78C105.35 21.55 104.48 22.11 103.39 22.5C102.29 22.88 100.95 23.07 99.38 23.07C97.81 23.07 96.46 22.88 95.37 22.5C94.27 22.12 93.41 21.55 92.77 20.78C92.2 20.08 91.78 19.25 91.54 18.27C91.29 17.29 91.17 15.76 91.17 13.7V3.73999H91.14Z" fill="#00587E"/>
<path d="M111.39 22.57V3.73999H116.65C118.71 3.73999 120.14 3.83999 120.96 4.02999C121.77 4.21999 122.47 4.54999 123.06 4.99999C123.73 5.50999 124.24 6.16999 124.59 6.96999C124.95 7.75999 125.13 8.64999 125.13 9.60999C125.13 11.07 124.77 12.26 124.07 13.16C123.37 14.08 122.35 14.68 121 14.98L126.03 22.57H120.34L116.1 15.2V22.57H111.39V22.57ZM116.1 12.65H117.03C118.11 12.65 118.91 12.46 119.41 12.09C119.91 11.71 120.16 11.12 120.16 10.32C120.16 9.37999 119.93 8.70999 119.46 8.30999C118.99 7.90999 118.21 7.70999 117.11 7.70999H116.1V12.66V12.65Z" fill="#00587E"/>
<path d="M133.16 3.73999H128.08V22.57H133.16V3.73999Z" fill="#00587E"/>
<path d="M139.6 22.57V8.18999H135.47V3.73999H146L148.8 8.18999H144.63V22.57H139.6V22.57Z" fill="#00587E"/>
<path d="M154.71 22.57V13.98L148.25 3.73999H154.03L156.51 8.58999C156.51 8.58999 156.55 8.65999 156.59 8.72999C156.85 9.22999 157.03 9.71999 157.13 10.19C157.22 9.76999 157.4 9.29999 157.67 8.78999C157.72 8.68999 157.76 8.62999 157.77 8.59999L160.23 3.74999H166.01L159.55 13.99V22.58H154.7L154.71 22.57Z" fill="#00587E"/>
<path d="M44.93 27.85H42.75V36.4H44.93V27.85V27.85Z" fill="#00587E"/>
<path d="M46.6899 36.39V27.84H48.8599L52.8799 33.06V27.84H55.0499V36.39H52.8799L48.8599 31.16V36.39H46.6899Z" fill="#00587E"/>
<path d="M58.29 27.85L60.31 33.05L62.34 27.85H64.7L61.17 36.4H59.44L55.91 27.85H58.28H58.29Z" fill="#00587E"/>
<path d="M70.35 29.72H67.76V31.15H70.2V33.03H67.76V34.5H70.35V36.39H65.59V27.84H70.35V29.72Z" fill="#00587E"/>
<path d="M76.52 30.03C76.29 29.84 76.04 29.69 75.81 29.6C75.58 29.5 75.34 29.46 75.12 29.46C74.83 29.46 74.61 29.53 74.43 29.66C74.25 29.79 74.16 29.98 74.16 30.19C74.16 30.34 74.2 30.46 74.29 30.56C74.38 30.66 74.5 30.75 74.64 30.82C74.79 30.89 74.95 30.95 75.13 31.01C75.31 31.06 75.49 31.12 75.67 31.18C76.38 31.42 76.9 31.74 77.23 32.15C77.56 32.56 77.72 33.08 77.72 33.73C77.72 34.17 77.65 34.57 77.5 34.92C77.35 35.27 77.15 35.58 76.87 35.83C76.59 36.09 76.25 36.28 75.85 36.42C75.44 36.56 74.99 36.63 74.48 36.63C73.42 36.63 72.44 36.31 71.54 35.67L72.47 33.88C72.8 34.17 73.12 34.39 73.44 34.53C73.76 34.67 74.07 34.74 74.38 34.74C74.73 34.74 75 34.66 75.18 34.49C75.35 34.32 75.44 34.14 75.44 33.93C75.44 33.81 75.41 33.69 75.37 33.59C75.33 33.49 75.25 33.41 75.15 33.33C75.05 33.25 74.91 33.18 74.74 33.11C74.58 33.04 74.37 32.97 74.13 32.88C73.84 32.79 73.57 32.69 73.3 32.58C73.03 32.47 72.79 32.32 72.58 32.15C72.37 31.97 72.2 31.74 72.07 31.46C71.94 31.19 71.87 30.83 71.87 30.41C71.87 29.99 71.94 29.61 72.08 29.26C72.22 28.92 72.41 28.62 72.66 28.38C72.91 28.13 73.21 27.95 73.57 27.81C73.92 27.68 74.33 27.61 74.77 27.61C75.19 27.61 75.62 27.67 76.07 27.79C76.52 27.9 76.95 28.08 77.37 28.3L76.51 30.04H76.54L76.52 30.03Z" fill="#00587E"/>
<path d="M82.33 29.72V36.39H80.15V29.72H78.36V27.84H84.12V29.72H82.33V29.72Z" fill="#00587E"/>
<path d="M84.71 36.39L86.13 27.84H88.28L89.96 32.39L91.63 27.84H93.78L95.21 36.39H93.04L92.32 31.47L90.34 36.39H89.48L87.6 31.47L86.87 36.39H84.71V36.39Z" fill="#00587E"/>
<path d="M101.35 29.72H98.76V31.15H101.2V33.03H98.76V34.5H101.35V36.39H96.59V27.84H101.35V29.72Z" fill="#00587E"/>
<path d="M102.91 36.39V27.84H105.09L109.11 33.06V27.84H111.27V36.39H109.11L105.09 31.16V36.39H102.91Z" fill="#00587E"/>
<path d="M116.21 29.72V36.39H114.03V29.72H112.24V27.84H118V29.72H116.21V29.72Z" fill="#00587E"/>
<path d="M131.14 31.61C131.14 32.06 131.12 32.47 131.09 32.84C131.06 33.21 130.98 33.55 130.87 33.87C130.71 34.32 130.51 34.71 130.24 35.05C129.97 35.39 129.66 35.68 129.3 35.91C128.95 36.14 128.55 36.32 128.12 36.44C127.69 36.56 127.24 36.63 126.76 36.63C126.11 36.63 125.51 36.52 124.98 36.3C124.44 36.08 123.98 35.77 123.6 35.37C123.22 34.97 122.92 34.5 122.7 33.94C122.48 33.38 122.38 32.77 122.38 32.1C122.38 31.43 122.48 30.83 122.7 30.27C122.91 29.71 123.21 29.24 123.6 28.85C123.99 28.45 124.46 28.15 125 27.93C125.54 27.71 126.16 27.6 126.83 27.6C127.7 27.6 128.47 27.79 129.13 28.17C129.79 28.56 130.31 29.15 130.7 29.96L128.63 30.83C128.44 30.36 128.19 30.03 127.88 29.82C127.57 29.62 127.22 29.51 126.83 29.51C126.5 29.51 126.21 29.57 125.94 29.7C125.67 29.82 125.45 30 125.26 30.23C125.07 30.46 124.92 30.74 124.82 31.06C124.72 31.39 124.65 31.75 124.65 32.14C124.65 32.5 124.69 32.84 124.79 33.15C124.89 33.46 125.02 33.72 125.21 33.95C125.39 34.18 125.63 34.36 125.9 34.48C126.18 34.6 126.49 34.67 126.85 34.67C127.07 34.67 127.27 34.64 127.47 34.6C127.67 34.55 127.85 34.47 128.01 34.36C128.17 34.25 128.3 34.1 128.41 33.94C128.51 33.76 128.58 33.55 128.62 33.3H126.83V31.58H131.16L131.14 31.61Z" fill="#00587E"/>
<path d="M134.69 31.66H135.11C135.54 31.66 135.87 31.57 136.1 31.39C136.33 31.2 136.45 30.95 136.45 30.6C136.45 30.25 136.34 30 136.1 29.82C135.87 29.63 135.54 29.55 135.11 29.55H134.69V31.67V31.66ZM139.48 36.39H136.77L134.7 33.11V36.39H132.52V27.84H135.91C136.38 27.84 136.78 27.91 137.13 28.05C137.48 28.19 137.76 28.38 137.99 28.62C138.22 28.86 138.39 29.14 138.5 29.46C138.61 29.78 138.67 30.12 138.67 30.48C138.67 31.13 138.51 31.65 138.21 32.06C137.9 32.47 137.45 32.74 136.85 32.88L139.48 36.38V36.39Z" fill="#00587E"/>
<path d="M142.13 32.11C142.13 32.45 142.19 32.76 142.32 33.05C142.45 33.34 142.61 33.59 142.83 33.8C143.05 34.01 143.3 34.18 143.58 34.29C143.87 34.4 144.17 34.47 144.49 34.47C144.81 34.47 145.11 34.41 145.4 34.29C145.69 34.18 145.94 34.01 146.15 33.8C146.37 33.59 146.54 33.34 146.67 33.05C146.79 32.77 146.86 32.45 146.86 32.11C146.86 31.77 146.8 31.46 146.67 31.17C146.54 30.88 146.37 30.63 146.15 30.42C145.93 30.21 145.68 30.04 145.4 29.93C145.11 29.82 144.81 29.75 144.49 29.75C144.17 29.75 143.87 29.81 143.58 29.93C143.3 30.04 143.04 30.21 142.83 30.42C142.61 30.63 142.44 30.88 142.32 31.17C142.19 31.45 142.13 31.77 142.13 32.11ZM139.86 32.11C139.86 31.47 139.97 30.88 140.21 30.34C140.44 29.79 140.75 29.32 141.17 28.9C141.58 28.49 142.06 28.18 142.63 27.95C143.2 27.72 143.82 27.61 144.51 27.61C145.2 27.61 145.81 27.72 146.38 27.95C146.95 28.18 147.44 28.5 147.85 28.9C148.27 29.31 148.59 29.79 148.81 30.34C149.04 30.89 149.16 31.48 149.16 32.11C149.16 32.74 149.05 33.34 148.81 33.88C148.58 34.43 148.27 34.9 147.85 35.31C147.44 35.72 146.95 36.04 146.38 36.27C145.81 36.5 145.19 36.61 144.51 36.61C143.83 36.61 143.2 36.5 142.63 36.27C142.07 36.04 141.58 35.72 141.17 35.31C140.76 34.9 140.44 34.43 140.21 33.88C139.99 33.33 139.86 32.74 139.86 32.11Z" fill="#00587E"/>
<path d="M152.69 27.85V32.5C152.69 32.75 152.69 33 152.72 33.27C152.74 33.53 152.8 33.76 152.88 33.98C152.97 34.19 153.12 34.36 153.32 34.49C153.52 34.62 153.8 34.68 154.17 34.68C154.54 34.68 154.81 34.62 155.01 34.49C155.21 34.36 155.36 34.19 155.45 33.98C155.54 33.77 155.61 33.53 155.62 33.27C155.64 33.01 155.65 32.76 155.65 32.5V27.85H157.82V32.8C157.82 34.13 157.52 35.1 156.93 35.71C156.33 36.32 155.42 36.63 154.18 36.63C152.94 36.63 152.03 36.32 151.43 35.71C150.83 35.1 150.53 34.13 150.53 32.8V27.85H152.69V27.85Z" fill="#00587E"/>
<path d="M161.82 31.77H162.54C163.33 31.77 163.74 31.42 163.74 30.7C163.74 29.98 163.34 29.63 162.54 29.63H161.82V31.76V31.77ZM161.82 36.39H159.64V27.84H163.11C164.05 27.84 164.77 28.09 165.27 28.59C165.77 29.09 166.02 29.79 166.02 30.7C166.02 31.61 165.77 32.31 165.27 32.81C164.77 33.31 164.05 33.56 163.11 33.56H161.82V36.39Z" fill="#00587E"/>
<path d="M17.28 22.65C17.34 22.18 17.38 21.71 17.41 21.21V20.95C17.41 20.54 17.43 20.14 17.43 19.75C17.43 19.28 17.39 18.82 17.33 18.37C17.33 18.26 17.3 18.14 17.28 18.03C17.24 17.7 17.19 17.37 17.12 17.05C17.09 16.9 17.05 16.75 17.02 16.6C16.96 16.33 16.89 16.05 16.81 15.78C16.76 15.61 16.71 15.45 16.65 15.29C16.56 15.04 16.49 14.8 16.39 14.56C16.32 14.39 16.25 14.22 16.17 14.07C16.07 13.84 15.96 13.62 15.85 13.4C15.76 13.23 15.68 13.07 15.58 12.91C15.46 12.7 15.34 12.49 15.2 12.28C15.1 12.12 14.99 11.96 14.88 11.8C14.74 11.6 14.59 11.4 14.44 11.21C14.32 11.06 14.2 10.91 14.08 10.76C14.02 10.69 13.95 10.62 13.89 10.55V30.6C13.95 30.54 14.01 30.48 14.06 30.41C14.18 30.27 14.29 30.13 14.41 29.98C14.56 29.79 14.7 29.6 14.83 29.4C14.93 29.25 15.04 29.09 15.13 28.94C15.26 28.74 15.38 28.53 15.5 28.31C15.59 28.15 15.68 27.98 15.76 27.82C15.87 27.6 15.97 27.38 16.07 27.15C16.15 26.98 16.22 26.81 16.29 26.64C16.39 26.4 16.46 26.16 16.55 25.92C16.61 25.74 16.67 25.57 16.72 25.39C16.8 25.13 16.86 24.86 16.92 24.6C16.96 24.42 17.01 24.25 17.05 24.07C17.11 23.77 17.15 23.46 17.21 23.15C17.24 22.99 17.26 22.84 17.29 22.68" fill="#00587E"/>
<path d="M14.81 31.81C14.91 31.62 15.01 31.43 15.1 31.24C15.23 30.98 15.36 30.69 15.48 30.41C15.57 30.22 15.65 30.02 15.73 29.82C15.85 29.51 15.96 29.2 16.07 28.89C16.13 28.7 16.2 28.52 16.26 28.33C16.28 28.29 16.29 28.24 16.29 28.2C16.29 28.22 16.27 28.23 16.26 28.24C15.98 28.79 15.66 29.3 15.32 29.8C15.23 29.92 15.14 30.05 15.05 30.16C14.72 30.61 14.37 31.03 13.98 31.44C13.94 31.48 13.91 31.53 13.87 31.57V33.35C13.92 33.27 13.98 33.2 14.03 33.12C14.14 32.94 14.25 32.76 14.37 32.58C14.52 32.33 14.66 32.08 14.8 31.82" fill="#00587E"/>
<path d="M13.88 34.5V40.01C14.64 39.37 16.42 36.9 17.12 27.67C17.09 27.8 17.03 27.93 17 28.07C16.89 28.46 16.78 28.84 16.65 29.21C16.57 29.44 16.49 29.67 16.4 29.9C16.26 30.25 16.12 30.6 15.97 30.93C15.87 31.15 15.78 31.36 15.68 31.57C15.52 31.91 15.33 32.23 15.15 32.55C15.05 32.74 14.94 32.94 14.82 33.12C14.6 33.48 14.36 33.83 14.11 34.16C14.03 34.27 13.96 34.39 13.88 34.5V34.5Z" fill="#00587E"/>
<path d="M13.88 9.52999C14.17 9.83999 14.45 10.15 14.71 10.46C14.78 10.54 14.83 10.63 14.9 10.71C15.11 10.97 15.31 11.24 15.5 11.51C15.59 11.63 15.66 11.77 15.74 11.89C15.9 12.13 16.04 12.38 16.18 12.63C16.26 12.76 16.33 12.9 16.4 13.04C16.43 13.11 16.48 13.18 16.52 13.26C16.49 13.15 16.46 13.03 16.42 12.92C16.34 12.66 16.26 12.41 16.18 12.15C16.08 11.87 15.99 11.59 15.88 11.32C15.78 11.07 15.69 10.83 15.59 10.59C15.48 10.33 15.36 10.06 15.23 9.79999C15.12 9.55999 15.01 9.31999 14.88 9.08999C14.74 8.82999 14.6 8.57999 14.46 8.32999C14.33 8.09999 14.2 7.87999 14.05 7.65999C13.99 7.56999 13.93 7.47999 13.88 7.39999V9.52999V9.52999Z" fill="#00587E"/>
<path d="M6.03 9.03V5.32C3.29 4.26 0.88 3.85 0 3.72V36.26C0.8 36.24 3.28 36.14 6.09 35.31C6.06 29.4 6.02 20.15 6.02 12.62V9.03" fill="#00587E"/>
<path d="M14.86 7.73C14.97 7.92 15.08 8.12 15.19 8.31C15.38 8.65 15.57 9 15.74 9.35C15.84 9.57 15.95 9.8 16.04 10.03C16.19 10.37 16.33 10.71 16.47 11.06C16.57 11.3 16.65 11.55 16.73 11.79C16.85 12.14 16.96 12.5 17.07 12.86C17.11 13 17.17 13.12 17.2 13.27C16.59 4.67 14.77 1.21 13.87 0V6.22C13.95 6.33 14.01 6.44 14.08 6.55C14.35 6.94 14.62 7.33 14.86 7.73V7.73Z" fill="#00587E"/>
<path d="M13.2399 6.45C10.7399 3.06 7.81994 1.33 6.73994 0.779999C6.70994 1.48 6.69994 2.85 6.68994 4.88C7.34994 5.14 7.97994 5.44 8.58994 5.74C8.67994 5.78 8.74994 5.84 8.83994 5.88C9.37994 6.16 9.90994 6.46 10.4099 6.77C10.6099 6.89 10.7899 7.03 10.9899 7.17C11.3499 7.42 11.7199 7.67 12.0599 7.94C12.2599 8.1 12.4499 8.27 12.6499 8.43C12.8399 8.59 13.0499 8.75 13.2299 8.92V6.45H13.2399Z" fill="#00587E"/>
<path d="M11.01 33.83C10.82 33.94 10.64 34.08 10.44 34.19C9.93001 34.48 9.39001 34.75 8.84001 34.99C8.77001 35.03 8.70001 35.06 8.63001 35.1C8.03001 35.36 7.41001 35.59 6.76001 35.8L6.78001 38.99C7.82001 38.65 10.75 37.46 13.25 34.26V32.19C13.07 32.36 12.86 32.5 12.67 32.66C12.48 32.82 12.29 32.98 12.09 33.13C11.75 33.39 11.39 33.62 11.02 33.84" fill="#00587E"/>
<path d="M13.24 9.82001C12.82 9.41001 12.39 9.01001 11.92 8.63001C11.89 8.61001 11.88 8.59001 11.85 8.57001C11.35 8.17001 10.82 7.79001 10.26 7.43001C10.06 7.31001 9.84002 7.19001 9.65002 7.07001C9.26002 6.84001 8.87002 6.61001 8.47002 6.40001C8.21002 6.27001 7.93002 6.14001 7.66002 6.02001C7.35002 5.88001 7.04002 5.73001 6.72002 5.60001V6.73001C6.69002 14.92 6.75002 28.78 6.79002 35.09C7.14002 34.98 7.46002 34.85 7.79002 34.72C8.03002 34.62 8.29002 34.53 8.53002 34.44C8.95002 34.25 9.36002 34.04 9.76002 33.83C9.95002 33.73 10.15 33.64 10.32 33.54C10.88 33.21 11.42 32.86 11.92 32.47C11.97 32.43 12.01 32.39 12.06 32.35C12.49 32.01 12.9 31.65 13.28 31.28V9.82001H13.26H13.24Z" fill="#00587E"/>
<path d="M26.66 35C26.11 34.75 25.57 34.49 25.06 34.2C24.86 34.09 24.68 33.96 24.49 33.84C24.13 33.61 23.76 33.38 23.42 33.13C23.22 32.98 23.03 32.82 22.84 32.66C22.65 32.5 22.44 32.36 22.26 32.19V34.26C24.77 37.47 27.69 38.64 28.73 38.99L28.75 35.8C28.1 35.6 27.48 35.36 26.88 35.1C26.8 35.06 26.74 35.03 26.67 34.99" fill="#00587E"/>
<path d="M28.82 10.16V5.60001C28.49 5.73001 28.18 5.88001 27.87 6.03001C27.6 6.15001 27.33 6.27001 27.07 6.40001C26.65 6.61001 26.26 6.85001 25.87 7.08001C25.67 7.19001 25.46 7.31001 25.27 7.42001C24.7 7.78001 24.16 8.17001 23.65 8.58001C23.63 8.60001 23.62 8.61001 23.61 8.62001C23.13 9.00001 22.7 9.40001 22.29 9.81001V31.28C22.67 31.66 23.08 32.01 23.51 32.35C23.56 32.39 23.6 32.43 23.65 32.47C24.15 32.85 24.69 33.2 25.25 33.54C25.43 33.65 25.63 33.73 25.82 33.83C26.22 34.04 26.62 34.25 27.04 34.44C27.28 34.55 27.54 34.63 27.78 34.73C28.11 34.85 28.44 34.99 28.77 35.09C28.8 28.5 28.85 17.94 28.84 10.16" fill="#00587E"/>
<path d="M29.47 13.21V16.05C29.47 23.05 29.43 30.62 29.4 34.91V35.31C32.2 36.14 34.67 36.25 35.48 36.26V3.73001C34.6 3.85001 32.19 4.27001 29.46 5.33001V13.22" fill="#00587E"/>
<path d="M24.51 7.16C24.7 7.03 24.88 6.9 25.09 6.77C25.58 6.46 26.11 6.17 26.65 5.89C26.75 5.85 26.82 5.78 26.92 5.74C27.53 5.43 28.16 5.15 28.82 4.88C28.82 2.85 28.79 1.48 28.77 0.779999C27.7 1.34 24.77 3.06 22.28 6.44V8.9C22.46 8.73 22.67 8.57 22.86 8.41C23.05 8.24 23.24 8.07 23.45 7.92C23.79 7.66 24.15 7.4 24.52 7.15L24.51 7.16Z" fill="#00587E"/>
<path d="M20.68 33.11C20.57 32.92 20.46 32.73 20.36 32.55C20.18 32.23 20 31.91 19.83 31.57C19.73 31.36 19.63 31.14 19.53 30.92C19.38 30.59 19.24 30.26 19.11 29.91C19.02 29.67 18.94 29.43 18.85 29.2C18.73 28.85 18.62 28.49 18.51 28.12C18.47 27.98 18.41 27.84 18.37 27.69C19.07 36.88 20.84 39.36 21.61 40.01V34.51C21.52 34.4 21.45 34.28 21.38 34.17C21.14 33.83 20.9 33.49 20.67 33.13" fill="#00587E"/>
<path d="M21.62 31.57C21.62 31.57 21.55 31.48 21.52 31.44C21.13 31.03 20.78 30.6 20.45 30.15C20.36 30.04 20.28 29.92 20.19 29.8C19.84 29.3 19.52 28.78 19.24 28.22C19.24 28.22 19.24 28.2 19.22 28.19C19.24 28.23 19.25 28.29 19.25 28.33C19.3 28.5 19.36 28.67 19.42 28.83C19.53 29.17 19.65 29.5 19.77 29.83C19.85 30.02 19.93 30.2 20 30.39C20.12 30.68 20.25 30.96 20.39 31.25C20.49 31.44 20.58 31.63 20.68 31.81C20.82 32.07 20.97 32.32 21.11 32.57C21.22 32.76 21.33 32.94 21.45 33.12C21.5 33.2 21.55 33.27 21.61 33.35V31.57H21.62Z" fill="#00587E"/>
<path d="M21.62 9.52999V7.39999C21.56 7.48999 21.5 7.57999 21.44 7.65999C21.3 7.87999 21.17 8.09999 21.04 8.31999C20.89 8.57999 20.75 8.82999 20.62 9.08999C20.5 9.31999 20.39 9.54999 20.27 9.78999C20.15 10.05 20.02 10.32 19.91 10.59C19.81 10.83 19.71 11.08 19.62 11.32C19.52 11.59 19.41 11.87 19.33 12.15C19.24 12.41 19.17 12.66 19.09 12.93C19.06 13.04 19.03 13.15 19 13.27C19.03 13.2 19.08 13.13 19.12 13.05C19.19 12.91 19.27 12.78 19.34 12.64C19.48 12.39 19.63 12.15 19.78 11.9C19.86 11.78 19.94 11.64 20.02 11.52C20.21 11.25 20.41 10.97 20.63 10.71C20.69 10.63 20.75 10.55 20.81 10.47C21.07 10.15 21.35 9.82999 21.64 9.53999H21.62V9.52999Z" fill="#00587E"/>
<path d="M21.62 6.22V0C20.72 1.21 18.9 4.67 18.29 13.27C18.32 13.13 18.38 13 18.42 12.86C18.52 12.51 18.63 12.15 18.75 11.81C18.84 11.56 18.92 11.31 19.02 11.06C19.15 10.72 19.3 10.37 19.44 10.04C19.54 9.81 19.64 9.58 19.75 9.35C19.92 9 20.11 8.65 20.3 8.31C20.41 8.12 20.51 7.91 20.63 7.72C20.87 7.31 21.13 6.93 21.41 6.54C21.49 6.43 21.55 6.32 21.63 6.21L21.62 6.22Z" fill="#00587E"/>
<path d="M21.62 10.52C21.56 10.59 21.49 10.66 21.43 10.73C21.3 10.88 21.18 11.03 21.07 11.18C20.91 11.37 20.78 11.57 20.64 11.77C20.53 11.93 20.42 12.09 20.32 12.25C20.19 12.45 20.07 12.66 19.95 12.87C19.85 13.04 19.76 13.21 19.67 13.37C19.56 13.58 19.46 13.8 19.36 14.02C19.28 14.19 19.2 14.36 19.14 14.54C19.04 14.77 18.97 15.01 18.89 15.24C18.83 15.42 18.77 15.58 18.72 15.77C18.64 16.02 18.58 16.27 18.52 16.53C18.48 16.7 18.43 16.87 18.4 17.04C18.34 17.33 18.3 17.62 18.26 17.92C18.24 18.07 18.21 18.21 18.19 18.36C18.14 18.81 18.11 19.27 18.09 19.74C18.09 20.13 18.09 20.52 18.09 20.93V21.15C18.11 21.34 18.13 21.53 18.15 21.72C18.18 22.01 18.19 22.31 18.23 22.59C18.26 22.84 18.31 23.08 18.34 23.32C18.37 23.54 18.41 23.76 18.45 23.97C18.49 24.21 18.55 24.43 18.61 24.66C18.66 24.87 18.71 25.09 18.77 25.3C18.83 25.51 18.9 25.71 18.98 25.93C19.05 26.14 19.13 26.36 19.2 26.57C19.28 26.76 19.36 26.95 19.44 27.13C19.54 27.34 19.63 27.55 19.73 27.76C19.82 27.94 19.91 28.1 20.01 28.28C20.12 28.48 20.24 28.69 20.36 28.89C20.46 29.05 20.56 29.21 20.67 29.36C20.81 29.55 20.95 29.75 21.09 29.93C21.2 30.08 21.31 30.22 21.44 30.36C21.49 30.42 21.56 30.48 21.61 30.55V10.52H21.59H21.62Z" fill="#00587E"/>
<path d="M178.91 2.97V36.97" stroke="#00587E"/>
</g>
<path d="M198.587 47.6319H191.507V60.9719H194.107V55.0919H198.307V52.8519H194.107V49.8719H198.587V47.6319ZM201.223 47.6319V60.9719H203.823V47.6319H201.223ZM209.868 60.9719V52.0519L217.988 60.9719H219.788V47.6319H217.188V56.5319L209.068 47.6319H207.268V60.9719H209.868ZM232.314 60.9719H235.114L229.534 47.6319H227.494L221.754 60.9719H224.574L225.754 58.1719H231.134L232.314 60.9719ZM226.574 56.0519L228.474 51.2519L230.374 56.0519H226.574ZM239.672 60.9719V52.0519L247.792 60.9719H249.592V47.6319H246.992V56.5319L238.872 47.6319H237.072V60.9719H239.672ZM262.718 57.4519C261.938 58.3719 260.838 58.9119 259.598 58.9119C257.358 58.9119 255.078 57.3119 255.078 54.3519C255.078 51.8919 256.818 49.6919 259.498 49.6919C259.978 49.6919 261.498 49.7919 262.718 51.1919V48.1519C261.498 47.4919 260.378 47.3319 259.438 47.3319C257.538 47.3319 255.878 47.8319 254.538 49.0919C253.398 50.1519 252.398 51.8919 252.398 54.3119C252.398 56.2719 252.998 57.9319 254.538 59.4119C255.658 60.4719 257.078 61.2719 259.418 61.2719C260.858 61.2719 261.918 60.9119 262.718 60.4919V57.4519ZM265.508 47.6319V60.9719H268.108V47.6319H265.508ZM280.633 60.9719H283.433L277.853 47.6319H275.813L270.073 60.9719H272.893L274.073 58.1719H279.453L280.633 60.9719ZM274.893 56.0519L276.793 51.2519L278.693 56.0519H274.893ZM285.39 47.6319V60.9719H292.11V58.7319H287.99V47.6319H285.39ZM200.587 79.9719H203.387L197.807 66.6319H195.767L190.027 79.9719H192.847L194.027 77.1719H199.407L200.587 79.9719ZM194.847 75.0519L196.747 70.2519L198.647 75.0519H194.847ZM205.344 66.6319V79.9719H208.784C210.644 79.9719 212.104 79.7919 213.664 78.6919C215.424 77.4519 216.344 75.5319 216.344 73.3119C216.344 71.0919 215.404 69.1519 213.784 67.9319C212.304 66.8319 210.684 66.6319 208.824 66.6319H205.344ZM207.944 68.8719H208.744C209.624 68.8719 210.944 68.9519 212.024 69.7519C213.084 70.5519 213.664 71.9119 213.664 73.3119C213.664 74.7319 213.064 76.0919 212.004 76.8519C210.844 77.6919 209.404 77.7319 208.744 77.7319H207.944V68.8719ZM217.467 66.6319L223.067 79.9719H224.627L230.267 66.6319H227.427L223.867 75.5919L220.307 66.6319H217.467ZM232.218 66.6319V79.9719H234.818V66.6319H232.218ZM246.183 67.8919C244.823 66.4919 243.243 66.3319 242.403 66.3319C239.443 66.3319 238.123 68.2919 238.123 70.2519C238.123 71.6119 238.743 72.3519 239.183 72.7319C239.863 73.3319 240.703 73.6519 241.403 73.8919C242.163 74.1519 242.963 74.4119 243.463 74.8719C243.823 75.2119 243.983 75.5919 243.983 76.0719C243.983 77.1919 243.103 77.9119 241.923 77.9119C240.983 77.9119 239.763 77.4319 239.123 76.1319L237.423 77.7519C238.123 78.7719 239.563 80.2719 242.023 80.2719C244.783 80.2719 246.663 78.4919 246.663 75.8919C246.663 74.5319 246.123 73.6319 245.523 73.0919C244.843 72.4719 243.863 72.1119 242.823 71.7519C241.983 71.4519 241.543 71.2919 241.223 70.9919C240.903 70.7119 240.803 70.4119 240.803 70.0919C240.803 69.4119 241.243 68.5319 242.643 68.5319C243.123 68.5319 244.043 68.6319 244.823 69.6719L246.183 67.8919ZM256.747 66.6319H249.347V79.9719H256.747V77.7319H251.947V74.0919H256.547V71.8519H251.947V68.8719H256.747V66.6319ZM259.668 66.6319V79.9719H262.268V74.6119H262.588L266.148 79.9719H269.388L265.228 74.3519C265.868 74.2319 266.348 74.0119 266.688 73.7719C267.728 73.0719 268.248 71.9319 268.248 70.6319C268.248 69.6319 267.948 68.4919 266.928 67.6319C266.308 67.1119 265.368 66.6319 263.528 66.6319H259.668ZM262.268 68.7519H263.048C263.528 68.7519 265.568 68.7719 265.568 70.7519C265.568 72.7119 263.508 72.7719 263.008 72.7719H262.268V68.7519ZM279.473 67.8919C278.113 66.4919 276.533 66.3319 275.693 66.3319C272.733 66.3319 271.413 68.2919 271.413 70.2519C271.413 71.6119 272.033 72.3519 272.473 72.7319C273.153 73.3319 273.993 73.6519 274.693 73.8919C275.453 74.1519 276.253 74.4119 276.753 74.8719C277.113 75.2119 277.273 75.5919 277.273 76.0719C277.273 77.1919 276.393 77.9119 275.213 77.9119C274.273 77.9119 273.053 77.4319 272.413 76.1319L270.713 77.7519C271.413 78.7719 272.853 80.2719 275.313 80.2719C278.073 80.2719 279.953 78.4919 279.953 75.8919C279.953 74.5319 279.413 73.6319 278.813 73.0919C278.133 72.4719 277.153 72.1119 276.113 71.7519C275.273 71.4519 274.833 71.2919 274.513 70.9919C274.193 70.7119 274.093 70.4119 274.093 70.0919C274.093 69.4119 274.533 68.5319 275.933 68.5319C276.413 68.5319 277.333 68.6319 278.113 69.6719L279.473 67.8919Z" fill="white"/>
<path d="M42.7516 65.5711V46.7398H54.0622V50.8677H47.6546V54.14H53.6903V58.1797H47.6546V65.5711H42.7516Z" fill="#00587E"/>
<path d="M56.7255 46.7398H61.7409V55.9041C61.7409 57.2448 61.7755 58.215 61.8447 58.806C61.9138 59.3969 62.0262 59.882 62.1819 60.2789C62.3721 60.7552 62.7094 61.1257 63.1936 61.3815C63.6692 61.6373 64.2572 61.7608 64.949 61.7608C65.6408 61.7608 66.2201 61.6373 66.6957 61.3815C67.1713 61.1257 67.5086 60.7641 67.7075 60.2789C67.8631 59.882 67.9842 59.3969 68.0447 58.806C68.1139 58.2238 68.1485 57.2536 68.1485 55.9041V46.7398H73.1552V56.6979C73.1552 58.7619 73.0341 60.2878 72.792 61.2668C72.5499 62.2459 72.1348 63.0838 71.5555 63.7806C70.9242 64.548 70.0595 65.1125 68.9613 65.5006C67.8631 65.8798 66.5228 66.0739 64.949 66.0739C63.3752 66.0739 62.0262 65.8798 60.9367 65.5006C59.8385 65.1213 58.9738 64.548 58.3339 63.7806C57.7632 63.0838 57.3481 62.2459 57.106 61.2668C56.8552 60.2878 56.7342 58.7619 56.7342 56.6979V46.7398H56.7255Z" fill="#00587E"/>
<path d="M79.6319 65.5711V51.1941H75.4985V46.7398H88.7979V51.1941H84.6646V65.5711H79.6319Z" fill="#00587E"/>
<path d="M91.1413 46.7398H96.1567V55.9041C96.1567 57.2448 96.1913 58.215 96.2604 58.806C96.3296 59.3969 96.442 59.882 96.5977 60.2789C96.7879 60.7552 97.1251 61.1257 97.6094 61.3815C98.085 61.6373 98.673 61.7608 99.3648 61.7608C100.057 61.7608 100.636 61.6373 101.112 61.3815C101.587 61.1257 101.924 60.7641 102.123 60.2789C102.279 59.882 102.4 59.3969 102.46 58.806C102.53 58.2238 102.564 57.2536 102.564 55.9041V46.7398H107.571V56.6979C107.571 58.7619 107.45 60.2878 107.208 61.2668C106.966 62.2459 106.551 63.0838 105.971 63.7806C105.34 64.548 104.475 65.1125 103.377 65.5006C102.279 65.8798 100.939 66.0739 99.3648 66.0739C97.791 66.0739 96.442 65.8798 95.3525 65.5006C94.2543 65.1213 93.3896 64.548 92.7497 63.7806C92.179 63.0838 91.7639 62.2459 91.5218 61.2668C91.271 60.2878 91.1499 58.7619 91.1499 56.6979V46.7398H91.1413Z" fill="#00587E"/>
<path d="M111.393 65.5711V46.7398H116.65C118.709 46.7398 120.144 46.8368 120.957 47.0309C121.77 47.2249 122.47 47.5513 123.058 48.0011C123.724 48.5127 124.234 49.1742 124.589 49.968C124.943 50.7619 125.125 51.6439 125.125 52.6053C125.125 54.0606 124.77 55.2514 124.07 56.1599C123.369 57.0772 122.349 57.677 121 57.9769L126.033 65.5623H120.343L116.106 58.1974V65.5623H111.393V65.5711ZM116.106 55.6395H117.04C118.121 55.6395 118.916 55.4543 119.418 55.075C119.919 54.6957 120.17 54.1047 120.17 53.3021C120.17 52.3583 119.936 51.688 119.469 51.2911C119.003 50.8942 118.216 50.6913 117.117 50.6913H116.106V55.6395Z" fill="#00587E"/>
<path d="M133.158 46.7398H128.073V65.5711H133.158V46.7398Z" fill="#00587E"/>
<path d="M139.6 65.5711V51.1941H135.467V46.7398H145.999L148.801 51.1941H144.633V65.5711H139.6Z" fill="#00587E"/>
<path d="M154.707 65.5711V56.9802L148.247 46.7398H154.024L156.505 51.591C156.505 51.591 156.549 51.6615 156.583 51.7321C156.843 52.2348 157.024 52.72 157.128 53.1874C157.214 52.7641 157.396 52.2966 157.673 51.785C157.725 51.688 157.759 51.6262 157.777 51.591L160.232 46.7398H166.017L159.558 56.9802V65.5711H154.707Z" fill="#00587E"/>
<path d="M44.9307 70.8456H42.7516V79.3925H44.9307V70.8456Z" fill="#00587E"/>
<path d="M46.6861 79.3925V70.8456H48.8565L52.8775 76.0673V70.8456H55.0479V79.3925H52.8775L48.8565 74.1621V79.3925H46.6861Z" fill="#00587E"/>
<path d="M58.2907 70.8456L60.3141 76.0496L62.3462 70.8456H64.7069L61.1788 79.3925H59.4494L55.9213 70.8456H58.2907Z" fill="#00587E"/>
<path d="M70.3535 72.7244H67.768V74.1532H70.2065V76.032H67.768V77.505H70.3535V79.3925H65.5889V70.8456H70.3535V72.7244Z" fill="#00587E"/>
<path d="M76.5189 73.0331C76.2854 72.839 76.0433 72.6891 75.8098 72.6009C75.5764 72.5038 75.3429 72.4597 75.1181 72.4597C74.8327 72.4597 74.6079 72.5303 74.4263 72.6626C74.2447 72.7949 74.1582 72.9801 74.1582 73.1918C74.1582 73.3418 74.2015 73.4653 74.2879 73.5623C74.3744 73.6593 74.4955 73.7475 74.6338 73.8181C74.7808 73.8886 74.9451 73.9504 75.1267 74.0033C75.3083 74.0562 75.4899 74.1091 75.6628 74.1709C76.3719 74.409 76.8907 74.7354 77.2193 75.1411C77.5479 75.5468 77.7122 76.0672 77.7122 76.7199C77.7122 77.161 77.643 77.5579 77.496 77.9107C77.349 78.2635 77.1415 78.5722 76.8648 78.8192C76.5881 79.075 76.2422 79.269 75.8444 79.4101C75.438 79.5513 74.9797 79.6218 74.4695 79.6218C73.4059 79.6218 72.4288 79.3043 71.5295 78.6604L72.4634 76.8699C72.792 77.161 73.1119 77.3815 73.4319 77.5226C73.7518 77.6637 74.0631 77.7343 74.3744 77.7343C74.7289 77.7343 74.997 77.6549 75.17 77.4873C75.3429 77.3197 75.4294 77.1345 75.4294 76.9228C75.4294 76.7993 75.4034 76.6847 75.3602 76.5876C75.3169 76.4906 75.2391 76.4112 75.1354 76.3319C75.0316 76.2525 74.8932 76.1819 74.7289 76.1113C74.5646 76.0408 74.3571 75.9702 74.1236 75.882C73.8383 75.7938 73.5616 75.688 73.2935 75.5821C73.0254 75.4763 72.7833 75.3263 72.5758 75.1499C72.3683 74.9735 72.1953 74.7442 72.0656 74.4619C71.9359 74.1885 71.8667 73.8357 71.8667 73.4123C71.8667 72.989 71.9359 72.6097 72.0743 72.2657C72.2126 71.9217 72.4028 71.6306 72.6536 71.3837C72.9044 71.1367 73.207 70.9515 73.5616 70.8104C73.9161 70.678 74.3225 70.6075 74.7635 70.6075C75.1786 70.6075 75.611 70.6692 76.0606 70.7839C76.5103 70.8986 76.9426 71.075 77.3577 71.2955L76.493 73.0331H76.5189Z" fill="#00587E"/>
<path d="M82.3298 72.7244V79.3925H80.1507V72.7244H78.3608V70.8456H84.1198V72.7244H82.3298Z" fill="#00587E"/>
<path d="M84.7078 79.3925L86.126 70.8456H88.2791L89.9567 75.3969L91.6256 70.8456H93.7787L95.2055 79.3925H93.0351L92.3173 74.4708L90.3371 79.3925H89.4724L87.596 74.4708L86.8696 79.3925H84.7078Z" fill="#00587E"/>
<path d="M101.345 72.7244H98.7595V74.1532H101.198V76.032H98.7595V77.505H101.345V79.3925H96.5804V70.8456H101.345V72.7244Z" fill="#00587E"/>
<path d="M102.91 79.3925V70.8456H105.089L109.11 76.0673V70.8456H111.272V79.3925H109.11L105.089 74.1621V79.3925H102.91Z" fill="#00587E"/>
<path d="M116.209 72.7244V79.3925H114.03V72.7244H112.24V70.8456H117.999V72.7244H116.209Z" fill="#00587E"/>
<path d="M131.143 74.6119C131.143 75.0617 131.126 75.4763 131.091 75.8467C131.057 76.2172 130.979 76.5612 130.866 76.8787C130.711 77.3285 130.503 77.7166 130.235 78.0606C129.967 78.4046 129.656 78.6869 129.293 78.925C128.938 79.1543 128.54 79.3307 128.108 79.4542C127.676 79.5777 127.226 79.6395 126.75 79.6395C126.102 79.6395 125.505 79.5336 124.969 79.3131C124.433 79.0926 123.975 78.7839 123.586 78.387C123.196 77.9901 122.902 77.5138 122.686 76.9581C122.47 76.4024 122.366 75.785 122.366 75.1146C122.366 74.4443 122.47 73.8445 122.686 73.2888C122.894 72.7332 123.196 72.2569 123.586 71.8688C123.975 71.4719 124.442 71.172 124.986 70.9515C125.531 70.731 126.145 70.6251 126.82 70.6251C127.693 70.6251 128.463 70.8192 129.12 71.1984C129.777 71.5865 130.304 72.1775 130.685 72.989L128.618 73.8622C128.428 73.3947 128.177 73.0595 127.866 72.8567C127.555 72.6538 127.209 72.5479 126.82 72.5479C126.491 72.5479 126.197 72.6097 125.929 72.7332C125.661 72.8567 125.436 73.0331 125.246 73.2624C125.056 73.4917 124.909 73.774 124.805 74.0915C124.701 74.4178 124.64 74.7795 124.64 75.1764C124.64 75.538 124.684 75.8732 124.779 76.1819C124.874 76.4906 125.012 76.7552 125.194 76.9845C125.375 77.2139 125.609 77.3903 125.886 77.5138C126.162 77.6373 126.474 77.699 126.837 77.699C127.053 77.699 127.261 77.6725 127.459 77.6284C127.658 77.5755 127.84 77.4961 127.996 77.3903C128.151 77.2844 128.29 77.1345 128.393 76.9669C128.497 76.7905 128.566 76.5788 128.601 76.3318H126.811V74.6119H131.143Z" fill="#00587E"/>
<path d="M134.689 74.6648H135.104C135.536 74.6648 135.865 74.5766 136.089 74.3914C136.323 74.2062 136.435 73.9504 136.435 73.6064C136.435 73.2624 136.323 73.0066 136.089 72.8214C135.856 72.6362 135.527 72.548 135.104 72.548H134.689V74.6648ZM139.479 79.3925H136.772L134.697 76.1114V79.3925H132.518V70.8456H135.908C136.375 70.8456 136.781 70.9162 137.127 71.0573C137.473 71.1985 137.758 71.3837 137.983 71.6306C138.208 71.8688 138.381 72.151 138.493 72.4686C138.606 72.7861 138.666 73.1301 138.666 73.4917C138.666 74.1444 138.511 74.6648 138.208 75.0706C137.897 75.4763 137.447 75.7497 136.85 75.8908L139.479 79.3925Z" fill="#00587E"/>
<path d="M142.134 75.1147C142.134 75.4586 142.194 75.7674 142.324 76.0584C142.454 76.3495 142.618 76.5965 142.834 76.8081C143.05 77.0198 143.301 77.1874 143.586 77.3021C143.872 77.4167 144.174 77.4785 144.494 77.4785C144.814 77.4785 145.117 77.4167 145.402 77.3021C145.688 77.1874 145.939 77.0198 146.155 76.8081C146.371 76.5965 146.544 76.3495 146.674 76.0584C146.795 75.7762 146.864 75.4586 146.864 75.1147C146.864 74.7707 146.803 74.4619 146.674 74.1709C146.544 73.8798 146.371 73.6328 146.155 73.4212C145.939 73.2095 145.688 73.0419 145.402 72.9272C145.117 72.8126 144.814 72.7508 144.494 72.7508C144.174 72.7508 143.872 72.8126 143.586 72.9272C143.301 73.0419 143.05 73.2095 142.834 73.4212C142.618 73.6328 142.445 73.8798 142.324 74.1709C142.194 74.4531 142.134 74.7707 142.134 75.1147ZM139.86 75.1147C139.86 74.4796 139.972 73.8886 140.205 73.3418C140.439 72.7949 140.75 72.3186 141.165 71.9041C141.572 71.4983 142.056 71.1808 142.627 70.9515C143.197 70.7221 143.82 70.6075 144.503 70.6075C145.186 70.6075 145.8 70.7221 146.371 70.9515C146.942 71.1808 147.434 71.4983 147.841 71.9041C148.256 72.3098 148.576 72.7949 148.801 73.3418C149.034 73.8886 149.147 74.4796 149.147 75.1147C149.147 75.7497 149.034 76.3407 148.801 76.8875C148.576 77.4344 148.256 77.9107 147.841 78.3164C147.426 78.7221 146.942 79.0485 146.371 79.2778C145.8 79.5072 145.178 79.6218 144.503 79.6218C143.829 79.6218 143.197 79.5072 142.627 79.2778C142.065 79.0485 141.572 78.731 141.165 78.3164C140.759 77.9107 140.439 77.4344 140.205 76.8875C139.981 76.3407 139.86 75.7497 139.86 75.1147Z" fill="#00587E"/>
<path d="M152.692 70.8456V75.4939C152.692 75.7409 152.701 75.9967 152.718 76.2613C152.735 76.5259 152.796 76.7552 152.882 76.9669C152.969 77.1786 153.124 77.3462 153.323 77.4785C153.522 77.6108 153.807 77.6725 154.171 77.6725C154.534 77.6725 154.811 77.6108 155.009 77.4785C155.208 77.3462 155.355 77.1786 155.45 76.9669C155.546 76.7552 155.606 76.5171 155.623 76.2613C155.641 76.0055 155.649 75.7497 155.649 75.4939V70.8456H157.82V75.7938C157.82 77.1257 157.517 78.0959 156.929 78.7045C156.332 79.3131 155.416 79.6218 154.179 79.6218C152.943 79.6218 152.026 79.3131 151.429 78.7045C150.833 78.0959 150.53 77.1257 150.53 75.7938V70.8456H152.709H152.692Z" fill="#00587E"/>
<path d="M161.823 74.7707H162.541C163.337 74.7707 163.743 74.4179 163.743 73.7034C163.743 72.989 163.345 72.6362 162.541 72.6362H161.823V74.7707ZM161.823 79.3925H159.644V70.8456H163.112C164.054 70.8456 164.772 71.0926 165.274 71.5954C165.775 72.0981 166.026 72.7949 166.026 73.7034C166.026 74.6119 165.775 75.3087 165.274 75.8115C164.772 76.3142 164.054 76.5612 163.112 76.5612H161.823V79.3925Z" fill="#00587E"/>
<path d="M17.277 65.6505C17.3376 65.183 17.3808 64.7067 17.4067 64.2128C17.4067 64.2128 17.4067 64.2128 17.4067 64.204V64.1687L17.4154 63.957C17.4154 63.5424 17.424 63.1455 17.424 62.7574C17.4154 62.2899 17.3808 61.8225 17.3289 61.3726C17.3203 61.258 17.2943 61.1433 17.277 61.0286C17.2338 60.7023 17.1906 60.3671 17.1214 60.0496C17.0868 59.8996 17.0522 59.7497 17.0176 59.5998C16.9571 59.3263 16.8879 59.0529 16.8101 58.7795C16.7582 58.6119 16.7063 58.4531 16.6458 58.2855C16.5593 58.0386 16.4815 57.7916 16.3864 57.5535C16.3172 57.3859 16.248 57.2183 16.1702 57.0595C16.0664 56.8302 15.9627 56.6097 15.8502 56.3892C15.7638 56.2216 15.6773 56.0628 15.5822 55.8952C15.4611 55.6836 15.3401 55.4719 15.2017 55.269C15.0979 55.1102 14.9942 54.9515 14.8818 54.7927C14.7434 54.5898 14.5964 54.3958 14.4407 54.2017C14.3197 54.0518 14.1986 53.9019 14.0776 53.7519C14.017 53.6813 13.9479 53.6108 13.8873 53.5402V73.5976C13.9479 73.5358 14.0084 73.4741 14.0603 73.4035C14.1813 73.2624 14.2937 73.1213 14.4062 72.9713C14.5532 72.7773 14.6915 72.592 14.8299 72.3892C14.9336 72.2392 15.0374 72.0805 15.1325 71.9305C15.2622 71.7277 15.3833 71.516 15.5044 71.3043C15.5908 71.1455 15.6859 70.9779 15.7638 70.8103C15.8762 70.5898 15.9713 70.3693 16.0751 70.14C16.1529 69.9724 16.2221 69.8048 16.2912 69.6284C16.3864 69.3903 16.4642 69.1521 16.5507 68.9052C16.6112 68.7288 16.6717 68.5523 16.7236 68.3759C16.8014 68.1202 16.862 67.8467 16.9225 67.5821C16.9657 67.4057 17.009 67.2293 17.0522 67.0529C17.1127 66.753 17.156 66.4443 17.2078 66.1356C17.2338 65.9768 17.2597 65.8269 17.2857 65.6681" fill="#00587E"/>
<path d="M14.8126 74.8148C14.9164 74.6295 15.0115 74.4355 15.1066 74.2415C15.2363 73.9768 15.366 73.6946 15.4871 73.4123C15.5736 73.2183 15.66 73.0243 15.7379 72.8214C15.8589 72.5127 15.9713 72.204 16.0751 71.8864C16.1356 71.7012 16.2048 71.516 16.2653 71.3219C16.2826 71.2778 16.2913 71.2337 16.2999 71.1896C16.2999 71.2073 16.2826 71.2161 16.274 71.2337C15.9973 71.7806 15.6773 72.2922 15.3314 72.7949C15.245 72.9184 15.1499 73.0419 15.0634 73.1566C14.7348 73.6064 14.3803 74.0298 13.9911 74.4355C13.9479 74.4796 13.922 74.5237 13.8787 74.5678V76.3495C13.9306 76.2701 13.9911 76.1996 14.0344 76.1202C14.1468 75.9438 14.2592 75.7585 14.3716 75.5821C14.5186 75.3352 14.6656 75.0794 14.804 74.8236" fill="#00587E"/>
<path d="M13.8787 77.4962V83.0088C14.6397 82.365 16.421 79.8953 17.1214 70.6693C17.0868 70.8016 17.0349 70.9339 17.0003 71.0662C16.8879 71.4543 16.7755 71.8335 16.6458 72.204C16.568 72.4333 16.4815 72.6626 16.395 72.892C16.2567 73.2448 16.1183 73.5888 15.9627 73.9239C15.8676 74.1444 15.7724 74.3561 15.6687 74.5678C15.5044 74.903 15.3228 75.2293 15.1412 75.5469C15.0374 75.7409 14.9337 75.935 14.8126 76.1202C14.5878 76.4818 14.3543 76.8258 14.1035 77.161C14.0257 77.2756 13.9565 77.3903 13.8701 77.505L13.8787 77.4962Z" fill="#00587E"/>
<path d="M13.8787 52.5347C14.1727 52.8435 14.4494 53.1522 14.7088 53.4697C14.778 53.5491 14.8299 53.6373 14.8991 53.7167C15.1066 53.9813 15.3055 54.2459 15.4957 54.5193C15.5822 54.6428 15.66 54.7751 15.7378 54.8986C15.8935 55.1367 16.0405 55.3837 16.1789 55.6395C16.2567 55.7718 16.3259 55.9129 16.4037 56.054C16.4383 56.1246 16.4815 56.1952 16.5247 56.2745C16.4902 56.1599 16.4642 56.0452 16.4296 55.9306C16.3518 55.6748 16.274 55.419 16.1875 55.1632C16.0924 54.8809 15.9973 54.6075 15.8849 54.3341C15.7897 54.0871 15.6946 53.8401 15.5908 53.602C15.4784 53.3374 15.3574 53.0728 15.2277 52.8082C15.1153 52.57 15.0028 52.3319 14.8731 52.1026C14.7348 51.8468 14.5964 51.591 14.4494 51.344C14.3197 51.1147 14.19 50.8942 14.043 50.6737C13.9825 50.5855 13.9219 50.4973 13.8701 50.4091V52.5436L13.8787 52.5347Z" fill="#00587E"/>
<path d="M6.02709 52.032C6.02709 51.8644 6.02709 51.688 6.02709 51.5292C6.02709 51.1764 6.02709 50.8501 6.02709 50.5149C6.02709 50.2591 6.02709 49.9945 6.02709 49.7475C6.02709 49.527 6.02709 49.3242 6.02709 49.1125C6.02709 48.8479 6.02709 48.5656 6.02709 48.3186C3.29458 47.2602 0.882013 46.8457 0 46.7222V79.2602C0.804188 79.2426 3.27728 79.1367 6.08762 78.3076C6.06168 72.398 6.01844 63.1455 6.01844 55.6218V55.3925C6.01844 54.8898 6.01844 54.3958 6.01844 53.9107C6.01844 53.7343 6.01844 53.5491 6.01844 53.3727C6.01844 52.914 6.01844 52.473 6.01844 52.032" fill="#00587E"/>
<path d="M14.8645 50.7266C14.9769 50.9206 15.0807 51.1147 15.1931 51.3087C15.3833 51.6527 15.5736 51.9967 15.7465 52.3495C15.8503 52.57 15.954 52.7993 16.0492 53.0287C16.1962 53.3638 16.3432 53.7078 16.4815 54.0606C16.5766 54.2988 16.6631 54.5458 16.7409 54.7927C16.862 55.1455 16.9744 55.4983 17.0782 55.86C17.1214 56.0011 17.1733 56.1246 17.2079 56.2657C16.6026 47.6659 14.778 44.2084 13.8787 43V49.2183C13.9565 49.3241 14.0171 49.4388 14.0863 49.5447C14.3543 49.9327 14.6224 50.3208 14.8645 50.7266Z" fill="#00587E"/>
<path d="M13.2388 49.4476C10.7398 46.0606 7.81701 44.3319 6.74475 43.7762C6.71881 44.473 6.70152 45.849 6.69287 47.8776C7.35006 48.1422 7.9813 48.4333 8.59525 48.742C8.68172 48.7861 8.75955 48.839 8.84602 48.8831C9.39079 49.1654 9.91827 49.4653 10.4198 49.774C10.6187 49.8975 10.8003 50.0386 10.9992 50.1709C11.3624 50.4179 11.7255 50.6736 12.0714 50.9383C12.2703 51.097 12.4605 51.2646 12.6594 51.4322C12.8497 51.591 13.0572 51.7497 13.2388 51.9173V49.4476Z" fill="#00587E"/>
<path d="M11.0079 76.8346C10.8176 76.9493 10.636 77.0816 10.4371 77.1962C9.92695 77.4873 9.39083 77.7519 8.83741 77.9989C8.76823 78.0342 8.69905 78.0694 8.62988 78.1047C8.03322 78.3605 7.41062 78.5898 6.76208 78.8015L6.77938 81.9945C7.81704 81.6593 10.7484 80.4686 13.2475 77.2668V75.194C13.0659 75.3616 12.8583 75.5027 12.6681 75.6615C12.4779 75.8203 12.2876 75.979 12.0888 76.129C11.7515 76.3848 11.3883 76.6141 11.0165 76.8434" fill="#00587E"/>
<path d="M13.2388 52.817C12.8237 52.4024 12.3914 52.0055 11.9158 51.6262C11.8898 51.6086 11.8726 51.5821 11.8466 51.5645C11.3451 51.1676 10.8176 50.7883 10.2555 50.4267C10.0566 50.3032 9.84047 50.1885 9.64158 50.065C9.25246 49.8357 8.86333 49.6064 8.45692 49.3947C8.1975 49.2624 7.92079 49.1389 7.64408 49.0154C7.33278 48.8743 7.02148 48.7243 6.70154 48.592C6.70154 48.9184 6.70154 49.2447 6.70154 49.5887V49.721C6.6756 57.9151 6.73613 71.7718 6.77071 78.0783C7.1166 77.9636 7.4452 77.8401 7.77379 77.7078C8.01591 77.6108 8.27532 77.5226 8.5088 77.4256C8.93251 77.2403 9.33893 77.0286 9.7367 76.817C9.92694 76.7199 10.1258 76.6317 10.2988 76.5259C10.8608 76.1995 11.397 75.8467 11.8985 75.4586C11.9504 75.4234 11.985 75.3793 12.0368 75.3352C12.4692 75 12.8756 74.6383 13.2561 74.2679V52.817H13.2388Z" fill="#00587E"/>
<path d="M26.6592 77.9989C26.1058 77.7519 25.5697 77.4873 25.0595 77.1963C24.8606 77.0816 24.679 76.9581 24.4888 76.8346C24.1256 76.6053 23.7624 76.376 23.4165 76.1202C23.2177 75.9702 23.0274 75.8115 22.8372 75.6527C22.6469 75.494 22.4394 75.3528 22.2578 75.1852V77.258C24.7655 80.4686 27.6882 81.6417 28.7259 81.9857L28.7432 78.7927C28.0947 78.5899 27.4721 78.3517 26.8754 78.0959C26.7976 78.0607 26.7371 78.0254 26.6679 77.9901" fill="#00587E"/>
<path d="M28.821 53.161V52.8434C28.821 52.3583 28.821 51.882 28.821 51.4234C28.821 51.2911 28.821 51.1588 28.821 51.0265C28.821 50.5943 28.821 50.1621 28.821 49.7563C28.821 49.624 28.821 49.5006 28.821 49.3683C28.821 49.1036 28.821 48.8567 28.821 48.6009C28.4924 48.7332 28.1811 48.8831 27.8698 49.0331C27.6018 49.1566 27.3251 49.2712 27.0656 49.4035C26.6419 49.6152 26.2528 49.8534 25.8637 50.0827C25.6648 50.1974 25.4573 50.312 25.267 50.4267C24.6963 50.7883 24.1602 51.1764 23.65 51.5821C23.6327 51.5998 23.6241 51.6086 23.6068 51.6262C23.1312 52.0055 22.6988 52.4024 22.2838 52.817V74.2767C22.6642 74.656 23.0706 75.0088 23.503 75.344C23.5549 75.3793 23.5895 75.4234 23.6414 75.4675C24.1429 75.8468 24.679 76.1996 25.2411 76.5347C25.4227 76.6406 25.6216 76.7288 25.8118 76.8258C26.2096 77.0375 26.6073 77.2492 27.0311 77.4344C27.2732 77.5403 27.5326 77.6285 27.7747 77.7255C28.1033 77.849 28.4319 77.9813 28.7691 78.0871C28.8037 71.4984 28.847 60.9405 28.8383 53.161" fill="#00587E"/>
<path d="M29.4696 56.2128C29.4696 56.5479 29.4696 56.8831 29.4696 57.2183C29.4696 57.7651 29.4696 58.3208 29.4696 58.8765V59.0529C29.4609 66.0562 29.4263 73.624 29.4004 77.9107C29.4004 78.043 29.4004 78.1753 29.4004 78.3076C32.2021 79.1367 34.6752 79.2425 35.4794 79.2602V46.731C34.5973 46.8544 32.1934 47.269 29.4609 48.3274C29.4609 48.742 29.4609 49.1918 29.4609 49.6417V49.7122C29.4609 51.344 29.4609 53.205 29.4609 55.1984C29.4609 55.5336 29.4609 55.8776 29.4609 56.2128" fill="#00587E"/>
<path d="M24.5061 50.1621C24.6963 50.0298 24.8779 49.8975 25.0855 49.774C25.5784 49.4653 26.1058 49.1742 26.642 48.892C26.7371 48.8478 26.8149 48.7861 26.91 48.742C27.5153 48.4333 28.1466 48.151 28.8124 47.8776C28.8037 45.849 28.7865 44.4818 28.7605 43.7762C27.6883 44.3319 24.7655 46.0606 22.2665 49.4388V51.8997C22.4481 51.7321 22.6556 51.5733 22.8458 51.4146C23.0361 51.247 23.2263 51.0794 23.4338 50.9294C23.7711 50.6648 24.1343 50.409 24.5061 50.1621Z" fill="#00587E"/>
<path d="M20.6754 76.1114C20.563 75.9261 20.4592 75.7321 20.3554 75.5469C20.1738 75.2293 19.9922 74.903 19.828 74.5678C19.7242 74.3561 19.6291 74.1356 19.5253 73.9151C19.3783 73.5888 19.2399 73.2536 19.1016 72.9096C19.0151 72.6715 18.9286 72.4333 18.8422 72.1952C18.7211 71.8423 18.6087 71.4895 18.5049 71.1191C18.4617 70.978 18.4098 70.8368 18.3666 70.6869C19.067 79.8776 20.8397 82.3561 21.6093 83.0088V77.505C21.5228 77.3991 21.4536 77.2756 21.3758 77.161C21.1337 76.8258 20.8916 76.4818 20.6667 76.1202" fill="#00587E"/>
<path d="M21.618 74.5678C21.618 74.5678 21.5488 74.4796 21.5142 74.4355C21.1251 74.0298 20.7705 73.5976 20.4419 73.1477C20.3555 73.0331 20.269 72.9184 20.1825 72.7949C19.8366 72.2922 19.5081 71.7718 19.2313 71.2161C19.2313 71.2073 19.2227 71.1985 19.2141 71.1896C19.2313 71.2337 19.24 71.2867 19.2486 71.3308C19.3005 71.4983 19.3611 71.6659 19.4216 71.8335C19.534 72.1687 19.6551 72.5039 19.7761 72.8302C19.8539 73.0243 19.9318 73.2007 20.0096 73.3947C20.1307 73.6858 20.2604 73.968 20.3987 74.2503C20.4938 74.4443 20.589 74.6295 20.6927 74.8148C20.8311 75.0706 20.9781 75.3264 21.1251 75.5733C21.2375 75.7585 21.3499 75.9438 21.4623 76.1202C21.5142 76.1996 21.5661 76.2701 21.618 76.3495V74.5678Z" fill="#00587E"/>
<path d="M21.6179 52.5347V50.4002C21.5574 50.4884 21.4969 50.5766 21.4363 50.6648C21.298 50.8853 21.1683 51.1058 21.0386 51.3263C20.8916 51.5821 20.7446 51.8379 20.6149 52.0937C20.4938 52.323 20.3814 52.5524 20.269 52.7905C20.1479 53.0551 20.0182 53.3197 19.9058 53.5932C19.802 53.8313 19.7069 54.0783 19.6118 54.3252C19.508 54.5987 19.4043 54.8721 19.3178 55.1543C19.2313 55.4101 19.1535 55.6659 19.0757 55.9305C19.0411 56.0364 19.0151 56.151 18.9892 56.2657C19.0238 56.1951 19.067 56.1246 19.1103 56.0452C19.1794 55.9041 19.2573 55.7718 19.3351 55.6306C19.4734 55.3837 19.6204 55.1367 19.7761 54.8897C19.8539 54.7662 19.9317 54.6339 20.0182 54.5105C20.2084 54.237 20.4073 53.9636 20.6235 53.699C20.684 53.6196 20.7446 53.5402 20.8051 53.4608C21.0645 53.1433 21.3412 52.8258 21.6352 52.5259L21.6179 52.5347Z" fill="#00587E"/>
<path d="M21.6179 49.2183V43C20.7186 44.2084 18.8941 47.6659 18.2888 56.2745C18.3233 56.1334 18.3752 56.0011 18.4185 55.86C18.5222 55.5072 18.626 55.1544 18.7471 54.8104C18.8335 54.5634 18.92 54.3076 19.0151 54.0606C19.1448 53.7166 19.2918 53.3727 19.4388 53.0375C19.5426 52.8082 19.6377 52.5788 19.7501 52.3495C19.9231 51.9967 20.1133 51.6527 20.3036 51.3087C20.416 51.1147 20.5111 50.9118 20.6321 50.7178C20.8743 50.312 21.1337 49.9239 21.4104 49.5358C21.4882 49.43 21.5487 49.3153 21.6266 49.2095L21.6179 49.2183Z" fill="#00587E"/>
<path d="M21.6179 53.5226C21.5574 53.5931 21.4882 53.6637 21.4277 53.7343C21.298 53.8842 21.1769 54.0342 21.0645 54.1841C20.9089 54.3782 20.7705 54.5722 20.6322 54.7751C20.5197 54.9338 20.416 55.0926 20.3122 55.2514C20.1825 55.4542 20.0614 55.6659 19.9404 55.8688C19.8453 56.0364 19.7501 56.2039 19.6637 56.3715C19.5513 56.5832 19.4561 56.8037 19.3524 57.0242C19.2746 57.1918 19.1967 57.3682 19.1275 57.5446C19.0324 57.774 18.9546 58.0121 18.8768 58.2414C18.8162 58.4178 18.7557 58.5854 18.7038 58.7707C18.626 59.0176 18.5655 59.2734 18.5049 59.5292C18.4617 59.6968 18.4185 59.8732 18.3839 60.0408C18.3234 60.3318 18.2888 60.6229 18.2455 60.9228C18.2282 61.0727 18.1937 61.2139 18.1764 61.3638C18.1245 61.8137 18.0985 62.2723 18.0812 62.7398C18.0812 63.1279 18.0812 63.5248 18.0899 63.9305V64.151C18.1072 64.3451 18.1331 64.5303 18.1504 64.7243C18.1764 65.0154 18.1937 65.3153 18.2282 65.5976C18.2628 65.8445 18.3061 66.0827 18.3407 66.3296C18.3752 66.5501 18.4098 66.7707 18.4531 66.9823C18.4963 67.2205 18.5568 67.441 18.6174 67.6703C18.6692 67.882 18.7211 68.1025 18.7817 68.3142C18.8422 68.5259 18.9114 68.7288 18.9892 68.9404C19.0584 69.1521 19.1362 69.3726 19.214 69.5755C19.2918 69.7696 19.3697 69.9548 19.4561 70.14C19.5513 70.3517 19.6464 70.5634 19.7501 70.7662C19.8366 70.9427 19.9317 71.1102 20.0269 71.2866C20.1393 71.4895 20.2603 71.6924 20.3814 71.8952C20.4765 72.054 20.5803 72.2128 20.6927 72.3627C20.831 72.5568 20.9694 72.7508 21.1164 72.936C21.2288 73.086 21.3412 73.2271 21.4623 73.3682C21.5142 73.43 21.5833 73.4917 21.6352 73.5623V53.5226H21.6179Z" fill="#00587E"/>
<line x1="178.911" y1="45.9719" x2="178.911" y2="79.9719" stroke="#00587E"/>
<defs>
<clipPath id="clip0_301_268">
<rect width="292.11" height="40.01" fill="white"/>
</clipPath>
</defs>
</svg>
