<svg width="162" height="86" viewBox="0 0 162 86" fill="none" xmlns="http://www.w3.org/2000/svg">
<g clip-path="url(#clip0_305_290)">
<path d="M68.42 4.63H61.34V17.97H63.94V12.09H68.14V9.85H63.94V6.87H68.42V4.63V4.63ZM71.06 4.63V17.97H73.66V4.63H71.06ZM79.7 17.97V9.05L87.82 17.97H89.62V4.63H87.02V13.53L78.9 4.63H77.1V17.97H79.7ZM102.15 17.97H104.95L99.37 4.63H97.33L91.59 17.97H94.41L95.59 15.17H100.97L102.15 17.97ZM96.41 13.05L98.31 8.25L100.21 13.05H96.41V13.05ZM109.51 17.97V9.05L117.63 17.97H119.43V4.63H116.83V13.53L108.71 4.63H106.91V17.97H109.51ZM132.56 14.45C131.78 15.37 130.68 15.91 129.44 15.91C127.2 15.91 124.92 14.31 124.92 11.35C124.92 8.89 126.66 6.69 129.34 6.69C129.82 6.69 131.34 6.79 132.56 8.19V5.15C131.34 4.49 130.22 4.33 129.28 4.33C127.38 4.33 125.72 4.83 124.38 6.09C123.24 7.15 122.24 8.89 122.24 11.31C122.24 13.27 122.84 14.93 124.38 16.41C125.5 17.47 126.92 18.27 129.26 18.27C130.7 18.27 131.76 17.91 132.56 17.49V14.45ZM135.35 4.63V17.97H137.95V4.63H135.35V4.63ZM150.47 17.97H153.27L147.69 4.63H145.65L139.91 17.97H142.73L143.91 15.17H149.29L150.47 17.97ZM144.73 13.05L146.63 8.25L148.53 13.05H144.73V13.05ZM155.23 4.63V17.97H161.95V15.73H157.83V4.63H155.23V4.63ZM70.42 36.97H73.22L67.64 23.63H65.6L59.86 36.97H62.68L63.86 34.17H69.24L70.42 36.97ZM64.68 32.05L66.58 27.25L68.48 32.05H64.68V32.05ZM75.18 23.63V36.97H78.62C80.48 36.97 81.94 36.79 83.5 35.69C85.26 34.45 86.18 32.53 86.18 30.31C86.18 28.09 85.24 26.15 83.62 24.93C82.14 23.83 80.52 23.63 78.66 23.63H75.18V23.63ZM77.78 25.87H78.58C79.46 25.87 80.78 25.95 81.86 26.75C82.92 27.55 83.5 28.91 83.5 30.31C83.5 31.71 82.9 33.09 81.84 33.85C80.68 34.69 79.24 34.73 78.58 34.73H77.78V25.87ZM87.3 23.63L92.9 36.97H94.46L100.1 23.63H97.26L93.7 32.59L90.14 23.63H87.3V23.63ZM102.05 23.63V36.97H104.65V23.63H102.05V23.63ZM116.01 24.89C114.65 23.49 113.07 23.33 112.23 23.33C109.27 23.33 107.95 25.29 107.95 27.25C107.95 28.61 108.57 29.35 109.01 29.73C109.69 30.33 110.53 30.65 111.23 30.89C111.99 31.15 112.79 31.41 113.29 31.87C113.65 32.21 113.81 32.59 113.81 33.07C113.81 34.19 112.93 34.91 111.75 34.91C110.81 34.91 109.59 34.43 108.95 33.13L107.25 34.75C107.95 35.77 109.39 37.27 111.85 37.27C114.61 37.27 116.49 35.49 116.49 32.89C116.49 31.53 115.95 30.63 115.35 30.09C114.67 29.47 113.69 29.11 112.65 28.75C111.81 28.45 111.37 28.29 111.05 27.99C110.73 27.71 110.63 27.41 110.63 27.09C110.63 26.41 111.07 25.53 112.47 25.53C112.95 25.53 113.87 25.63 114.65 26.67L116.01 24.89V24.89ZM126.57 23.63H119.17V36.97H126.57V34.73H121.77V31.09H126.37V28.85H121.77V25.87H126.57V23.63ZM129.49 23.63V36.97H132.09V31.61H132.41L135.97 36.97H139.21L135.05 31.35C135.69 31.23 136.17 31.01 136.51 30.77C137.55 30.07 138.07 28.93 138.07 27.63C138.07 26.63 137.77 25.49 136.75 24.63C136.13 24.11 135.19 23.63 133.35 23.63H129.49V23.63ZM132.09 25.75H132.87C133.35 25.75 135.39 25.77 135.39 27.75C135.39 29.73 133.33 29.77 132.83 29.77H132.09V25.75ZM149.29 24.89C147.93 23.49 146.35 23.33 145.51 23.33C142.55 23.33 141.23 25.29 141.23 27.25C141.23 28.61 141.85 29.35 142.29 29.73C142.97 30.33 143.81 30.65 144.51 30.89C145.27 31.15 146.07 31.41 146.57 31.87C146.93 32.21 147.09 32.59 147.09 33.07C147.09 34.19 146.21 34.91 145.03 34.91C144.09 34.91 142.87 34.43 142.23 33.13L140.53 34.75C141.23 35.77 142.67 37.27 145.13 37.27C147.89 37.27 149.77 35.49 149.77 32.89C149.77 31.53 149.23 30.63 148.63 30.09C147.95 29.47 146.97 29.11 145.93 28.75C145.09 28.45 144.65 28.29 144.33 27.99C144.01 27.71 143.91 27.41 143.91 27.09C143.91 26.41 144.35 25.53 145.75 25.53C146.23 25.53 147.15 25.63 147.93 26.67L149.29 24.89V24.89Z" fill="#9FD3A8"/>
<path d="M17.28 22.65C17.34 22.18 17.38 21.71 17.41 21.21V20.95C17.41 20.54 17.43 20.14 17.43 19.75C17.43 19.28 17.39 18.82 17.33 18.37C17.33 18.26 17.3 18.14 17.28 18.03C17.24 17.7 17.19 17.37 17.12 17.05C17.09 16.9 17.05 16.75 17.02 16.6C16.96 16.33 16.89 16.05 16.81 15.78C16.76 15.61 16.71 15.45 16.65 15.29C16.56 15.04 16.49 14.8 16.39 14.56C16.32 14.39 16.25 14.22 16.17 14.07C16.07 13.84 15.96 13.62 15.85 13.4C15.76 13.23 15.68 13.07 15.58 12.91C15.46 12.7 15.34 12.49 15.2 12.28C15.1 12.12 14.99 11.96 14.88 11.8C14.74 11.6 14.59 11.4 14.44 11.21C14.32 11.06 14.2 10.91 14.08 10.76C14.02 10.69 13.95 10.62 13.89 10.55V30.6C13.95 30.54 14.01 30.48 14.06 30.41C14.18 30.27 14.29 30.13 14.41 29.98C14.56 29.79 14.7 29.6 14.83 29.4C14.93 29.25 15.04 29.09 15.13 28.94C15.26 28.74 15.38 28.53 15.5 28.31C15.59 28.15 15.68 27.98 15.76 27.82C15.87 27.6 15.97 27.38 16.07 27.15C16.15 26.98 16.22 26.81 16.29 26.64C16.39 26.4 16.46 26.16 16.55 25.92C16.61 25.74 16.67 25.57 16.72 25.39C16.8 25.13 16.86 24.86 16.92 24.6C16.96 24.42 17.01 24.25 17.05 24.07C17.11 23.77 17.15 23.46 17.21 23.15C17.24 22.99 17.26 22.84 17.29 22.68" fill="#00587E"/>
<path d="M14.81 31.81C14.91 31.62 15.01 31.43 15.1 31.24C15.23 30.98 15.36 30.69 15.48 30.41C15.57 30.22 15.65 30.02 15.73 29.82C15.85 29.51 15.96 29.2 16.07 28.89C16.13 28.7 16.2 28.52 16.26 28.33C16.28 28.29 16.29 28.24 16.29 28.2C16.29 28.22 16.27 28.23 16.26 28.24C15.98 28.79 15.66 29.3 15.32 29.8C15.23 29.92 15.14 30.05 15.05 30.16C14.72 30.61 14.37 31.03 13.98 31.44C13.94 31.48 13.91 31.53 13.87 31.57V33.35C13.92 33.27 13.98 33.2 14.03 33.12C14.14 32.94 14.25 32.76 14.37 32.58C14.52 32.33 14.66 32.08 14.8 31.82" fill="#00587E"/>
<path d="M13.88 34.5V40.01C14.64 39.37 16.42 36.9 17.12 27.67C17.09 27.8 17.03 27.93 17 28.07C16.89 28.46 16.78 28.84 16.65 29.21C16.57 29.44 16.49 29.67 16.4 29.9C16.26 30.25 16.12 30.6 15.97 30.93C15.87 31.15 15.78 31.36 15.68 31.57C15.52 31.91 15.33 32.23 15.15 32.55C15.05 32.74 14.94 32.94 14.82 33.12C14.6 33.48 14.36 33.83 14.11 34.16C14.03 34.27 13.96 34.39 13.88 34.5V34.5Z" fill="#00587E"/>
<path d="M13.88 9.52999C14.17 9.83999 14.45 10.15 14.71 10.46C14.78 10.54 14.83 10.63 14.9 10.71C15.11 10.97 15.31 11.24 15.5 11.51C15.59 11.63 15.66 11.77 15.74 11.89C15.9 12.13 16.04 12.38 16.18 12.63C16.26 12.76 16.33 12.9 16.4 13.04C16.43 13.11 16.48 13.18 16.52 13.26C16.49 13.15 16.46 13.03 16.42 12.92C16.34 12.66 16.26 12.41 16.18 12.15C16.08 11.87 15.99 11.59 15.88 11.32C15.78 11.07 15.69 10.83 15.59 10.59C15.48 10.33 15.36 10.06 15.23 9.79999C15.12 9.55999 15.01 9.31999 14.88 9.08999C14.74 8.82999 14.6 8.57999 14.46 8.32999C14.33 8.09999 14.2 7.87999 14.05 7.65999C13.99 7.56999 13.93 7.47999 13.88 7.39999V9.52999V9.52999Z" fill="#00587E"/>
<path d="M6.03 9.03V5.32C3.29 4.26 0.88 3.85 0 3.72V36.26C0.8 36.24 3.28 36.14 6.09 35.31C6.06 29.4 6.02 20.15 6.02 12.62V9.03" fill="#00587E"/>
<path d="M14.86 7.73C14.97 7.92 15.08 8.12 15.19 8.31C15.38 8.65 15.57 9 15.74 9.35C15.84 9.57 15.95 9.8 16.04 10.03C16.19 10.37 16.33 10.71 16.47 11.06C16.57 11.3 16.65 11.55 16.73 11.79C16.85 12.14 16.96 12.5 17.07 12.86C17.11 13 17.17 13.12 17.2 13.27C16.59 4.67 14.77 1.21 13.87 0V6.22C13.95 6.33 14.01 6.44 14.08 6.55C14.35 6.94 14.62 7.33 14.86 7.73V7.73Z" fill="#00587E"/>
<path d="M13.2399 6.45C10.7399 3.06 7.81994 1.33 6.73994 0.779999C6.70994 1.48 6.69994 2.85 6.68994 4.88C7.34994 5.14 7.97994 5.44 8.58994 5.74C8.67994 5.78 8.74994 5.84 8.83994 5.88C9.37994 6.16 9.90994 6.46 10.4099 6.77C10.6099 6.89 10.7899 7.03 10.9899 7.17C11.3499 7.42 11.7199 7.67 12.0599 7.94C12.2599 8.1 12.4499 8.27 12.6499 8.43C12.8399 8.59 13.0499 8.75 13.2299 8.92V6.45H13.2399Z" fill="#00587E"/>
<path d="M11.01 33.83C10.82 33.94 10.64 34.08 10.44 34.19C9.93001 34.48 9.39001 34.75 8.84001 34.99C8.77001 35.03 8.70001 35.06 8.63001 35.1C8.03001 35.36 7.41001 35.59 6.76001 35.8L6.78001 38.99C7.82001 38.65 10.75 37.46 13.25 34.26V32.19C13.07 32.36 12.86 32.5 12.67 32.66C12.48 32.82 12.29 32.98 12.09 33.13C11.75 33.39 11.39 33.62 11.02 33.84" fill="#00587E"/>
<path d="M13.24 9.82001C12.82 9.41001 12.39 9.01001 11.92 8.63001C11.89 8.61001 11.88 8.59001 11.85 8.57001C11.35 8.17001 10.82 7.79001 10.26 7.43001C10.06 7.31001 9.84002 7.19001 9.65002 7.07001C9.26002 6.84001 8.87002 6.61001 8.47002 6.40001C8.21002 6.27001 7.93002 6.14001 7.66002 6.02001C7.35002 5.88001 7.04002 5.73001 6.72002 5.60001V6.73001C6.69002 14.92 6.75002 28.78 6.79002 35.09C7.14002 34.98 7.46002 34.85 7.79002 34.72C8.03002 34.62 8.29002 34.53 8.53002 34.44C8.95002 34.25 9.36002 34.04 9.76002 33.83C9.95002 33.73 10.15 33.64 10.32 33.54C10.88 33.21 11.42 32.86 11.92 32.47C11.97 32.43 12.01 32.39 12.06 32.35C12.49 32.01 12.9 31.65 13.28 31.28V9.82001H13.26H13.24Z" fill="#00587E"/>
<path d="M26.66 35C26.11 34.75 25.57 34.49 25.06 34.2C24.86 34.09 24.68 33.96 24.49 33.84C24.13 33.61 23.76 33.38 23.42 33.13C23.22 32.98 23.03 32.82 22.84 32.66C22.65 32.5 22.44 32.36 22.26 32.19V34.26C24.77 37.47 27.69 38.64 28.73 38.99L28.75 35.8C28.1 35.6 27.48 35.36 26.88 35.1C26.8 35.06 26.74 35.03 26.67 34.99" fill="#00587E"/>
<path d="M28.82 10.16V5.60001C28.49 5.73001 28.18 5.88001 27.87 6.03001C27.6 6.15001 27.33 6.27001 27.07 6.40001C26.65 6.61001 26.26 6.85001 25.87 7.08001C25.67 7.19001 25.46 7.31001 25.27 7.42001C24.7 7.78001 24.16 8.17001 23.65 8.58001C23.63 8.60001 23.62 8.61001 23.61 8.62001C23.13 9.00001 22.7 9.40001 22.29 9.81001V31.28C22.67 31.66 23.08 32.01 23.51 32.35C23.56 32.39 23.6 32.43 23.65 32.47C24.15 32.85 24.69 33.2 25.25 33.54C25.43 33.65 25.63 33.73 25.82 33.83C26.22 34.04 26.62 34.25 27.04 34.44C27.28 34.55 27.54 34.63 27.78 34.73C28.11 34.85 28.44 34.99 28.77 35.09C28.8 28.5 28.85 17.94 28.84 10.16" fill="#00587E"/>
<path d="M29.47 13.21V16.05C29.47 23.05 29.43 30.62 29.4 34.91V35.31C32.2 36.14 34.67 36.25 35.48 36.26V3.73C34.6 3.85 32.19 4.27 29.46 5.33V13.22" fill="#00587E"/>
<path d="M24.51 7.16C24.7 7.03 24.88 6.9 25.09 6.77C25.58 6.46 26.11 6.17 26.65 5.89C26.75 5.85 26.82 5.78 26.92 5.74C27.53 5.43 28.16 5.15 28.82 4.88C28.82 2.85 28.79 1.48 28.77 0.779999C27.7 1.34 24.77 3.06 22.28 6.44V8.9C22.46 8.73 22.67 8.57 22.86 8.41C23.05 8.24 23.24 8.07 23.45 7.92C23.79 7.66 24.15 7.4 24.52 7.15L24.51 7.16Z" fill="#00587E"/>
<path d="M20.68 33.11C20.57 32.92 20.46 32.73 20.36 32.55C20.18 32.23 20 31.91 19.83 31.57C19.73 31.36 19.63 31.14 19.53 30.92C19.38 30.59 19.24 30.26 19.11 29.91C19.02 29.67 18.94 29.43 18.85 29.2C18.73 28.85 18.62 28.49 18.51 28.12C18.47 27.98 18.41 27.84 18.37 27.69C19.07 36.88 20.84 39.36 21.61 40.01V34.51C21.52 34.4 21.45 34.28 21.38 34.17C21.14 33.83 20.9 33.49 20.67 33.13" fill="#00587E"/>
<path d="M21.62 31.57C21.62 31.57 21.55 31.48 21.52 31.44C21.13 31.03 20.78 30.6 20.45 30.15C20.36 30.04 20.28 29.92 20.19 29.8C19.84 29.3 19.52 28.78 19.24 28.22C19.24 28.22 19.24 28.2 19.22 28.19C19.24 28.23 19.25 28.29 19.25 28.33C19.3 28.5 19.36 28.67 19.42 28.83C19.53 29.17 19.65 29.5 19.77 29.83C19.85 30.02 19.93 30.2 20 30.39C20.12 30.68 20.25 30.96 20.39 31.25C20.49 31.44 20.58 31.63 20.68 31.81C20.82 32.07 20.97 32.32 21.11 32.57C21.22 32.76 21.33 32.94 21.45 33.12C21.5 33.2 21.55 33.27 21.61 33.35V31.57H21.62Z" fill="#00587E"/>
<path d="M21.62 9.52999V7.39999C21.56 7.48999 21.5 7.57999 21.44 7.65999C21.3 7.87999 21.17 8.09999 21.04 8.31999C20.89 8.57999 20.75 8.82999 20.62 9.08999C20.5 9.31999 20.39 9.54999 20.27 9.78999C20.15 10.05 20.02 10.32 19.91 10.59C19.81 10.83 19.71 11.08 19.62 11.32C19.52 11.59 19.41 11.87 19.33 12.15C19.24 12.41 19.17 12.66 19.09 12.93C19.06 13.04 19.03 13.15 19 13.27C19.03 13.2 19.08 13.13 19.12 13.05C19.19 12.91 19.27 12.78 19.34 12.64C19.48 12.39 19.63 12.15 19.78 11.9C19.86 11.78 19.94 11.64 20.02 11.52C20.21 11.25 20.41 10.97 20.63 10.71C20.69 10.63 20.75 10.55 20.81 10.47C21.07 10.15 21.35 9.82999 21.64 9.53999H21.62V9.52999Z" fill="#00587E"/>
<path d="M21.62 6.22V0C20.72 1.21 18.9 4.67 18.29 13.27C18.32 13.13 18.38 13 18.42 12.86C18.52 12.51 18.63 12.15 18.75 11.81C18.84 11.56 18.92 11.31 19.02 11.06C19.15 10.72 19.3 10.37 19.44 10.04C19.54 9.81 19.64 9.58 19.75 9.35C19.92 9 20.11 8.65 20.3 8.31C20.41 8.12 20.51 7.91 20.63 7.72C20.87 7.31 21.13 6.93 21.41 6.54C21.49 6.43 21.55 6.32 21.63 6.21L21.62 6.22Z" fill="#00587E"/>
<path d="M21.62 10.52C21.56 10.59 21.49 10.66 21.43 10.73C21.3 10.88 21.18 11.03 21.07 11.18C20.91 11.37 20.78 11.57 20.64 11.77C20.53 11.93 20.42 12.09 20.32 12.25C20.19 12.45 20.07 12.66 19.95 12.87C19.85 13.04 19.76 13.21 19.67 13.37C19.56 13.58 19.46 13.8 19.36 14.02C19.28 14.19 19.2 14.36 19.14 14.54C19.04 14.77 18.97 15.01 18.89 15.24C18.83 15.42 18.77 15.58 18.72 15.77C18.64 16.02 18.58 16.27 18.52 16.53C18.48 16.7 18.43 16.87 18.4 17.04C18.34 17.33 18.3 17.62 18.26 17.92C18.24 18.07 18.21 18.21 18.19 18.36C18.14 18.81 18.11 19.27 18.09 19.74C18.09 20.13 18.09 20.52 18.09 20.93V21.15C18.11 21.34 18.13 21.53 18.15 21.72C18.18 22.01 18.19 22.31 18.23 22.59C18.26 22.84 18.31 23.08 18.34 23.32C18.37 23.54 18.41 23.76 18.45 23.97C18.49 24.21 18.55 24.43 18.61 24.66C18.66 24.87 18.71 25.09 18.77 25.3C18.83 25.51 18.9 25.71 18.98 25.93C19.05 26.14 19.13 26.36 19.2 26.57C19.28 26.76 19.36 26.95 19.44 27.13C19.54 27.34 19.63 27.55 19.73 27.76C19.82 27.94 19.91 28.1 20.01 28.28C20.12 28.48 20.24 28.69 20.36 28.89C20.46 29.05 20.56 29.21 20.67 29.36C20.81 29.55 20.95 29.75 21.09 29.93C21.2 30.08 21.31 30.22 21.44 30.36C21.49 30.42 21.56 30.48 21.61 30.55V10.52H21.59H21.62Z" fill="#00587E"/>
<path d="M48.74 2.97V36.97" stroke="#00587E"/>
</g>
<g clip-path="url(#clip1_305_290)">
<path d="M68.42 47.63H61.34V60.97H63.94V55.09H68.14V52.85H63.94V49.87H68.42V47.63V47.63ZM71.06 47.63V60.97H73.66V47.63H71.06ZM79.7 60.97V52.05L87.82 60.97H89.62V47.63H87.02V56.53L78.9 47.63H77.1V60.97H79.7ZM102.15 60.97H104.95L99.37 47.63H97.33L91.59 60.97H94.41L95.59 58.17H100.97L102.15 60.97ZM96.41 56.05L98.31 51.25L100.21 56.05H96.41V56.05ZM109.51 60.97V52.05L117.63 60.97H119.43V47.63H116.83V56.53L108.71 47.63H106.91V60.97H109.51ZM132.56 57.45C131.78 58.37 130.68 58.91 129.44 58.91C127.2 58.91 124.92 57.31 124.92 54.35C124.92 51.89 126.66 49.69 129.34 49.69C129.82 49.69 131.34 49.79 132.56 51.19V48.15C131.34 47.49 130.22 47.33 129.28 47.33C127.38 47.33 125.72 47.83 124.38 49.09C123.24 50.15 122.24 51.89 122.24 54.31C122.24 56.27 122.84 57.93 124.38 59.41C125.5 60.47 126.92 61.27 129.26 61.27C130.7 61.27 131.76 60.91 132.56 60.49V57.45ZM135.35 47.63V60.97H137.95V47.63H135.35V47.63ZM150.47 60.97H153.27L147.69 47.63H145.65L139.91 60.97H142.73L143.91 58.17H149.29L150.47 60.97ZM144.73 56.05L146.63 51.25L148.53 56.05H144.73V56.05ZM155.23 47.63V60.97H161.95V58.73H157.83V47.63H155.23V47.63ZM70.42 79.97H73.22L67.64 66.63H65.6L59.86 79.97H62.68L63.86 77.17H69.24L70.42 79.97ZM64.68 75.05L66.58 70.25L68.48 75.05H64.68V75.05ZM75.18 66.63V79.97H78.62C80.48 79.97 81.94 79.79 83.5 78.69C85.26 77.45 86.18 75.53 86.18 73.31C86.18 71.09 85.24 69.15 83.62 67.93C82.14 66.83 80.52 66.63 78.66 66.63H75.18V66.63ZM77.78 68.87H78.58C79.46 68.87 80.78 68.95 81.86 69.75C82.92 70.55 83.5 71.91 83.5 73.31C83.5 74.71 82.9 76.09 81.84 76.85C80.68 77.69 79.24 77.73 78.58 77.73H77.78V68.87ZM87.3 66.63L92.9 79.97H94.46L100.1 66.63H97.26L93.7 75.59L90.14 66.63H87.3V66.63ZM102.05 66.63V79.97H104.65V66.63H102.05V66.63ZM116.01 67.89C114.65 66.49 113.07 66.33 112.23 66.33C109.27 66.33 107.95 68.29 107.95 70.25C107.95 71.61 108.57 72.35 109.01 72.73C109.69 73.33 110.53 73.65 111.23 73.89C111.99 74.15 112.79 74.41 113.29 74.87C113.65 75.21 113.81 75.59 113.81 76.07C113.81 77.19 112.93 77.91 111.75 77.91C110.81 77.91 109.59 77.43 108.95 76.13L107.25 77.75C107.95 78.77 109.39 80.27 111.85 80.27C114.61 80.27 116.49 78.49 116.49 75.89C116.49 74.53 115.95 73.63 115.35 73.09C114.67 72.47 113.69 72.11 112.65 71.75C111.81 71.45 111.37 71.29 111.05 70.99C110.73 70.71 110.63 70.41 110.63 70.09C110.63 69.41 111.07 68.53 112.47 68.53C112.95 68.53 113.87 68.63 114.65 69.67L116.01 67.89V67.89ZM126.57 66.63H119.17V79.97H126.57V77.73H121.77V74.09H126.37V71.85H121.77V68.87H126.57V66.63ZM129.49 66.63V79.97H132.09V74.61H132.41L135.97 79.97H139.21L135.05 74.35C135.69 74.23 136.17 74.01 136.51 73.77C137.55 73.07 138.07 71.93 138.07 70.63C138.07 69.63 137.77 68.49 136.75 67.63C136.13 67.11 135.19 66.63 133.35 66.63H129.49V66.63ZM132.09 68.75H132.87C133.35 68.75 135.39 68.77 135.39 70.75C135.39 72.73 133.33 72.77 132.83 72.77H132.09V68.75ZM149.29 67.89C147.93 66.49 146.35 66.33 145.51 66.33C142.55 66.33 141.23 68.29 141.23 70.25C141.23 71.61 141.85 72.35 142.29 72.73C142.97 73.33 143.81 73.65 144.51 73.89C145.27 74.15 146.07 74.41 146.57 74.87C146.93 75.21 147.09 75.59 147.09 76.07C147.09 77.19 146.21 77.91 145.03 77.91C144.09 77.91 142.87 77.43 142.23 76.13L140.53 77.75C141.23 78.77 142.67 80.27 145.13 80.27C147.89 80.27 149.77 78.49 149.77 75.89C149.77 74.53 149.23 73.63 148.63 73.09C147.95 72.47 146.97 72.11 145.93 71.75C145.09 71.45 144.65 71.29 144.33 70.99C144.01 70.71 143.91 70.41 143.91 70.09C143.91 69.41 144.35 68.53 145.75 68.53C146.23 68.53 147.15 68.63 147.93 69.67L149.29 67.89V67.89Z" fill="white"/>
<path d="M17.28 65.65C17.34 65.18 17.38 64.71 17.41 64.21V63.95C17.41 63.54 17.43 63.14 17.43 62.75C17.43 62.28 17.39 61.82 17.33 61.37C17.33 61.26 17.3 61.14 17.28 61.03C17.24 60.7 17.19 60.37 17.12 60.05C17.09 59.9 17.05 59.75 17.02 59.6C16.96 59.33 16.89 59.05 16.81 58.78C16.76 58.61 16.71 58.45 16.65 58.29C16.56 58.04 16.49 57.8 16.39 57.56C16.32 57.39 16.25 57.22 16.17 57.07C16.07 56.84 15.96 56.62 15.85 56.4C15.76 56.23 15.68 56.07 15.58 55.91C15.46 55.7 15.34 55.49 15.2 55.28C15.1 55.12 14.99 54.96 14.88 54.8C14.74 54.6 14.59 54.4 14.44 54.21C14.32 54.06 14.2 53.91 14.08 53.76C14.02 53.69 13.95 53.62 13.89 53.55V73.6C13.95 73.54 14.01 73.48 14.06 73.41C14.18 73.27 14.29 73.13 14.41 72.98C14.56 72.79 14.7 72.6 14.83 72.4C14.93 72.25 15.04 72.09 15.13 71.94C15.26 71.74 15.38 71.53 15.5 71.31C15.59 71.15 15.68 70.98 15.76 70.82C15.87 70.6 15.97 70.38 16.07 70.15C16.15 69.98 16.22 69.81 16.29 69.64C16.39 69.4 16.46 69.16 16.55 68.92C16.61 68.74 16.67 68.57 16.72 68.39C16.8 68.13 16.86 67.86 16.92 67.6C16.96 67.42 17.01 67.25 17.05 67.07C17.11 66.77 17.15 66.46 17.21 66.15C17.24 65.99 17.26 65.84 17.29 65.68" fill="#00587E"/>
<path d="M14.81 74.81C14.91 74.62 15.01 74.43 15.1 74.24C15.23 73.98 15.36 73.69 15.48 73.41C15.57 73.22 15.65 73.02 15.73 72.82C15.85 72.51 15.96 72.2 16.07 71.89C16.13 71.7 16.2 71.52 16.26 71.33C16.28 71.29 16.29 71.24 16.29 71.2C16.29 71.22 16.27 71.23 16.26 71.24C15.98 71.79 15.66 72.3 15.32 72.8C15.23 72.92 15.14 73.05 15.05 73.16C14.72 73.61 14.37 74.03 13.98 74.44C13.94 74.48 13.91 74.53 13.87 74.57V76.35C13.92 76.27 13.98 76.2 14.03 76.12C14.14 75.94 14.25 75.76 14.37 75.58C14.52 75.33 14.66 75.08 14.8 74.82" fill="#00587E"/>
<path d="M13.88 77.5V83.01C14.64 82.37 16.42 79.9 17.12 70.67C17.09 70.8 17.03 70.93 17 71.07C16.89 71.46 16.78 71.84 16.65 72.21C16.57 72.44 16.49 72.67 16.4 72.9C16.26 73.25 16.12 73.6 15.97 73.93C15.87 74.15 15.78 74.36 15.68 74.57C15.52 74.91 15.33 75.23 15.15 75.55C15.05 75.74 14.94 75.94 14.82 76.12C14.6 76.48 14.36 76.83 14.11 77.16C14.03 77.27 13.96 77.39 13.88 77.5V77.5Z" fill="#00587E"/>
<path d="M13.88 52.53C14.17 52.84 14.45 53.15 14.71 53.46C14.78 53.54 14.83 53.63 14.9 53.71C15.11 53.97 15.31 54.24 15.5 54.51C15.59 54.63 15.66 54.77 15.74 54.89C15.9 55.13 16.04 55.38 16.18 55.63C16.26 55.76 16.33 55.9 16.4 56.04C16.43 56.11 16.48 56.18 16.52 56.26C16.49 56.15 16.46 56.03 16.42 55.92C16.34 55.66 16.26 55.41 16.18 55.15C16.08 54.87 15.99 54.59 15.88 54.32C15.78 54.07 15.69 53.83 15.59 53.59C15.48 53.33 15.36 53.06 15.23 52.8C15.12 52.56 15.01 52.32 14.88 52.09C14.74 51.83 14.6 51.58 14.46 51.33C14.33 51.1 14.2 50.88 14.05 50.66C13.99 50.57 13.93 50.48 13.88 50.4V52.53V52.53Z" fill="#00587E"/>
<path d="M6.03 52.03V48.32C3.29 47.26 0.88 46.85 0 46.72V79.26C0.8 79.24 3.28 79.14 6.09 78.31C6.06 72.4 6.02 63.15 6.02 55.62V52.03" fill="#00587E"/>
<path d="M14.86 50.73C14.97 50.92 15.08 51.12 15.19 51.31C15.38 51.65 15.57 52 15.74 52.35C15.84 52.57 15.95 52.8 16.04 53.03C16.19 53.37 16.33 53.71 16.47 54.06C16.57 54.3 16.65 54.55 16.73 54.79C16.85 55.14 16.96 55.5 17.07 55.86C17.11 56 17.17 56.12 17.2 56.27C16.59 47.67 14.77 44.21 13.87 43V49.22C13.95 49.33 14.01 49.44 14.08 49.55C14.35 49.94 14.62 50.33 14.86 50.73V50.73Z" fill="#00587E"/>
<path d="M13.2399 49.45C10.7399 46.06 7.81994 44.33 6.73994 43.78C6.70994 44.48 6.69994 45.85 6.68994 47.88C7.34994 48.14 7.97994 48.44 8.58994 48.74C8.67994 48.78 8.74994 48.84 8.83994 48.88C9.37994 49.16 9.90994 49.46 10.4099 49.77C10.6099 49.89 10.7899 50.03 10.9899 50.17C11.3499 50.42 11.7199 50.67 12.0599 50.94C12.2599 51.1 12.4499 51.27 12.6499 51.43C12.8399 51.59 13.0499 51.75 13.2299 51.92V49.45H13.2399Z" fill="#00587E"/>
<path d="M11.01 76.83C10.82 76.94 10.64 77.08 10.44 77.19C9.93001 77.48 9.39001 77.75 8.84001 77.99C8.77001 78.03 8.70001 78.06 8.63001 78.1C8.03001 78.36 7.41001 78.59 6.76001 78.8L6.78001 81.99C7.82001 81.65 10.75 80.46 13.25 77.26V75.19C13.07 75.36 12.86 75.5 12.67 75.66C12.48 75.82 12.29 75.98 12.09 76.13C11.75 76.39 11.39 76.62 11.02 76.84" fill="#00587E"/>
<path d="M13.24 52.82C12.82 52.41 12.39 52.01 11.92 51.63C11.89 51.61 11.88 51.59 11.85 51.57C11.35 51.17 10.82 50.79 10.26 50.43C10.06 50.31 9.84002 50.19 9.65002 50.07C9.26002 49.84 8.87002 49.61 8.47002 49.4C8.21002 49.27 7.93002 49.14 7.66002 49.02C7.35002 48.88 7.04002 48.73 6.72002 48.6V49.73C6.69002 57.92 6.75002 71.78 6.79002 78.09C7.14002 77.98 7.46002 77.85 7.79002 77.72C8.03002 77.62 8.29002 77.53 8.53002 77.44C8.95002 77.25 9.36002 77.04 9.76002 76.83C9.95002 76.73 10.15 76.64 10.32 76.54C10.88 76.21 11.42 75.86 11.92 75.47C11.97 75.43 12.01 75.39 12.06 75.35C12.49 75.01 12.9 74.65 13.28 74.28V52.82H13.26H13.24Z" fill="#00587E"/>
<path d="M26.66 78C26.11 77.75 25.57 77.49 25.06 77.2C24.86 77.09 24.68 76.96 24.49 76.84C24.13 76.61 23.76 76.38 23.42 76.13C23.22 75.98 23.03 75.82 22.84 75.66C22.65 75.5 22.44 75.36 22.26 75.19V77.26C24.77 80.47 27.69 81.64 28.73 81.99L28.75 78.8C28.1 78.6 27.48 78.36 26.88 78.1C26.8 78.06 26.74 78.03 26.67 77.99" fill="#00587E"/>
<path d="M28.82 53.16V48.6C28.49 48.73 28.18 48.88 27.87 49.03C27.6 49.15 27.33 49.27 27.07 49.4C26.65 49.61 26.26 49.85 25.87 50.08C25.67 50.19 25.46 50.31 25.27 50.42C24.7 50.78 24.16 51.17 23.65 51.58C23.63 51.6 23.62 51.61 23.61 51.62C23.13 52 22.7 52.4 22.29 52.81V74.28C22.67 74.66 23.08 75.01 23.51 75.35C23.56 75.39 23.6 75.43 23.65 75.47C24.15 75.85 24.69 76.2 25.25 76.54C25.43 76.65 25.63 76.73 25.82 76.83C26.22 77.04 26.62 77.25 27.04 77.44C27.28 77.55 27.54 77.63 27.78 77.73C28.11 77.85 28.44 77.99 28.77 78.09C28.8 71.5 28.85 60.94 28.84 53.16" fill="#00587E"/>
<path d="M29.47 56.21V59.05C29.47 66.05 29.43 73.62 29.4 77.91V78.31C32.2 79.14 34.67 79.25 35.48 79.26V46.73C34.6 46.85 32.19 47.27 29.46 48.33V56.22" fill="#00587E"/>
<path d="M24.51 50.16C24.7 50.03 24.88 49.9 25.09 49.77C25.58 49.46 26.11 49.17 26.65 48.89C26.75 48.85 26.82 48.78 26.92 48.74C27.53 48.43 28.16 48.15 28.82 47.88C28.82 45.85 28.79 44.48 28.77 43.78C27.7 44.34 24.77 46.06 22.28 49.44V51.9C22.46 51.73 22.67 51.57 22.86 51.41C23.05 51.24 23.24 51.07 23.45 50.92C23.79 50.66 24.15 50.4 24.52 50.15L24.51 50.16Z" fill="#00587E"/>
<path d="M20.68 76.11C20.57 75.92 20.46 75.73 20.36 75.55C20.18 75.23 20 74.91 19.83 74.57C19.73 74.36 19.63 74.14 19.53 73.92C19.38 73.59 19.24 73.26 19.11 72.91C19.02 72.67 18.94 72.43 18.85 72.2C18.73 71.85 18.62 71.49 18.51 71.12C18.47 70.98 18.41 70.84 18.37 70.69C19.07 79.88 20.84 82.36 21.61 83.01V77.51C21.52 77.4 21.45 77.28 21.38 77.17C21.14 76.83 20.9 76.49 20.67 76.13" fill="#00587E"/>
<path d="M21.62 74.57C21.62 74.57 21.55 74.48 21.52 74.44C21.13 74.03 20.78 73.6 20.45 73.15C20.36 73.04 20.28 72.92 20.19 72.8C19.84 72.3 19.52 71.78 19.24 71.22C19.24 71.22 19.24 71.2 19.22 71.19C19.24 71.23 19.25 71.29 19.25 71.33C19.3 71.5 19.36 71.67 19.42 71.83C19.53 72.17 19.65 72.5 19.77 72.83C19.85 73.02 19.93 73.2 20 73.39C20.12 73.68 20.25 73.96 20.39 74.25C20.49 74.44 20.58 74.63 20.68 74.81C20.82 75.07 20.97 75.32 21.11 75.57C21.22 75.76 21.33 75.94 21.45 76.12C21.5 76.2 21.55 76.27 21.61 76.35V74.57H21.62Z" fill="#00587E"/>
<path d="M21.62 52.53V50.4C21.56 50.49 21.5 50.58 21.44 50.66C21.3 50.88 21.17 51.1 21.04 51.32C20.89 51.58 20.75 51.83 20.62 52.09C20.5 52.32 20.39 52.55 20.27 52.79C20.15 53.05 20.02 53.32 19.91 53.59C19.81 53.83 19.71 54.08 19.62 54.32C19.52 54.59 19.41 54.87 19.33 55.15C19.24 55.41 19.17 55.66 19.09 55.93C19.06 56.04 19.03 56.15 19 56.27C19.03 56.2 19.08 56.13 19.12 56.05C19.19 55.91 19.27 55.78 19.34 55.64C19.48 55.39 19.63 55.15 19.78 54.9C19.86 54.78 19.94 54.64 20.02 54.52C20.21 54.25 20.41 53.97 20.63 53.71C20.69 53.63 20.75 53.55 20.81 53.47C21.07 53.15 21.35 52.83 21.64 52.54H21.62V52.53Z" fill="#00587E"/>
<path d="M21.62 49.22V43C20.72 44.21 18.9 47.67 18.29 56.27C18.32 56.13 18.38 56 18.42 55.86C18.52 55.51 18.63 55.15 18.75 54.81C18.84 54.56 18.92 54.31 19.02 54.06C19.15 53.72 19.3 53.37 19.44 53.04C19.54 52.81 19.64 52.58 19.75 52.35C19.92 52 20.11 51.65 20.3 51.31C20.41 51.12 20.51 50.91 20.63 50.72C20.87 50.31 21.13 49.93 21.41 49.54C21.49 49.43 21.55 49.32 21.63 49.21L21.62 49.22Z" fill="#00587E"/>
<path d="M21.62 53.52C21.56 53.59 21.49 53.66 21.43 53.73C21.3 53.88 21.18 54.03 21.07 54.18C20.91 54.37 20.78 54.57 20.64 54.77C20.53 54.93 20.42 55.09 20.32 55.25C20.19 55.45 20.07 55.66 19.95 55.87C19.85 56.04 19.76 56.21 19.67 56.37C19.56 56.58 19.46 56.8 19.36 57.02C19.28 57.19 19.2 57.36 19.14 57.54C19.04 57.77 18.97 58.01 18.89 58.24C18.83 58.42 18.77 58.58 18.72 58.77C18.64 59.02 18.58 59.27 18.52 59.53C18.48 59.7 18.43 59.87 18.4 60.04C18.34 60.33 18.3 60.62 18.26 60.92C18.24 61.07 18.21 61.21 18.19 61.36C18.14 61.81 18.11 62.27 18.09 62.74C18.09 63.13 18.09 63.52 18.09 63.93V64.15C18.11 64.34 18.13 64.53 18.15 64.72C18.18 65.01 18.19 65.31 18.23 65.59C18.26 65.84 18.31 66.08 18.34 66.32C18.37 66.54 18.41 66.76 18.45 66.97C18.49 67.21 18.55 67.43 18.61 67.66C18.66 67.87 18.71 68.09 18.77 68.3C18.83 68.51 18.9 68.71 18.98 68.93C19.05 69.14 19.13 69.36 19.2 69.57C19.28 69.76 19.36 69.95 19.44 70.13C19.54 70.34 19.63 70.55 19.73 70.76C19.82 70.94 19.91 71.1 20.01 71.28C20.12 71.48 20.24 71.69 20.36 71.89C20.46 72.05 20.56 72.21 20.67 72.36C20.81 72.55 20.95 72.75 21.09 72.93C21.2 73.08 21.31 73.22 21.44 73.36C21.49 73.42 21.56 73.48 21.61 73.55V53.52H21.59H21.62Z" fill="#00587E"/>
<path d="M48.74 45.97V79.97" stroke="#00587E"/>
</g>
<defs>
<clipPath id="clip0_305_290">
<rect width="161.94" height="40.01" fill="white"/>
</clipPath>
<clipPath id="clip1_305_290">
<rect width="161.94" height="40.01" fill="white" transform="translate(0 43)"/>
</clipPath>
</defs>
</svg>
