<?xml version="1.0" encoding="UTF-8" standalone="no"?>
<!DOCTYPE svg PUBLIC "-//W3C//DTD SVG 1.1//EN" "http://www.w3.org/Graphics/SVG/1.1/DTD/svg11.dtd">
<svg width="100%" height="100%" viewBox="0 0 168 86" version="1.1" xmlns="http://www.w3.org/2000/svg" xmlns:xlink="http://www.w3.org/1999/xlink" xml:space="preserve" xmlns:serif="http://www.serif.com/" style="fill-rule:evenodd;clip-rule:evenodd;stroke-linejoin:round;stroke-miterlimit:1.41421;">
    <g transform="matrix(1,0,0,1,-1.15101,0.7365)">
        <path d="M44.587,23.347L44.587,4.754L55.98,4.754L55.98,8.83L49.528,8.83L49.528,12.056L55.612,12.056L55.612,16.044L49.528,16.044L49.528,23.347L44.587,23.347Z" style="fill:rgb(0,88,126);"/>
        <path d="M58.665,4.753L63.72,4.753L63.72,13.796C63.72,15.125 63.753,16.081 63.821,16.66C63.889,17.24 64.003,17.725 64.164,18.115C64.359,18.588 64.697,18.951 65.18,19.2C65.663,19.449 66.251,19.575 66.945,19.575C67.64,19.575 68.227,19.449 68.705,19.2C69.182,18.951 69.524,18.588 69.727,18.115C69.887,17.725 70.002,17.24 70.069,16.66C70.138,16.081 70.172,15.125 70.172,13.796L70.172,12.526L70.172,4.753L75.214,4.753L75.214,14.584C75.214,16.624 75.091,18.129 74.845,19.099C74.6,20.068 74.185,20.896 73.601,21.581C72.966,22.335 72.093,22.9 70.984,23.277C69.875,23.654 68.528,23.842 66.945,23.842C65.353,23.842 64.005,23.654 62.9,23.277C61.795,22.9 60.921,22.335 60.277,21.581C59.702,20.896 59.289,20.068 59.039,19.099C58.79,18.129 58.665,16.624 58.665,14.584L58.665,12.654L58.665,4.753Z" style="fill:rgb(0,88,126);"/>
        <path d="M81.742,23.347L81.742,9.147L77.576,9.147L77.576,4.754L90.975,4.754L90.975,9.147L86.81,9.147L86.81,23.347L81.742,23.347Z" style="fill:rgb(0,88,126);"/>
        <path d="M93.338,4.753L98.393,4.753L98.393,13.796C98.393,15.125 98.426,16.081 98.495,16.66C98.562,17.24 98.676,17.725 98.838,18.115C99.032,18.588 99.371,18.951 99.854,19.2C100.336,19.449 100.924,19.575 101.619,19.575C102.313,19.575 102.9,19.449 103.378,19.2C103.856,18.951 104.197,18.588 104.4,18.115C104.561,17.725 104.676,17.24 104.743,16.66C104.811,16.081 104.845,15.125 104.845,13.796L104.845,12.526L104.845,4.753L109.887,4.753L109.887,14.584C109.887,16.624 109.764,18.129 109.518,19.099C109.273,20.068 108.859,20.896 108.274,21.581C107.639,22.335 106.767,22.9 105.657,23.277C104.548,23.654 103.202,23.842 101.619,23.842C100.027,23.842 98.678,23.654 97.573,23.277C96.469,22.9 95.594,22.335 94.951,21.581C94.375,20.896 93.962,20.068 93.713,19.099C93.463,18.129 93.338,16.624 93.338,14.584L93.338,12.654L93.338,4.753Z" style="fill:rgb(0,88,126);"/>
        <path d="M113.735,23.347L113.735,4.754L119.031,4.754C121.106,4.754 122.551,4.848 123.369,5.039C124.186,5.23 124.891,5.548 125.483,5.998C126.153,6.506 126.666,7.153 127.026,7.941C127.386,8.728 127.566,9.596 127.566,10.545C127.566,11.984 127.213,13.155 126.506,14.056C125.8,14.958 124.768,15.557 123.414,15.854L128.481,23.347L122.753,23.347L118.486,16.07L118.486,23.347L113.735,23.347ZM118.486,13.542L119.425,13.542C120.517,13.542 121.316,13.356 121.819,12.983C122.323,12.611 122.575,12.027 122.575,11.23C122.575,10.299 122.34,9.637 121.87,9.243C121.4,8.849 120.611,8.652 119.502,8.652L118.486,8.652L118.486,13.542Z" style="fill:rgb(0,88,126);"/>
        <g>
            <rect x="130.539" y="4.753" width="5.118" height="18.594" style="fill:rgb(0,88,126);"/>
            <path d="M142.151,23.347L142.151,9.147L137.985,9.147L137.985,4.754L148.593,4.754L151.42,9.147L147.219,9.147L147.219,23.347L142.151,23.347Z" style="fill:rgb(0,88,126);"/>
            <path d="M157.368,23.347L157.368,14.864L150.865,4.754L156.683,4.754L159.185,9.541C159.202,9.566 159.227,9.613 159.26,9.682C159.523,10.18 159.705,10.659 159.807,11.117C159.891,10.701 160.073,10.24 160.353,9.732C160.403,9.638 160.438,9.576 160.455,9.541L162.932,4.754L168.761,4.754L162.259,14.864L162.259,23.347L157.368,23.347Z" style="fill:rgb(0,88,126);"/>
            <rect x="44.586" y="28.558" width="2.194" height="8.437" style="fill:rgb(159,211,168);"/>
            <path d="M48.549,36.994L48.549,28.557L50.742,28.557L54.792,33.715L54.792,28.557L56.974,28.557L56.974,36.994L54.792,36.994L50.742,31.836L50.742,36.994L48.549,36.994Z" style="fill:rgb(159,211,168);"/>
            <path d="M60.242,28.557L62.278,33.694L64.326,28.557L66.71,28.557L63.151,36.994L61.406,36.994L57.858,28.557L60.242,28.557Z" style="fill:rgb(159,211,168);"/>
            <path d="M72.394,30.415L69.787,30.415L69.787,31.825L72.248,31.825L72.248,33.682L69.787,33.682L69.787,35.137L72.394,35.137L72.394,36.994L67.593,36.994L67.593,28.557L72.394,28.557L72.394,30.415Z" style="fill:rgb(159,211,168);"/>
            <path d="M78.604,30.694C78.365,30.501 78.127,30.357 77.888,30.264C77.65,30.17 77.419,30.124 77.194,30.124C76.911,30.124 76.68,30.191 76.501,30.325C76.322,30.46 76.232,30.635 76.232,30.851C76.232,31.001 76.276,31.124 76.366,31.22C76.456,31.317 76.574,31.401 76.718,31.472C76.864,31.543 77.028,31.604 77.211,31.657C77.394,31.709 77.575,31.765 77.754,31.825C78.47,32.063 78.994,32.382 79.326,32.781C79.658,33.181 79.824,33.701 79.824,34.342C79.824,34.775 79.751,35.167 79.605,35.518C79.461,35.868 79.248,36.168 78.968,36.418C78.689,36.668 78.345,36.861 77.938,36.999C77.531,37.138 77.071,37.206 76.557,37.206C75.489,37.206 74.501,36.89 73.591,36.256L74.531,34.488C74.86,34.778 75.184,34.995 75.504,35.137C75.825,35.278 76.142,35.349 76.456,35.349C76.814,35.349 77.08,35.267 77.256,35.103C77.431,34.939 77.519,34.752 77.519,34.544C77.519,34.417 77.496,34.307 77.452,34.213C77.407,34.12 77.332,34.035 77.228,33.956C77.124,33.878 76.987,33.805 76.82,33.737C76.652,33.67 76.448,33.596 76.209,33.514C75.927,33.425 75.649,33.326 75.377,33.218C75.103,33.11 74.862,32.965 74.649,32.786C74.436,32.608 74.265,32.382 74.134,32.11C74.003,31.838 73.938,31.493 73.938,31.075C73.938,30.657 74.007,30.279 74.146,29.939C74.283,29.6 74.477,29.308 74.726,29.066C74.977,28.824 75.283,28.635 75.644,28.501C76.006,28.366 76.411,28.299 76.858,28.299C77.276,28.299 77.713,28.357 78.168,28.472C78.622,28.589 79.06,28.758 79.477,28.983L78.604,30.694Z" style="fill:rgb(159,211,168);"/>
            <path d="M84.457,30.415L84.457,36.994L82.263,36.994L82.263,30.415L80.461,30.415L80.461,28.557L86.258,28.557L86.258,30.415L84.457,30.415Z" style="fill:rgb(159,211,168);"/>
            <path d="M86.851,36.994L88.284,28.557L90.455,28.557L92.144,33.055L93.822,28.557L95.993,28.557L97.426,36.994L95.244,36.994L94.516,32.138L92.524,36.994L91.652,36.994L89.761,32.138L89.033,36.994L86.851,36.994Z" style="fill:rgb(159,211,168);"/>
            <path d="M103.613,30.415L101.006,30.415L101.006,31.825L103.468,31.825L103.468,33.682L101.006,33.682L101.006,35.137L103.613,35.137L103.613,36.994L98.813,36.994L98.813,28.557L103.613,28.557L103.613,30.415Z" style="fill:rgb(159,211,168);"/>
            <path d="M105.191,36.994L105.191,28.557L107.384,28.557L111.434,33.715L111.434,28.557L113.618,28.557L113.618,36.994L111.434,36.994L107.384,31.836L107.384,36.994L105.191,36.994Z" style="fill:rgb(159,211,168);"/>
            <path d="M118.585,30.415L118.585,36.994L116.392,36.994L116.392,30.415L114.59,30.415L114.59,28.557L120.387,28.557L120.387,30.415L118.585,30.415Z" style="fill:rgb(159,211,168);"/>
            <path d="M129.271,32.242L133.624,32.242C133.624,32.69 133.606,33.096 133.568,33.462C133.531,33.827 133.457,34.167 133.344,34.48C133.188,34.921 132.975,35.31 132.706,35.65C132.439,35.989 132.123,36.273 131.761,36.499C131.399,36.727 131.001,36.901 130.57,37.02C130.137,37.139 129.681,37.2 129.204,37.2C128.548,37.2 127.949,37.091 127.408,36.875C126.867,36.659 126.403,36.355 126.015,35.963C125.627,35.571 125.325,35.101 125.109,34.553C124.892,34.004 124.784,33.399 124.784,32.734C124.784,32.078 124.89,31.476 125.103,30.928C125.316,30.379 125.618,29.911 126.01,29.522C126.401,29.135 126.873,28.833 127.425,28.617C127.976,28.401 128.593,28.292 129.271,28.292C130.152,28.292 130.924,28.483 131.588,28.863C132.252,29.243 132.778,29.832 133.165,30.631L131.085,31.493C130.89,31.03 130.638,30.698 130.329,30.496C130.02,30.295 129.667,30.194 129.271,30.194C128.943,30.194 128.645,30.256 128.376,30.379C128.107,30.502 127.879,30.677 127.688,30.905C127.498,31.133 127.349,31.407 127.241,31.727C127.133,32.048 127.078,32.406 127.078,32.801C127.078,33.16 127.125,33.491 127.218,33.798C127.311,34.103 127.451,34.368 127.637,34.592C127.824,34.816 128.055,34.989 128.332,35.112C128.607,35.235 128.927,35.297 129.294,35.297C129.511,35.297 129.719,35.273 129.921,35.224C130.122,35.176 130.302,35.097 130.463,34.989C130.623,34.881 130.755,34.741 130.86,34.57C130.965,34.398 131.036,34.19 131.073,33.944L129.271,33.944L129.271,32.242Z" style="fill:rgb(159,211,168);"/>
            <path d="M137.205,32.328L137.619,32.328C138.051,32.328 138.384,32.238 138.615,32.06C138.846,31.881 138.961,31.623 138.961,31.287C138.961,30.953 138.846,30.695 138.615,30.515C138.384,30.336 138.051,30.246 137.619,30.246L137.205,30.246L137.205,32.328ZM142.028,36.994L139.297,36.994L137.205,33.75L137.205,36.994L135.012,36.994L135.012,28.557L138.425,28.557C138.894,28.557 139.305,28.627 139.656,28.765C140.006,28.903 140.295,29.09 140.523,29.33C140.751,29.568 140.921,29.844 141.038,30.158C141.154,30.471 141.211,30.807 141.211,31.164C141.211,31.807 141.056,32.327 140.747,32.726C140.437,33.124 139.98,33.395 139.376,33.537L142.028,36.994Z" style="fill:rgb(159,211,168);"/>
            <path d="M144.703,32.746C144.703,33.082 144.766,33.391 144.893,33.674C145.02,33.959 145.191,34.205 145.408,34.413C145.624,34.622 145.876,34.784 146.163,34.899C146.45,35.015 146.754,35.073 147.075,35.073C147.396,35.073 147.7,35.015 147.987,34.899C148.274,34.784 148.527,34.622 148.748,34.413C148.968,34.205 149.141,33.959 149.269,33.674C149.395,33.391 149.459,33.082 149.459,32.746C149.459,32.41 149.395,32.1 149.269,31.817C149.141,31.534 148.968,31.288 148.748,31.078C148.527,30.87 148.274,30.707 147.987,30.592C147.7,30.476 147.396,30.418 147.075,30.418C146.754,30.418 146.45,30.476 146.163,30.592C145.876,30.707 145.624,30.87 145.408,31.078C145.191,31.288 145.02,31.534 144.893,31.817C144.766,32.1 144.703,32.41 144.703,32.746ZM142.409,32.746C142.409,32.119 142.524,31.535 142.755,30.994C142.987,30.454 143.308,29.982 143.718,29.578C144.129,29.176 144.619,28.861 145.189,28.633C145.761,28.406 146.388,28.293 147.075,28.293C147.754,28.293 148.38,28.406 148.954,28.633C149.53,28.861 150.024,29.176 150.437,29.578C150.852,29.982 151.174,30.454 151.405,30.994C151.636,31.535 151.753,32.119 151.753,32.746C151.753,33.372 151.636,33.956 151.405,34.497C151.174,35.038 150.852,35.51 150.437,35.913C150.024,36.315 149.53,36.63 148.954,36.858C148.38,37.085 147.754,37.2 147.075,37.2C146.388,37.2 145.761,37.085 145.189,36.858C144.619,36.63 144.129,36.315 143.718,35.913C143.308,35.51 142.987,35.038 142.755,34.497C142.524,33.956 142.409,33.372 142.409,32.746Z" style="fill:rgb(159,211,168);"/>
            <path d="M155.333,28.557L155.333,33.145C155.333,33.392 155.342,33.644 155.36,33.901C155.379,34.158 155.435,34.391 155.529,34.6C155.622,34.809 155.769,34.978 155.97,35.109C156.172,35.239 156.456,35.305 156.821,35.305C157.187,35.305 157.468,35.239 157.666,35.109C157.863,34.978 158.01,34.809 158.108,34.6C158.205,34.391 158.263,34.158 158.281,33.901C158.299,33.644 158.309,33.392 158.309,33.145L158.309,28.557L160.491,28.557L160.491,33.448C160.491,34.761 160.191,35.719 159.59,36.324C158.99,36.927 158.067,37.23 156.821,37.23C155.575,37.23 154.65,36.927 154.046,36.324C153.442,35.719 153.139,34.761 153.139,33.448L153.139,28.557L155.333,28.557Z" style="fill:rgb(159,211,168);"/>
        </g>
        <path d="M164.531,32.429L165.259,32.429C166.064,32.429 166.468,32.078 166.468,31.377C166.468,30.676 166.064,30.326 165.259,30.326L164.531,30.326L164.531,32.429ZM164.531,36.995L162.338,36.995L162.338,28.557L165.83,28.557C166.776,28.557 167.503,28.804 168.006,29.296C168.51,29.788 168.761,30.482 168.761,31.377C168.761,32.272 168.51,32.967 168.006,33.459C167.503,33.951 166.776,34.197 165.83,34.197L164.531,34.197L164.531,36.995Z" style="fill:rgb(159,211,168);"/>
        <path d="M1.541,4.753L1.544,36.994C1.544,36.994 1.592,36.993 1.682,36.993C2.314,36.993 5.057,36.934 8.202,35.986C8.167,29.02 8.101,14.112 8.142,6.447C4.576,5.062 1.541,4.753 1.541,4.753Z" style="fill:rgb(170,197,216);"/>
        <path d="M19.386,21.919C19.384,21.961 19.382,22.002 19.38,22.045C19.379,22.055 19.379,22.065 19.378,22.074C19.144,28.154 17.346,32.19 15.257,34.847L15.257,40.835C15.257,40.835 19.101,40.408 19.384,22.045C19.385,22.002 19.385,21.961 19.386,21.919ZM15.257,0.692L15.257,7.642C17.441,10.572 19.308,14.753 19.397,20.523C19.421,3.513 15.257,0.692 15.257,0.692Z" style="fill:rgb(102,154,184);"/>
        <path d="M15.257,31.985C13.162,34.058 10.569,35.273 8.203,35.986C8.214,38.303 8.222,39.741 8.222,39.741C8.222,39.741 12.075,38.894 15.257,34.846L15.257,31.985ZM8.222,1.76C8.18,2.144 8.155,3.893 8.142,6.447C10.524,7.372 13.145,8.776 15.257,10.884L15.257,7.642C12.077,3.372 8.222,1.76 8.222,1.76Z" style="fill:rgb(102,154,184);"/>
        <path d="M8.142,6.447C8.102,14.112 8.167,29.021 8.202,35.985C10.569,35.273 13.162,34.057 15.258,31.984L15.258,10.884C13.145,8.776 10.525,7.372 8.142,6.447Z" style="fill:rgb(48,125,159);"/>
        <path d="M19.378,22.074C19.144,26.623 17.481,29.785 15.258,31.985L15.258,34.846C17.345,32.19 19.145,28.154 19.378,22.074ZM15.258,7.642L15.258,10.884C17.572,13.194 19.278,16.349 19.397,20.647C19.397,20.606 19.397,20.564 19.397,20.523C19.308,14.752 17.441,10.572 15.258,7.642Z" style="fill:rgb(0,105,142);"/>
        <path d="M15.258,10.884L15.258,31.985C17.481,29.786 19.145,26.623 19.378,22.074C19.38,22.065 19.38,22.054 19.38,22.045C19.383,21.969 19.385,21.893 19.387,21.818C19.393,21.422 19.395,21.03 19.397,20.647C19.279,16.349 17.573,13.194 15.258,10.884Z" style="fill:rgb(0,88,126);"/>
        <path d="M37.262,4.753L37.262,36.994C37.262,36.994 37.215,36.993 37.125,36.993C36.492,36.993 33.749,36.934 30.604,35.986C30.639,29.02 30.705,14.112 30.665,6.447C34.23,5.062 37.262,4.753 37.262,4.753Z" style="fill:rgb(228,242,230);"/>
        <path d="M19.421,21.919C19.423,21.961 19.424,22.002 19.426,22.045C19.427,22.055 19.427,22.065 19.427,22.074C19.661,28.154 21.46,32.19 23.549,34.847L23.549,40.835C23.549,40.835 19.705,40.408 19.423,22.045C19.422,22.002 19.421,21.961 19.421,21.919ZM23.549,0.692L23.549,7.642C21.365,10.572 19.498,14.753 19.409,20.523C19.384,3.513 23.549,0.692 23.549,0.692Z" style="fill:rgb(205,232,209);"/>
        <path d="M23.549,31.985C25.644,34.058 28.238,35.273 30.604,35.986C30.592,38.303 30.584,39.741 30.584,39.741C30.584,39.741 26.731,38.894 23.549,34.846L23.549,31.985ZM30.584,1.76C30.626,2.144 30.651,3.893 30.665,6.447C28.282,7.372 25.662,8.776 23.549,10.884L23.549,7.642C26.73,3.372 30.584,1.76 30.584,1.76Z" style="fill:rgb(205,232,209);"/>
        <path d="M30.665,6.447C30.705,14.112 30.64,29.021 30.604,35.985C28.238,35.273 25.644,34.057 23.549,31.984L23.549,10.884C25.662,8.776 28.282,7.372 30.665,6.447Z" style="fill:rgb(187,223,192);"/>
        <path d="M19.428,22.074C19.663,26.623 21.325,29.785 23.548,31.985L23.548,34.846C21.461,32.19 19.661,28.154 19.428,22.074ZM23.548,7.642L23.548,10.884C21.234,13.194 19.528,16.349 19.41,20.647C19.41,20.606 19.41,20.564 19.41,20.523C19.499,14.752 21.365,10.572 23.548,7.642Z" style="fill:rgb(173,217,180);"/>
        <path d="M23.548,10.884L23.548,31.985C21.325,29.786 19.661,26.623 19.428,22.074C19.427,22.065 19.427,22.054 19.427,22.045C19.423,21.969 19.421,21.893 19.419,21.818C19.413,21.422 19.411,21.03 19.41,20.647C19.527,16.349 21.233,13.194 23.548,10.884Z" style="fill:rgb(159,211,168);"/>
    </g>
    <g transform="matrix(1,0,0,1,-0.654,43.7365)">
        <path d="M44.089,23.347L44.089,4.753L55.481,4.753L55.481,8.83L49.029,8.83L49.029,12.056L55.113,12.056L55.113,16.044L49.029,16.044L49.029,23.347L44.089,23.347Z" style="fill:white;"/>
        <path d="M58.168,4.753L63.224,4.753L63.224,13.795C63.224,15.124 63.257,16.08 63.325,16.66C63.392,17.239 63.506,17.725 63.668,18.114C63.862,18.588 64.201,18.95 64.684,19.199C65.166,19.449 65.754,19.574 66.449,19.574C67.144,19.574 67.73,19.449 68.208,19.199C68.686,18.95 69.027,18.588 69.23,18.114C69.391,17.725 69.506,17.239 69.573,16.66C69.641,16.08 69.675,15.124 69.675,13.795L69.675,12.525L69.675,4.753L74.717,4.753L74.717,14.584C74.717,16.623 74.594,18.129 74.348,19.098C74.103,20.067 73.689,20.895 73.105,21.581C72.469,22.335 71.597,22.9 70.487,23.277C69.378,23.654 68.032,23.842 66.449,23.842C64.857,23.842 63.508,23.654 62.404,23.277C61.299,22.9 60.424,22.335 59.781,21.581C59.206,20.895 58.792,20.067 58.543,19.098C58.293,18.129 58.168,16.623 58.168,14.584L58.168,12.653L58.168,4.753Z" style="fill:white;"/>
        <path d="M81.245,23.347L81.245,9.147L77.079,9.147L77.079,4.753L90.478,4.753L90.478,9.147L86.313,9.147L86.313,23.347L81.245,23.347Z" style="fill:white;"/>
        <path d="M92.844,4.753L97.899,4.753L97.899,13.796C97.899,15.125 97.932,16.08 98.001,16.66C98.068,17.24 98.182,17.725 98.343,18.114C98.538,18.588 98.876,18.95 99.359,19.2C99.842,19.449 100.43,19.574 101.125,19.574C101.819,19.574 102.406,19.449 102.884,19.2C103.361,18.95 103.703,18.588 103.906,18.114C104.066,17.725 104.181,17.24 104.249,16.66C104.317,16.08 104.351,15.125 104.351,13.796L104.351,12.526L104.351,4.753L109.393,4.753L109.393,14.584C109.393,16.623 109.27,18.129 109.024,19.098C108.779,20.067 108.365,20.895 107.78,21.581C107.145,22.335 106.272,22.9 105.163,23.277C104.054,23.654 102.708,23.842 101.125,23.842C99.532,23.842 98.184,23.654 97.079,23.277C95.975,22.9 95.1,22.335 94.456,21.581C93.881,20.895 93.468,20.067 93.218,19.098C92.969,18.129 92.844,16.623 92.844,14.584L92.844,12.653L92.844,4.753Z" style="fill:white;"/>
        <path d="M113.238,23.347L113.238,4.753L118.534,4.753C120.609,4.753 122.054,4.848 122.872,5.039C123.688,5.229 124.393,5.548 124.985,5.998C125.655,6.506 126.169,7.153 126.529,7.941C126.889,8.728 127.068,9.596 127.068,10.545C127.068,11.984 126.715,13.155 126.008,14.056C125.302,14.958 124.27,15.557 122.916,15.854L127.983,23.347L122.256,23.347L117.988,16.069L117.988,23.347L113.238,23.347ZM117.988,13.542L118.928,13.542C120.02,13.542 120.818,13.355 121.322,12.983C121.825,12.611 122.078,12.026 122.078,11.23C122.078,10.299 121.842,9.637 121.373,9.243C120.903,8.849 120.113,8.652 119.004,8.652L117.988,8.652L117.988,13.542Z" style="fill:white;"/>
        <g>
            <rect x="130.042" y="4.752" width="5.118" height="18.594" style="fill:white;"/>
            <path d="M141.166,23.594L141.166,9.394L137,9.394L137,5L147.608,5L150.434,9.394L146.234,9.394L146.234,23.594L141.166,23.594Z" style="fill:white;"/>
            <path d="M156.873,23.347L156.873,14.863L150.37,4.753L156.188,4.753L158.69,9.541C158.707,9.566 158.732,9.613 158.765,9.681C159.028,10.18 159.21,10.659 159.312,11.116C159.396,10.701 159.578,10.239 159.858,9.731C159.908,9.638 159.942,9.575 159.96,9.541L162.437,4.753L168.265,4.753L161.764,14.863L161.764,23.347L156.873,23.347Z" style="fill:white;"/>
            <rect x="44.086" y="28.557" width="2.194" height="8.437" style="fill:rgb(159,211,168);"/>
            <path d="M48.05,36.994L48.05,28.557L50.244,28.557L54.294,33.715L54.294,28.557L56.476,28.557L56.476,36.994L54.294,36.994L50.244,31.836L50.244,36.994L48.05,36.994Z" style="fill:rgb(159,211,168);"/>
            <path d="M59.747,28.557L61.783,33.694L63.831,28.557L66.215,28.557L62.656,36.994L60.911,36.994L57.363,28.557L59.747,28.557Z" style="fill:rgb(159,211,168);"/>
            <path d="M71.897,30.414L69.29,30.414L69.29,31.824L71.751,31.824L71.751,33.682L69.29,33.682L69.29,35.136L71.897,35.136L71.897,36.994L67.097,36.994L67.097,28.557L71.897,28.557L71.897,30.414Z" style="fill:rgb(159,211,168);"/>
            <path d="M78.107,30.694C77.868,30.5 77.63,30.357 77.391,30.264C77.153,30.17 76.922,30.123 76.697,30.123C76.414,30.123 76.182,30.191 76.004,30.325C75.825,30.459 75.735,30.635 75.735,30.851C75.735,31 75.779,31.123 75.869,31.22C75.959,31.317 76.077,31.401 76.221,31.472C76.367,31.542 76.531,31.604 76.714,31.656C76.897,31.709 77.078,31.765 77.256,31.825C77.973,32.063 78.497,32.382 78.829,32.78C79.161,33.18 79.327,33.701 79.327,34.342C79.327,34.775 79.254,35.166 79.108,35.517C78.964,35.868 78.751,36.167 78.47,36.418C78.191,36.667 77.848,36.861 77.441,36.999C77.034,37.138 76.574,37.206 76.059,37.206C74.992,37.206 74.004,36.89 73.094,36.255L74.034,34.488C74.363,34.778 74.687,34.994 75.007,35.137C75.328,35.278 75.645,35.349 75.959,35.349C76.317,35.349 76.583,35.267 76.759,35.103C76.934,34.939 77.022,34.752 77.022,34.543C77.022,34.417 76.999,34.307 76.955,34.213C76.91,34.12 76.835,34.034 76.731,33.956C76.627,33.877 76.49,33.804 76.323,33.737C76.155,33.67 75.951,33.596 75.712,33.514C75.43,33.425 75.152,33.326 74.879,33.218C74.606,33.11 74.365,32.965 74.152,32.786C73.939,32.607 73.768,32.382 73.637,32.11C73.506,31.837 73.441,31.492 73.441,31.074C73.441,30.656 73.509,30.278 73.648,29.939C73.786,29.6 73.98,29.308 74.229,29.065C74.48,28.824 74.786,28.635 75.147,28.501C75.509,28.366 75.914,28.299 76.361,28.299C76.779,28.299 77.215,28.357 77.671,28.472C78.125,28.588 78.563,28.758 78.98,28.982L78.107,30.694Z" style="fill:rgb(159,211,168);"/>
            <path d="M83.957,30.414L83.957,36.994L81.763,36.994L81.763,30.414L79.961,30.414L79.961,28.557L85.758,28.557L85.758,30.414L83.957,30.414Z" style="fill:rgb(159,211,168);"/>
            <path d="M86.356,36.994L87.788,28.557L89.959,28.557L91.648,33.055L93.327,28.557L95.497,28.557L96.93,36.994L94.748,36.994L94.02,32.138L92.028,36.994L91.156,36.994L89.265,32.138L88.538,36.994L86.356,36.994Z" style="fill:rgb(159,211,168);"/>
            <path d="M103.113,30.414L100.506,30.414L100.506,31.824L102.967,31.824L102.967,33.682L100.506,33.682L100.506,35.136L103.113,35.136L103.113,36.993L98.313,36.993L98.313,28.557L103.113,28.557L103.113,30.414Z" style="fill:rgb(159,211,168);"/>
            <path d="M104.695,36.994L104.695,28.557L106.889,28.557L110.939,33.716L110.939,28.557L113.122,28.557L113.122,36.994L110.939,36.994L106.889,31.836L106.889,36.994L104.695,36.994Z" style="fill:rgb(159,211,168);"/>
            <path d="M118.089,30.414L118.089,36.993L115.895,36.993L115.895,30.414L114.094,30.414L114.094,28.557L119.891,28.557L119.891,30.414L118.089,30.414Z" style="fill:rgb(159,211,168);"/>
            <path d="M128.772,32.242L133.125,32.242C133.125,32.689 133.106,33.096 133.069,33.462C133.031,33.827 132.957,34.167 132.845,34.48C132.689,34.92 132.476,35.31 132.207,35.649C131.939,35.989 131.624,36.272 131.262,36.499C130.899,36.727 130.502,36.901 130.07,37.019C129.637,37.139 129.182,37.199 128.705,37.199C128.049,37.199 127.45,37.091 126.909,36.875C126.368,36.658 125.903,36.354 125.516,35.963C125.127,35.571 124.826,35.1 124.609,34.553C124.393,34.004 124.285,33.399 124.285,32.734C124.285,32.078 124.391,31.475 124.604,30.927C124.817,30.379 125.118,29.911 125.51,29.522C125.902,29.135 126.373,28.833 126.926,28.617C127.477,28.4 128.093,28.292 128.772,28.292C129.652,28.292 130.424,28.482 131.088,28.863C131.752,29.243 132.279,29.832 132.666,30.63L130.585,31.492C130.39,31.03 130.139,30.697 129.83,30.496C129.52,30.294 129.167,30.194 128.772,30.194C128.444,30.194 128.146,30.256 127.877,30.379C127.608,30.502 127.379,30.677 127.189,30.905C126.999,31.133 126.849,31.407 126.741,31.727C126.633,32.048 126.578,32.406 126.578,32.801C126.578,33.16 126.625,33.491 126.718,33.798C126.812,34.103 126.952,34.368 127.138,34.591C127.324,34.816 127.556,34.989 127.832,35.112C128.108,35.235 128.428,35.296 128.795,35.296C129.011,35.296 129.219,35.272 129.421,35.223C129.623,35.176 129.803,35.097 129.963,34.989C130.124,34.881 130.256,34.741 130.361,34.57C130.465,34.398 130.536,34.189 130.574,33.943L128.772,33.943L128.772,32.242Z" style="fill:rgb(159,211,168);"/>
            <path d="M136.708,32.328L137.122,32.328C137.554,32.328 137.887,32.238 138.118,32.059C138.349,31.88 138.464,31.623 138.464,31.287C138.464,30.952 138.349,30.695 138.118,30.515C137.887,30.336 137.554,30.246 137.122,30.246L136.708,30.246L136.708,32.328ZM141.531,36.994L138.8,36.994L136.708,33.749L136.708,36.994L134.515,36.994L134.515,28.557L137.928,28.557C138.397,28.557 138.808,28.627 139.159,28.764C139.509,28.902 139.798,29.09 140.026,29.329C140.254,29.567 140.424,29.844 140.541,30.157C140.657,30.47 140.714,30.806 140.714,31.164C140.714,31.806 140.559,32.327 140.25,32.725C139.94,33.124 139.482,33.395 138.879,33.536L141.531,36.994Z" style="fill:rgb(159,211,168);"/>
            <path d="M144.203,32.745C144.203,33.081 144.266,33.391 144.394,33.673C144.52,33.958 144.692,34.204 144.908,34.413C145.125,34.622 145.376,34.784 145.663,34.899C145.95,35.015 146.255,35.073 146.576,35.073C146.897,35.073 147.201,35.015 147.488,34.899C147.775,34.784 148.028,34.622 148.249,34.413C148.469,34.204 148.642,33.958 148.769,33.673C148.896,33.391 148.959,33.081 148.959,32.745C148.959,32.409 148.896,32.099 148.769,31.817C148.642,31.533 148.469,31.287 148.249,31.078C148.028,30.869 147.775,30.707 147.488,30.592C147.201,30.475 146.897,30.417 146.576,30.417C146.255,30.417 145.95,30.475 145.663,30.592C145.376,30.707 145.125,30.869 144.908,31.078C144.692,31.287 144.52,31.533 144.394,31.817C144.266,32.099 144.203,32.409 144.203,32.745ZM141.91,32.745C141.91,32.119 142.025,31.535 142.256,30.994C142.487,30.454 142.808,29.981 143.218,29.578C143.629,29.176 144.119,28.86 144.69,28.633C145.261,28.406 145.889,28.292 146.576,28.292C147.254,28.292 147.881,28.406 148.455,28.633C149.03,28.86 149.524,29.176 149.938,29.578C150.352,29.981 150.675,30.454 150.906,30.994C151.137,31.535 151.253,32.119 151.253,32.745C151.253,33.372 151.137,33.956 150.906,34.497C150.675,35.038 150.352,35.509 149.938,35.912C149.524,36.314 149.03,36.63 148.455,36.858C147.881,37.084 147.254,37.199 146.576,37.199C145.889,37.199 145.261,37.084 144.69,36.858C144.119,36.63 143.629,36.314 143.218,35.912C142.808,35.509 142.487,35.038 142.256,34.497C142.025,33.956 141.91,33.372 141.91,32.745Z" style="fill:rgb(159,211,168);"/>
            <path d="M154.834,28.557L154.834,33.145C154.834,33.392 154.843,33.643 154.861,33.901C154.88,34.158 154.936,34.391 155.03,34.6C155.123,34.808 155.27,34.978 155.471,35.109C155.673,35.239 155.957,35.305 156.322,35.305C156.688,35.305 156.969,35.239 157.167,35.109C157.364,34.978 157.511,34.808 157.609,34.6C157.706,34.391 157.764,34.158 157.782,33.901C157.8,33.643 157.81,33.392 157.81,33.145L157.81,28.557L159.992,28.557L159.992,33.448C159.992,34.761 159.692,35.718 159.091,36.323C158.491,36.927 157.568,37.23 156.322,37.23C155.076,37.23 154.151,36.927 153.547,36.323C152.943,35.718 152.64,34.761 152.64,33.448L152.64,28.557L154.834,28.557Z" style="fill:rgb(159,211,168);"/>
        </g>
        <path d="M164.033,32.429L164.761,32.429C165.566,32.429 165.969,32.078 165.969,31.376C165.969,30.676 165.566,30.325 164.761,30.325L164.033,30.325L164.033,32.429ZM164.033,36.994L161.84,36.994L161.84,28.556L165.332,28.556C166.278,28.556 167.005,28.804 167.508,29.296C168.011,29.788 168.263,30.481 168.263,31.376C168.263,32.272 168.011,32.966 167.508,33.458C167.005,33.95 166.278,34.196 165.332,34.196L164.033,34.196L164.033,36.994Z" style="fill:rgb(159,211,168);"/>
        <path d="M1.043,4.753L1.046,36.994C1.046,36.994 1.094,36.992 1.184,36.992C1.816,36.992 4.559,36.933 7.704,35.986C7.669,29.02 7.603,14.112 7.644,6.446C4.078,5.061 1.043,4.753 1.043,4.753Z" style="fill:rgb(170,197,216);fill-opacity:0.4;"/>
        <path d="M18.89,21.919C18.888,21.961 18.887,22.002 18.885,22.045C18.883,22.054 18.883,22.064 18.882,22.074C18.649,28.154 16.85,32.189 14.762,34.846L14.762,40.834C14.762,40.834 18.606,40.407 18.888,22.045C18.889,22.002 18.889,21.961 18.89,21.919ZM14.762,0.692L14.762,7.641C16.945,10.572 18.813,14.753 18.902,20.522C18.926,3.513 14.762,0.692 14.762,0.692Z" style="fill:rgb(102,154,184);fill-opacity:0.878431;"/>
        <path d="M14.757,32.013C12.662,34.086 10.069,35.301 7.703,36.014C7.714,38.332 7.722,39.769 7.722,39.769C7.722,39.769 11.575,38.923 14.757,34.874L14.757,32.013ZM7.722,1.788C7.68,2.172 7.655,3.921 7.642,6.476C10.024,7.401 12.645,8.805 14.757,10.913L14.757,7.671C11.577,3.401 7.722,1.788 7.722,1.788Z" style="fill:rgb(102,154,184);fill-opacity:0.694118;"/>
        <path d="M7.638,6.474C7.599,14.139 7.664,29.048 7.699,36.012C10.066,35.3 12.659,34.084 14.754,32.011L14.754,10.911C12.642,8.803 10.021,7.399 7.638,6.474Z" style="fill:rgb(48,125,159);fill-opacity:0.8;"/>
        <path d="M18.875,22.073C18.641,26.622 16.978,29.785 14.755,31.984L14.755,34.845C16.843,32.189 18.642,28.154 18.875,22.073ZM14.755,7.641L14.755,10.884C17.069,13.193 18.775,16.348 18.894,20.646C18.894,20.605 18.894,20.563 18.894,20.522C18.805,14.751 16.938,10.572 14.755,7.641Z" style="fill:rgb(0,105,142);"/>
        <path d="M14.755,10.884L14.755,31.985C16.978,29.786 18.642,26.623 18.875,22.074C18.877,22.065 18.877,22.054 18.877,22.044C18.88,21.969 18.882,21.893 18.885,21.818C18.89,21.422 18.892,21.03 18.894,20.647C18.776,16.349 17.07,13.194 14.755,10.884Z" style="fill:rgb(0,88,126);"/>
        <path d="M36.763,4.965L36.763,37.206C36.763,37.206 36.716,37.205 36.626,37.205C35.993,37.205 33.251,37.145 30.105,36.198C30.14,29.232 30.206,14.324 30.167,6.658C33.731,5.274 36.763,4.965 36.763,4.965Z" style="fill:rgb(228,242,230);fill-opacity:0.4;"/>
        <path d="M18.922,21.919C18.924,21.961 18.925,22.002 18.927,22.045C18.929,22.054 18.929,22.065 18.929,22.074C19.162,28.154 20.961,32.189 23.05,34.846L23.05,40.835C23.05,40.835 19.206,40.408 18.924,22.045C18.923,22.002 18.922,21.961 18.922,21.919ZM23.05,0.692L23.05,7.642C20.866,10.572 18.999,14.753 18.91,20.523C18.885,3.513 23.05,0.692 23.05,0.692Z" style="fill:rgb(205,232,209);fill-opacity:0.878431;"/>
        <path d="M23.047,32.225C25.142,34.298 27.736,35.513 30.102,36.226C30.09,38.544 30.082,39.981 30.082,39.981C30.082,39.981 26.229,39.135 23.047,35.086L23.047,32.225ZM30.082,2C30.124,2.384 30.149,4.133 30.163,6.688C27.78,7.612 25.16,9.017 23.047,11.125L23.047,7.882C26.228,3.613 30.082,2 30.082,2Z" style="fill:rgb(205,232,209);fill-opacity:0.694118;"/>
        <path d="M30.163,6.686C30.203,14.351 30.138,29.26 30.102,36.224C27.736,35.513 25.142,34.296 23.047,32.223L23.047,11.123C25.16,9.015 27.78,7.611 30.163,6.686Z" style="fill:rgb(187,223,192);fill-opacity:0.8;"/>
        <path d="M18.928,22.286C19.163,26.834 20.826,29.997 23.049,32.196L23.049,35.057C20.961,32.401 19.162,28.366 18.928,22.286ZM23.049,7.854L23.049,11.096C20.735,13.406 19.029,16.561 18.91,20.859C18.91,20.818 18.91,20.776 18.91,20.735C18.999,14.964 20.866,10.784 23.049,7.854Z" style="fill:rgb(173,217,180);"/>
        <path d="M23.049,11.096L23.049,32.196C20.826,29.997 19.162,26.835 18.928,22.286C18.927,22.277 18.927,22.265 18.927,22.256C18.924,22.181 18.922,22.105 18.919,22.03C18.914,21.633 18.911,21.241 18.91,20.859C19.028,16.561 20.734,13.406 23.049,11.096Z" style="fill:rgb(159,211,168);"/>
    </g>
</svg>
